<svg width="498" height="341" viewBox="0 0 498 341" fill="none" xmlns="http://www.w3.org/2000/svg">
<g clip-path="url(#clip0_3146_566)">
<rect width="498" height="341" rx="12" fill="#F0F1FF"/>
<mask id="path-2-inside-1_3146_566" fill="white">
<path d="M0 0H98V341H0V0Z"/>
</mask>
<path d="M98 0H97V341H98H99V0H98Z" fill="#DEE0FF" mask="url(#path-2-inside-1_3146_566)"/>
<rect x="14" y="50" width="70" height="10" rx="5" fill="#C5CAFF"/>
<rect x="14" y="65" width="38" height="5" rx="2.5" fill="#C5CAFF"/>
<rect x="14" y="74" width="53" height="5" rx="2.5" fill="#C5CAFF"/>
<rect x="14" y="83" width="19" height="5" rx="2.5" fill="#C5CAFF"/>
<rect x="14" y="104" width="70" height="10" rx="5" fill="#C5CAFF"/>
<rect x="14" y="119" width="21" height="5" rx="2.5" fill="#C5CAFF"/>
<rect x="14" y="128" width="52" height="5" rx="2.5" fill="#C5CAFF"/>
<rect x="14" y="137" width="26" height="5" rx="2.5" fill="#C5CAFF"/>
<rect x="14" y="158" width="70" height="10" rx="5" fill="#C5CAFF"/>
<rect x="14" y="173.008" width="45.3862" height="5" rx="2.5" fill="#C5CAFF"/>
<rect x="14" y="182.007" width="19" height="5" rx="2.5" fill="#C5CAFF"/>
<rect x="14" y="191.007" width="42" height="5" rx="2.5" fill="#C5CAFF"/>
<rect x="14" y="200.007" width="54" height="5" rx="2.5" fill="#C5CAFF"/>
<rect x="14" y="221.007" width="70" height="10" rx="5" fill="#C5CAFF"/>
<rect x="14" y="236.015" width="45.3862" height="5" rx="2.5" fill="#C5CAFF"/>
<rect x="14" y="245.015" width="19" height="5" rx="2.5" fill="#C5CAFF"/>
<rect x="14" y="254.015" width="42" height="5" rx="2.5" fill="#C5CAFF"/>
<rect x="14" y="263.015" width="54" height="5" rx="2.5" fill="#C5CAFF"/>
<mask id="path-22-inside-2_3146_566" fill="white">
<path d="M98 0H498V32H98V0Z"/>
</mask>
<path d="M498 32V31H98V32V33H498V32Z" fill="#DEE0FF" mask="url(#path-22-inside-2_3146_566)"/>
<rect x="236" y="12" width="30" height="8" rx="4" fill="#8181FF"/>
<rect x="283" y="12" width="30" height="8" rx="4" fill="#8181FF"/>
<rect x="330" y="12" width="30" height="8" rx="4" fill="#8181FF"/>
<rect x="443" y="7" width="39" height="17" rx="4" fill="#8181FF"/>
<mask id="path-28-inside-3_3146_566" fill="white">
<path d="M0 0H98V32H0V0Z"/>
</mask>
<path d="M98 32V31H0V32V33H98V32Z" fill="#DEE0FF" mask="url(#path-28-inside-3_3146_566)"/>
<rect x="47" y="12" width="30" height="8" rx="4" fill="#8181FF"/>
<rect x="21" y="7" width="18" height="18" rx="4" fill="#8181FF"/>
<rect x="119" y="52" width="108" height="125" rx="8" fill="white"/>
<path d="M185.693 69.1995C185.693 68.0388 184.661 67.0995 183.385 67.0995H181.213L180.183 68.978C179.401 70.4013 177.801 71.2995 176.054 71.2995H169.947C168.2 71.2995 166.6 70.4013 165.818 68.978L164.788 67.0995H162.616C161.34 67.0995 160.308 68.0388 160.308 69.1995V102.8C160.308 103.96 161.34 104.9 162.616 104.9H183.385C184.661 104.9 185.693 103.96 185.693 102.8V69.1995ZM177.039 99.1245C177.677 99.1245 178.193 99.5942 178.193 100.175C178.193 100.755 177.677 101.225 177.039 101.225H163.193C162.555 101.225 162.039 100.755 162.039 100.175C162.039 99.5942 162.555 99.1245 163.193 99.1245H177.039ZM182.808 99.1245C183.446 99.1245 183.962 99.5942 183.962 100.175C183.962 100.755 183.446 101.225 182.808 101.225H180.5C179.863 101.225 179.347 100.755 179.347 100.175C179.347 99.5942 179.863 99.1245 180.5 99.1245H182.808ZM182.808 95.9745C183.446 95.9745 183.962 96.4442 183.962 97.0245C183.962 97.6049 183.446 98.0745 182.808 98.0745H163.193C162.555 98.0745 162.039 97.6049 162.039 97.0245C162.039 96.4442 162.555 95.9745 163.193 95.9745H182.808ZM182.808 92.8245C183.446 92.8245 183.962 93.2942 183.962 93.8745C183.962 94.4549 183.446 94.9245 182.808 94.9245H163.193C162.555 94.9245 162.039 94.4549 162.039 93.8745C162.039 93.2942 162.555 92.8245 163.193 92.8245H182.808ZM174.438 75.7479C176.685 74.3554 179.612 74.9009 181.192 76.9148C182.794 78.9594 182.522 81.8838 180.518 83.6064L173.791 89.3877C173.347 89.7712 172.653 89.7712 172.209 89.3877L165.482 83.6064C163.479 81.8838 163.206 78.9593 164.809 76.9148C166.388 74.9009 169.316 74.3554 171.563 75.7479L173 76.6379L174.438 75.7479ZM179.313 78.135C178.427 77.005 176.895 76.765 175.736 77.4828L173.649 78.7768C173.257 79.0209 172.743 79.0209 172.351 78.7768L170.264 77.4828C169.106 76.765 167.574 77.005 166.688 78.135C165.735 79.347 165.924 81.0963 167.067 82.0786L173 87.1789L178.934 82.0786C180.077 81.0963 180.266 79.347 179.313 78.135ZM167.884 68.0392C168.274 68.7509 169.072 69.1999 169.946 69.1999H176.054C176.928 69.1999 177.726 68.7508 178.116 68.0392L178.634 67.0999H167.366L167.884 68.0392ZM188 102.8C188 105.119 185.933 107 183.385 107H162.615C160.067 107 158 105.119 158 102.8V69.2C158 66.8805 160.067 65 162.615 65H183.385C185.933 65 188 66.8805 188 69.2V102.8Z" fill="#C5CAFF"/>
<rect x="127" y="121" width="86" height="7" rx="3.5" fill="#C5CAFF"/>
<rect x="127" y="132" width="38" height="5" rx="2.5" fill="#C5CAFF"/>
<path d="M136.109 144.621L134.34 144.365C134.243 144.351 134.158 144.29 134.115 144.202L133.324 142.607C133.225 142.409 133.026 142.285 132.804 142.285C132.581 142.285 132.383 142.408 132.284 142.607L131.491 144.203C131.448 144.291 131.364 144.352 131.267 144.366L129.498 144.623C129.277 144.655 129.097 144.805 129.029 145.016C128.96 145.226 129.015 145.454 129.175 145.609L130.455 146.851C130.525 146.919 130.559 147.018 130.542 147.115L130.239 148.868C130.201 149.087 130.29 149.303 130.47 149.434C130.651 149.564 130.885 149.581 131.082 149.478L132.664 148.65C132.751 148.604 132.855 148.604 132.942 148.65L134.524 149.478C134.609 149.522 134.702 149.544 134.794 149.544C134.914 149.544 135.033 149.506 135.135 149.433C135.316 149.303 135.403 149.087 135.366 148.867L135.064 147.113C135.047 147.017 135.08 146.919 135.15 146.85L136.43 145.608C136.59 145.453 136.645 145.226 136.576 145.015C136.51 144.804 136.33 144.654 136.109 144.621L136.109 144.621Z" fill="#F99D1D"/>
<path d="M147.252 144.621L145.482 144.365C145.385 144.351 145.301 144.29 145.258 144.202L144.466 142.607C144.367 142.409 144.169 142.285 143.946 142.285C143.724 142.285 143.525 142.408 143.426 142.607L142.634 144.203C142.591 144.291 142.506 144.352 142.409 144.366L140.64 144.623C140.419 144.655 140.24 144.805 140.171 145.016C140.103 145.226 140.158 145.454 140.318 145.609L141.598 146.851C141.668 146.919 141.701 147.018 141.684 147.115L141.382 148.868C141.344 149.087 141.432 149.303 141.613 149.434C141.793 149.564 142.027 149.581 142.224 149.478L143.806 148.65C143.894 148.604 143.998 148.604 144.084 148.65L145.666 149.478C145.752 149.522 145.845 149.544 145.936 149.544C146.056 149.544 146.176 149.506 146.278 149.433C146.458 149.303 146.546 149.087 146.509 148.867L146.206 147.113C146.189 147.017 146.223 146.919 146.293 146.85L147.573 145.608C147.732 145.453 147.788 145.226 147.719 145.015C147.652 144.804 147.472 144.654 147.252 144.621L147.252 144.621Z" fill="#F99D1D"/>
<path d="M158.394 144.621L156.625 144.365C156.528 144.351 156.443 144.29 156.401 144.202L155.609 142.607C155.51 142.409 155.311 142.285 155.089 142.285C154.866 142.285 154.668 142.408 154.569 142.607L153.776 144.203C153.734 144.291 153.649 144.352 153.552 144.366L151.783 144.623C151.562 144.655 151.382 144.805 151.314 145.016C151.246 145.226 151.301 145.454 151.46 145.609L152.74 146.851C152.81 146.919 152.844 147.018 152.827 147.115L152.524 148.868C152.486 149.087 152.575 149.303 152.755 149.434C152.936 149.564 153.17 149.581 153.367 149.478L154.949 148.65C155.037 148.604 155.14 148.604 155.227 148.65L156.809 149.478C156.894 149.522 156.988 149.544 157.079 149.544C157.199 149.544 157.318 149.506 157.42 149.433C157.601 149.303 157.688 149.087 157.651 148.867L157.349 147.113C157.332 147.017 157.365 146.919 157.435 146.85L158.715 145.608C158.875 145.453 158.93 145.226 158.862 145.015C158.795 144.804 158.615 144.654 158.394 144.621L158.394 144.621Z" fill="#F99D1D"/>
<path d="M169.538 144.621L167.768 144.365C167.672 144.351 167.587 144.29 167.544 144.202L166.752 142.607C166.654 142.409 166.455 142.285 166.232 142.285C166.01 142.285 165.811 142.408 165.712 142.607L164.92 144.203C164.877 144.291 164.792 144.352 164.696 144.366L162.926 144.623C162.706 144.655 162.526 144.805 162.458 145.016C162.389 145.226 162.444 145.454 162.604 145.609L163.884 146.851C163.954 146.919 163.987 147.018 163.97 147.115L163.668 148.868C163.63 149.087 163.718 149.303 163.899 149.434C164.079 149.564 164.313 149.581 164.51 149.478L166.092 148.65C166.18 148.604 166.284 148.604 166.37 148.65L167.952 149.478C168.038 149.522 168.131 149.544 168.222 149.544C168.342 149.544 168.462 149.506 168.564 149.433C168.744 149.303 168.832 149.087 168.795 148.867L168.492 147.113C168.475 147.017 168.509 146.919 168.579 146.85L169.859 145.608C170.019 145.453 170.074 145.226 170.005 145.015C169.938 144.804 169.759 144.654 169.538 144.621L169.538 144.621Z" fill="#F99D1D"/>
<path d="M180.504 144.793L178.734 144.537C178.637 144.523 178.553 144.462 178.51 144.374L177.718 142.779C177.619 142.581 177.421 142.457 177.198 142.457C176.976 142.457 176.777 142.58 176.678 142.779L175.886 144.375C175.843 144.463 175.758 144.524 175.661 144.538L173.892 144.794C173.671 144.827 173.492 144.977 173.423 145.188C173.355 145.398 173.41 145.626 173.57 145.781L174.85 147.022C174.92 147.091 174.953 147.19 174.936 147.286L174.634 149.04C174.596 149.259 174.684 149.475 174.865 149.606C175.045 149.736 175.279 149.753 175.476 149.65L177.058 148.822C177.146 148.776 177.25 148.776 177.336 148.822L178.918 149.65C179.004 149.694 179.097 149.716 179.188 149.716C179.308 149.716 179.428 149.678 179.53 149.605C179.71 149.475 179.798 149.259 179.761 149.039L179.458 147.285C179.441 147.189 179.475 147.091 179.545 147.021L180.825 145.78C180.984 145.624 181.04 145.397 180.971 145.187C180.904 144.976 180.724 144.826 180.504 144.793L180.504 144.793Z" fill="#F99D1D"/>
<rect x="127" y="159" width="19" height="7" rx="2" fill="#C5CAFF"/>
<rect x="198" y="155" width="21" height="11" rx="2" fill="#C5CAFF"/>
<rect x="243" y="52" width="108" height="125" rx="8" fill="white"/>
<rect x="251" y="121" width="86" height="7" rx="3.5" fill="#C5CAFF"/>
<rect x="251" y="132" width="38" height="5" rx="2.5" fill="#C5CAFF"/>
<path d="M260.109 144.621L258.34 144.365C258.243 144.351 258.158 144.29 258.115 144.202L257.324 142.607C257.225 142.409 257.026 142.285 256.804 142.285C256.581 142.285 256.383 142.408 256.284 142.607L255.491 144.203C255.448 144.291 255.364 144.352 255.267 144.366L253.498 144.623C253.277 144.655 253.097 144.805 253.029 145.016C252.96 145.226 253.015 145.454 253.175 145.609L254.455 146.851C254.525 146.919 254.559 147.018 254.542 147.115L254.239 148.868C254.201 149.087 254.29 149.303 254.47 149.434C254.651 149.564 254.885 149.581 255.082 149.478L256.664 148.65C256.751 148.604 256.855 148.604 256.942 148.65L258.524 149.478C258.609 149.522 258.702 149.544 258.794 149.544C258.914 149.544 259.033 149.506 259.135 149.433C259.316 149.303 259.403 149.087 259.366 148.867L259.064 147.113C259.047 147.017 259.08 146.919 259.15 146.85L260.43 145.608C260.59 145.453 260.645 145.226 260.576 145.015C260.51 144.804 260.33 144.654 260.109 144.621L260.109 144.621Z" fill="#F99D1D"/>
<path d="M271.252 144.621L269.482 144.365C269.385 144.351 269.301 144.29 269.258 144.202L268.466 142.607C268.367 142.409 268.169 142.285 267.946 142.285C267.724 142.285 267.525 142.408 267.426 142.607L266.634 144.203C266.591 144.291 266.506 144.352 266.409 144.366L264.64 144.623C264.419 144.655 264.24 144.805 264.171 145.016C264.103 145.226 264.158 145.454 264.318 145.609L265.598 146.851C265.668 146.919 265.701 147.018 265.684 147.115L265.382 148.868C265.344 149.087 265.432 149.303 265.613 149.434C265.793 149.564 266.027 149.581 266.224 149.478L267.806 148.65C267.894 148.604 267.998 148.604 268.084 148.65L269.666 149.478C269.752 149.522 269.845 149.544 269.936 149.544C270.056 149.544 270.176 149.506 270.278 149.433C270.458 149.303 270.546 149.087 270.509 148.867L270.206 147.113C270.189 147.017 270.223 146.919 270.293 146.85L271.573 145.608C271.732 145.453 271.788 145.226 271.719 145.015C271.652 144.804 271.472 144.654 271.252 144.621L271.252 144.621Z" fill="#F99D1D"/>
<path d="M282.394 144.621L280.625 144.365C280.528 144.351 280.443 144.29 280.401 144.202L279.609 142.607C279.51 142.409 279.311 142.285 279.089 142.285C278.866 142.285 278.668 142.408 278.569 142.607L277.776 144.203C277.734 144.291 277.649 144.352 277.552 144.366L275.783 144.623C275.562 144.655 275.382 144.805 275.314 145.016C275.246 145.226 275.301 145.454 275.46 145.609L276.74 146.851C276.81 146.919 276.844 147.018 276.827 147.115L276.524 148.868C276.486 149.087 276.575 149.303 276.755 149.434C276.936 149.564 277.17 149.581 277.367 149.478L278.949 148.65C279.037 148.604 279.14 148.604 279.227 148.65L280.809 149.478C280.894 149.522 280.988 149.544 281.079 149.544C281.199 149.544 281.318 149.506 281.42 149.433C281.601 149.303 281.688 149.087 281.651 148.867L281.349 147.113C281.332 147.017 281.365 146.919 281.435 146.85L282.715 145.608C282.875 145.453 282.93 145.226 282.862 145.015C282.795 144.804 282.615 144.654 282.394 144.621L282.394 144.621Z" fill="#F99D1D"/>
<path d="M293.538 144.621L291.768 144.365C291.672 144.351 291.587 144.29 291.544 144.202L290.752 142.607C290.654 142.409 290.455 142.285 290.232 142.285C290.01 142.285 289.811 142.408 289.712 142.607L288.92 144.203C288.877 144.291 288.792 144.352 288.696 144.366L286.926 144.623C286.706 144.655 286.526 144.805 286.458 145.016C286.389 145.226 286.444 145.454 286.604 145.609L287.884 146.851C287.954 146.919 287.987 147.018 287.97 147.115L287.668 148.868C287.63 149.087 287.718 149.303 287.899 149.434C288.079 149.564 288.313 149.581 288.51 149.478L290.092 148.65C290.18 148.604 290.284 148.604 290.37 148.65L291.952 149.478C292.038 149.522 292.131 149.544 292.222 149.544C292.342 149.544 292.462 149.506 292.564 149.433C292.744 149.303 292.832 149.087 292.795 148.867L292.492 147.113C292.475 147.017 292.509 146.919 292.579 146.85L293.859 145.608C294.019 145.453 294.074 145.226 294.005 145.015C293.938 144.804 293.759 144.654 293.538 144.621L293.538 144.621Z" fill="#F99D1D"/>
<path d="M304.504 144.793L302.734 144.537C302.637 144.523 302.553 144.462 302.51 144.374L301.718 142.779C301.619 142.581 301.421 142.457 301.198 142.457C300.976 142.457 300.777 142.58 300.678 142.779L299.886 144.375C299.843 144.463 299.758 144.524 299.661 144.538L297.892 144.794C297.671 144.827 297.492 144.977 297.423 145.188C297.355 145.398 297.41 145.626 297.57 145.781L298.85 147.022C298.92 147.091 298.953 147.19 298.936 147.286L298.634 149.04C298.596 149.259 298.684 149.475 298.865 149.606C299.045 149.736 299.279 149.753 299.476 149.65L301.058 148.822C301.146 148.776 301.25 148.776 301.336 148.822L302.918 149.65C303.004 149.694 303.097 149.716 303.188 149.716C303.308 149.716 303.428 149.678 303.53 149.605C303.71 149.475 303.798 149.259 303.761 149.039L303.458 147.285C303.441 147.189 303.475 147.091 303.545 147.021L304.825 145.78C304.984 145.624 305.04 145.397 304.971 145.187C304.904 144.976 304.724 144.826 304.504 144.793L304.504 144.793Z" fill="#F99D1D"/>
<rect x="251" y="159" width="19" height="7" rx="2" fill="#C5CAFF"/>
<rect x="322" y="155" width="21" height="11" rx="2" fill="#C5CAFF"/>
<path d="M304.238 64.0058C304.005 64.0105 303.765 64.0199 303.52 64.0364C303.343 64.0482 303.171 64.1 303.018 64.1895C300.99 65.36 299.876 66.9239 299.113 68.1957C298.348 69.4675 297.856 70.3412 297.389 70.6097C295.986 71.42 295.015 72.4138 294.53 73.5726C294.045 74.729 294.09 75.9749 294.443 77.1195C295.15 79.4088 296.963 81.4884 298.897 83.4244C299.125 83.6529 299.441 83.773 299.763 83.7612C300.086 83.7471 300.387 83.5987 300.595 83.3514L300.616 83.3278C302.865 85.9516 303.275 88.2408 304.302 90.9163C305.449 93.9027 307.437 97.1223 313.263 100.488C315.625 101.863 317.858 102.403 319.733 102.311C321.607 102.219 323.202 101.496 323.984 100.142C324.024 100.071 324.057 99.998 324.083 99.9202L324.646 98.1892H324.643C324.73 97.9254 324.719 97.6428 324.61 97.3884C324.61 97.3884 324.467 97.0446 324.323 96.6889C324.252 96.5099 324.179 96.3309 324.132 96.199C324.123 96.1755 324.123 96.1684 324.116 96.1495C324.127 94.1241 324.33 92.6568 323.659 90.888C322.969 89.0721 321.483 87.2163 318.31 84.0435C317.783 83.5136 316.85 81.9403 316.172 79.9501C315.493 77.96 314.996 75.5247 314.996 73.1153C314.996 72.9127 314.942 72.7149 314.841 72.5383C313.854 70.8308 313.126 68.6428 311.546 66.8292C310.067 65.1288 307.752 63.9323 304.238 64.003L304.238 64.0058ZM304.869 66.3044C307.474 66.3398 308.777 67.1641 309.806 68.3464C310.929 69.637 311.641 71.5401 312.696 73.4266C312.736 76.0385 313.261 78.5727 313.986 80.6949C314.74 82.9018 315.635 84.6328 316.676 85.6738C319.778 88.7756 321.026 90.4596 321.5 91.708C321.973 92.9539 321.803 94.0514 321.803 96.3077C321.803 96.7811 321.858 96.6822 321.883 96.7599C321.909 96.8376 321.935 96.9153 321.966 96.9978C322.027 97.165 322.105 97.3581 322.18 97.5465C322.249 97.7185 322.263 97.7491 322.317 97.8786L321.935 99.0562C321.648 99.4731 320.887 99.9441 319.618 100.008C318.28 100.074 316.459 99.6827 314.42 98.4933H314.424C314.422 98.4933 314.422 98.4933 314.42 98.491C308.92 95.3162 307.5 92.8078 306.454 90.0873C305.411 87.367 304.813 84.1899 301.391 80.7677C301.162 80.5393 300.849 80.4168 300.526 80.431C300.204 80.4451 299.902 80.5935 299.693 80.8408L299.657 80.8832C298.211 79.3217 297.045 77.7295 296.647 76.4389C296.41 75.6664 296.412 75.0517 296.657 74.4629C296.904 73.8764 297.439 73.2429 298.541 72.607C299.883 71.8321 300.397 70.5391 301.089 69.3827C301.749 68.2852 302.512 67.2159 303.951 66.3233C304.271 66.3068 304.582 66.2974 304.869 66.3021L304.869 66.3044ZM324.093 96.0085C324.097 96.0156 324.102 96.058 324.107 96.1286C324.097 96.1027 324.086 96.0674 324.081 96.0556C324.076 96.0438 324.086 95.9967 324.093 96.0062V96.0085Z" fill="#C5CAFF"/>
<path d="M298.222 70.3711C297.584 70.3711 297.068 70.8869 297.068 71.5228C297.068 74.0594 298.552 75.9412 300.118 77.5474C301.687 79.1537 303.402 80.6162 304.447 82.3403C307.587 87.5218 308.571 91.5941 311.254 94.2765C313.993 97.0157 316.706 98.2733 318.969 98.5724C321.233 98.8692 323.136 98.3228 323.993 96.8366L323.991 96.839C324.144 96.5729 324.186 96.2596 324.106 95.9629C324.026 95.6685 323.833 95.4165 323.569 95.2634C323.018 94.9454 322.312 95.1338 321.994 95.6873C321.895 95.8592 320.931 96.5069 319.269 96.2879C317.606 96.0688 315.335 95.0985 312.884 92.649C310.898 90.6636 309.711 86.5823 306.421 81.1487C305.109 78.9866 303.22 77.4275 301.772 75.9414C300.321 74.4552 299.376 73.1693 299.376 71.5254V71.523C299.376 70.8871 298.858 70.3711 298.222 70.3711Z" fill="#C5CAFF"/>
<path d="M287.892 78.3896C287.713 78.3825 287.532 78.3825 287.351 78.3943C285.891 78.4767 284.388 79.2657 283.281 80.8367C283.26 80.8626 283.241 80.8908 283.224 80.9214L279.011 88.1964H279.013C278.469 89.1385 276.689 90.0005 274.814 91.0086C273.877 91.5126 272.93 92.0755 272.157 92.8904C271.496 93.5899 270.992 94.5202 270.86 95.6059C270.817 95.646 270.784 95.6719 270.74 95.7166C270.462 96.0016 270 96.2983 270 97.2263V100.705C270 101.117 270.219 101.496 270.577 101.703C274.067 103.717 278.653 103.842 282.749 102.947C286.722 102.078 290.304 100.309 291.988 97.6573L293.397 96.7175C293.696 97.125 294.226 97.2899 294.704 97.1226C294.704 97.1226 297.813 96.1005 299.393 93.3661C299.499 93.1871 299.551 92.9822 299.549 92.7726C299.549 92.7726 299.541 92.1107 299.438 91.3453C299.344 90.6387 299.315 89.8403 298.67 89.0796C298.658 89.0537 298.642 89.0113 298.635 88.9359C298.614 88.7004 298.604 88.3047 298.576 87.8384C298.517 86.9034 298.371 85.641 297.662 84.4139C297.203 83.6202 297.087 83.3022 296.996 82.949C296.906 82.5957 296.842 82.0893 296.607 81.2061C296.463 80.6715 295.962 80.3135 295.41 80.3535C294.857 80.3936 294.412 80.8222 294.348 81.371C294.348 81.371 294.329 81.5194 294.296 81.7101C293.583 81.0389 292.542 80.1698 291.317 79.4774C290.307 78.9075 289.148 78.4387 287.895 78.387L287.892 78.3896ZM287.791 80.6953C288.531 80.733 289.374 81.0321 290.184 81.489C292.035 82.5324 293.571 84.2588 293.571 84.2588H293.569C293.609 84.3059 293.653 84.3483 293.7 84.386C293.962 84.6026 294.414 84.8028 294.869 84.7345C294.984 84.718 295.088 84.6874 295.184 84.6497C295.314 84.9229 295.464 85.2197 295.665 85.5659V85.5683C296.096 86.3149 296.223 87.1722 296.272 87.9823C296.298 88.3874 296.301 88.7713 296.338 89.1552C296.374 89.5415 296.345 89.9984 296.873 90.5236C296.732 90.3823 297.071 91.0488 297.153 91.6564C297.196 91.9744 297.217 92.2617 297.231 92.476C296.677 93.2815 295.844 93.901 295.147 94.3225L295.144 94.3202C294.996 94.0352 294.737 93.8232 294.423 93.7384C294.113 93.6513 293.781 93.7008 293.507 93.8727L290.507 95.8723C290.361 95.9688 290.236 96.1007 290.149 96.2538C289.138 98.006 285.945 99.8879 282.256 100.693C278.82 101.445 275.024 101.31 272.306 100.008V97.4856C272.315 97.4503 272.336 97.3867 272.39 97.3301C272.525 97.1912 272.671 97.0805 272.671 97.0805V97.0781C272.96 96.8591 273.13 96.52 273.13 96.1573C273.13 95.4272 273.361 94.975 273.832 94.478C274.303 93.981 275.045 93.5053 275.904 93.0413C277.626 92.1157 279.861 91.3409 281.008 89.3507L285.186 82.1342C285.963 81.0414 286.677 80.7399 287.478 80.6952C287.579 80.6905 287.683 80.6905 287.789 80.6952L287.791 80.6953ZM298.505 88.894C298.595 88.9835 298.635 89.0353 298.658 89.0683C298.609 89.0094 298.562 88.9505 298.505 88.894Z" fill="#C5CAFF"/>
<path d="M297.212 87.7646C296.906 87.7646 296.612 87.8871 296.395 88.1038C294.61 89.889 290.37 92.8802 285.726 94.7409C281.084 96.6038 276.112 97.3127 272.549 95.2567H272.551C272 94.9387 271.294 95.1271 270.976 95.6783C270.658 96.2294 270.846 96.9359 271.397 97.2539C275.931 99.8705 281.614 98.8743 286.586 96.8818C291.558 94.8893 295.887 91.8746 298.025 89.734H298.028C298.244 89.5173 298.364 89.2253 298.364 88.9191C298.364 88.6129 298.244 88.3209 298.028 88.1042C297.811 87.8875 297.516 87.7646 297.212 87.7646Z" fill="#C5CAFF"/>
<path d="M303.663 64.3232C303.364 64.2643 303.053 64.3279 302.799 64.4975C302.545 64.6694 302.37 64.9332 302.312 65.2347C302.312 65.2347 301.094 71.4618 306.033 74.3119V74.3095C306.207 74.4108 306.405 74.4649 306.607 74.4649C307.613 74.4649 308.847 74.2459 310.114 74.1093C311.381 73.9727 312.66 73.9421 313.324 74.1211H313.327C313.621 74.1988 313.937 74.1588 314.201 74.0057C314.467 73.8526 314.66 73.6006 314.738 73.3038C314.818 73.0094 314.778 72.6938 314.625 72.43C314.471 72.1663 314.219 71.9708 313.923 71.8931C312.637 71.5492 311.216 71.6717 309.867 71.8177C308.694 71.9449 307.587 72.1003 306.909 72.1427C303.722 70.0395 304.575 65.6775 304.575 65.6775V65.6751C304.697 65.051 304.29 64.4457 303.663 64.3232Z" fill="#C5CAFF"/>
<rect x="367" y="52" width="108" height="125" rx="8" fill="white"/>
<rect x="375" y="121" width="86" height="7" rx="3.5" fill="#C5CAFF"/>
<rect x="375" y="132" width="38" height="5" rx="2.5" fill="#C5CAFF"/>
<path d="M384.109 144.621L382.34 144.365C382.243 144.351 382.158 144.29 382.115 144.202L381.324 142.607C381.225 142.409 381.026 142.285 380.804 142.285C380.581 142.285 380.383 142.408 380.284 142.607L379.491 144.203C379.448 144.291 379.364 144.352 379.267 144.366L377.498 144.623C377.277 144.655 377.097 144.805 377.029 145.016C376.96 145.226 377.015 145.454 377.175 145.609L378.455 146.851C378.525 146.919 378.559 147.018 378.542 147.115L378.239 148.868C378.201 149.087 378.29 149.303 378.47 149.434C378.651 149.564 378.885 149.581 379.082 149.478L380.664 148.65C380.751 148.604 380.855 148.604 380.942 148.65L382.524 149.478C382.609 149.522 382.702 149.544 382.794 149.544C382.914 149.544 383.033 149.506 383.135 149.433C383.316 149.303 383.403 149.087 383.366 148.867L383.064 147.113C383.047 147.017 383.08 146.919 383.15 146.85L384.43 145.608C384.59 145.453 384.645 145.226 384.576 145.015C384.51 144.804 384.33 144.654 384.109 144.621L384.109 144.621Z" fill="#F99D1D"/>
<path d="M395.252 144.621L393.482 144.365C393.385 144.351 393.301 144.29 393.258 144.202L392.466 142.607C392.367 142.409 392.169 142.285 391.946 142.285C391.724 142.285 391.525 142.408 391.426 142.607L390.634 144.203C390.591 144.291 390.506 144.352 390.409 144.366L388.64 144.623C388.419 144.655 388.24 144.805 388.171 145.016C388.103 145.226 388.158 145.454 388.318 145.609L389.598 146.851C389.668 146.919 389.701 147.018 389.684 147.115L389.382 148.868C389.344 149.087 389.432 149.303 389.613 149.434C389.793 149.564 390.027 149.581 390.224 149.478L391.806 148.65C391.894 148.604 391.998 148.604 392.084 148.65L393.666 149.478C393.752 149.522 393.845 149.544 393.936 149.544C394.056 149.544 394.176 149.506 394.278 149.433C394.458 149.303 394.546 149.087 394.509 148.867L394.206 147.113C394.189 147.017 394.223 146.919 394.293 146.85L395.573 145.608C395.732 145.453 395.788 145.226 395.719 145.015C395.652 144.804 395.472 144.654 395.252 144.621L395.252 144.621Z" fill="#F99D1D"/>
<path d="M406.394 144.621L404.625 144.365C404.528 144.351 404.443 144.29 404.401 144.202L403.609 142.607C403.51 142.409 403.311 142.285 403.089 142.285C402.866 142.285 402.668 142.408 402.569 142.607L401.776 144.203C401.734 144.291 401.649 144.352 401.552 144.366L399.783 144.623C399.562 144.655 399.382 144.805 399.314 145.016C399.246 145.226 399.301 145.454 399.46 145.609L400.74 146.851C400.81 146.919 400.844 147.018 400.827 147.115L400.524 148.868C400.486 149.087 400.575 149.303 400.755 149.434C400.936 149.564 401.17 149.581 401.367 149.478L402.949 148.65C403.037 148.604 403.14 148.604 403.227 148.65L404.809 149.478C404.894 149.522 404.988 149.544 405.079 149.544C405.199 149.544 405.318 149.506 405.42 149.433C405.601 149.303 405.688 149.087 405.651 148.867L405.349 147.113C405.332 147.017 405.365 146.919 405.435 146.85L406.715 145.608C406.875 145.453 406.93 145.226 406.862 145.015C406.795 144.804 406.615 144.654 406.394 144.621L406.394 144.621Z" fill="#F99D1D"/>
<path d="M417.538 144.621L415.768 144.365C415.672 144.351 415.587 144.29 415.544 144.202L414.752 142.607C414.654 142.409 414.455 142.285 414.232 142.285C414.01 142.285 413.811 142.408 413.712 142.607L412.92 144.203C412.877 144.291 412.792 144.352 412.696 144.366L410.926 144.623C410.706 144.655 410.526 144.805 410.458 145.016C410.389 145.226 410.444 145.454 410.604 145.609L411.884 146.851C411.954 146.919 411.987 147.018 411.97 147.115L411.668 148.868C411.63 149.087 411.718 149.303 411.899 149.434C412.079 149.564 412.313 149.581 412.51 149.478L414.092 148.65C414.18 148.604 414.284 148.604 414.37 148.65L415.952 149.478C416.038 149.522 416.131 149.544 416.222 149.544C416.342 149.544 416.462 149.506 416.564 149.433C416.744 149.303 416.832 149.087 416.795 148.867L416.492 147.113C416.475 147.017 416.509 146.919 416.579 146.85L417.859 145.608C418.019 145.453 418.074 145.226 418.005 145.015C417.938 144.804 417.759 144.654 417.538 144.621L417.538 144.621Z" fill="#F99D1D"/>
<path d="M428.504 144.793L426.734 144.537C426.637 144.523 426.553 144.462 426.51 144.374L425.718 142.779C425.619 142.581 425.421 142.457 425.198 142.457C424.976 142.457 424.777 142.58 424.678 142.779L423.886 144.375C423.843 144.463 423.758 144.524 423.661 144.538L421.892 144.794C421.671 144.827 421.492 144.977 421.423 145.188C421.355 145.398 421.41 145.626 421.57 145.781L422.85 147.022C422.92 147.091 422.953 147.19 422.936 147.286L422.634 149.04C422.596 149.259 422.684 149.475 422.865 149.606C423.045 149.736 423.279 149.753 423.476 149.65L425.058 148.822C425.146 148.776 425.25 148.776 425.336 148.822L426.918 149.65C427.004 149.694 427.097 149.716 427.188 149.716C427.308 149.716 427.428 149.678 427.53 149.605C427.71 149.475 427.798 149.259 427.761 149.039L427.458 147.285C427.441 147.189 427.475 147.091 427.545 147.021L428.825 145.78C428.984 145.624 429.04 145.397 428.971 145.187C428.904 144.976 428.724 144.826 428.504 144.793L428.504 144.793Z" fill="#F99D1D"/>
<rect x="375" y="159" width="19" height="7" rx="2" fill="#C5CAFF"/>
<rect x="446" y="155" width="21" height="11" rx="2" fill="#C5CAFF"/>
<path d="M440.304 80.8702V77.2334C440.302 75.8199 439.308 74.601 437.922 74.3191C437.559 73.0426 437.372 71.7224 437.366 70.3963V67.8791C437.414 66.8666 437.044 65.88 436.344 65.1474C435.645 64.4129 434.674 64 433.662 64C432.649 64 431.678 64.4129 430.98 65.1474C430.279 65.88 429.91 66.8666 429.957 67.8791V70.3963C429.953 71.7244 429.763 73.0445 429.393 74.3191C428.008 74.601 427.013 75.8199 427.011 77.2334V80.8702C426.57 80.9893 426.152 81.1799 425.772 81.434C424.937 79.9968 423.392 79.1233 421.731 79.1471H413.48C413.252 79.1471 413.04 79.03 412.916 78.8374C412.263 77.8329 411.916 76.6596 411.916 75.4626C412.273 73.8188 410.963 72.2862 409.335 73.2471C407.364 74.597 406.298 76.9237 406.564 79.2978C405.402 79.6095 404.414 80.3718 403.818 81.4161C403.223 82.4603 403.068 83.6971 403.388 84.8564C402.339 85.2217 401.635 86.2083 401.633 87.3181V88.9459C400.898 88.9261 400.189 89.2239 399.689 89.7619C399.187 90.2979 398.941 91.0245 399.012 91.757L399.878 100.373C400.148 103.198 402.528 105.35 405.365 105.336H424.796C425.423 105.336 426.046 105.228 426.638 105.018C427.142 105.227 427.68 105.334 428.226 105.336H439.169C441.549 105.332 443.476 103.404 443.48 101.024V85.0152C443.476 83.0756 442.176 81.3784 440.304 80.8702ZM430.481 89.7797C429.981 89.2318 429.27 88.9241 428.528 88.938V87.9295H441.892V98.0937H430.505L431.133 91.7411C431.198 91.0244 430.962 90.3137 430.481 89.7797ZM431.569 67.8788C431.639 66.7612 432.566 65.8876 433.685 65.8876C434.805 65.8876 435.732 66.7612 435.802 67.8788C435.685 70.0089 435.847 72.145 436.286 74.2315H431.101C431.534 72.143 431.69 70.007 431.569 67.8788ZM430.045 75.8196H437.326C437.699 75.8196 438.057 75.9685 438.317 76.2345C438.579 76.5006 438.722 76.8599 438.716 77.2331V80.7032H428.671V77.2331C428.669 76.8638 428.814 76.5085 429.076 76.2444C429.336 75.9824 429.691 75.8355 430.06 75.8355L430.045 75.8196ZM428.234 82.2912H439.169C440.672 82.2952 441.889 83.5121 441.892 85.0149V86.341H428.337C427.99 85.4913 427.222 84.8878 426.313 84.7529C426.461 84.193 426.491 83.6094 426.4 83.0376C426.896 82.5691 427.551 82.3011 428.234 82.2912ZM405.65 81.5765C406.01 81.2013 406.462 80.9274 406.96 80.7825C407.778 80.58 408.31 79.7899 408.191 78.956C407.931 77.1833 408.769 75.4303 410.311 74.5171C410.196 76.3217 410.643 78.1163 411.59 79.6546C412.001 80.3018 412.714 80.6909 413.48 80.6869H421.802C423.795 80.6155 425.51 82.7754 424.645 84.6573H405.007C404.604 83.5932 404.856 82.3905 405.65 81.5765ZM403.22 87.3097C403.228 86.992 403.375 86.6943 403.623 86.4977C403.873 86.2992 404.195 86.2218 404.507 86.2853H425.907C426.475 86.2853 426.935 86.7419 426.939 87.3096V88.9375H403.22L403.22 87.3097ZM405.364 103.747C403.345 103.755 401.654 102.223 401.465 100.214L400.6 91.5979C400.572 91.324 400.663 91.052 400.848 90.8475C401.033 90.643 401.293 90.5259 401.569 90.5259H428.567C428.841 90.5299 429.101 90.647 429.286 90.8495C429.471 91.0539 429.56 91.3239 429.536 91.5979L428.695 100.214C428.506 102.223 426.815 103.755 424.796 103.747L405.364 103.747ZM439.176 103.747H428.662C429.732 102.663 430.336 101.204 430.346 99.6816H441.892V101.024C441.888 102.526 440.671 103.743 439.168 103.747H439.176Z" fill="#C5CAFF"/>
<path d="M434.107 91.9973H438.609C439.048 91.9973 439.403 91.642 439.403 91.2033C439.403 90.7645 439.048 90.4092 438.609 90.4092H434.107C433.668 90.4092 433.312 90.7645 433.312 91.2033C433.312 91.642 433.668 91.9973 434.107 91.9973Z" fill="#C5CAFF"/>
<path d="M437.926 94.0303H434.376C433.937 94.0303 433.582 94.3856 433.582 94.8244C433.582 95.2631 433.937 95.6184 434.376 95.6184H437.926C438.364 95.6184 438.72 95.2631 438.72 94.8244C438.72 94.3856 438.364 94.0303 437.926 94.0303Z" fill="#C5CAFF"/>
<path d="M421.766 92.6875H408.394C407.078 92.6875 406.012 93.7536 406.012 95.0697V99.2307C406.012 100.547 407.078 101.613 408.394 101.613H421.766C423.082 101.613 424.148 100.547 424.148 99.2307V95.0697C424.148 93.7536 423.082 92.6875 421.766 92.6875ZM422.56 99.2307C422.56 99.4412 422.477 99.6436 422.328 99.7925C422.179 99.9414 421.976 100.025 421.766 100.025H408.394C407.955 100.025 407.6 99.6695 407.6 99.2307V95.0698C407.6 94.631 407.955 94.2757 408.394 94.2757H421.766C421.976 94.2757 422.179 94.3591 422.328 94.5079C422.477 94.6568 422.56 94.8593 422.56 95.0698V99.2307Z" fill="#C5CAFF"/>
<path d="M419.661 96.3535H410.522C410.083 96.3535 409.728 96.7089 409.728 97.1476C409.728 97.5863 410.083 97.9417 410.522 97.9417H419.661C420.1 97.9417 420.455 97.5863 420.455 97.1476C420.455 96.7089 420.1 96.3535 419.661 96.3535Z" fill="#C5CAFF"/>
<rect x="119" y="189" width="108" height="125" rx="8" fill="white"/>
<rect x="127" y="258" width="86" height="7" rx="3.5" fill="#C5CAFF"/>
<rect x="127" y="269" width="38" height="5" rx="2.5" fill="#C5CAFF"/>
<path d="M136.109 281.621L134.34 281.365C134.243 281.351 134.158 281.29 134.115 281.202L133.324 279.607C133.225 279.409 133.026 279.285 132.804 279.285C132.581 279.285 132.383 279.408 132.284 279.607L131.491 281.203C131.448 281.291 131.364 281.352 131.267 281.366L129.498 281.623C129.277 281.655 129.097 281.805 129.029 282.016C128.96 282.226 129.015 282.454 129.175 282.609L130.455 283.851C130.525 283.919 130.559 284.018 130.542 284.115L130.239 285.868C130.201 286.087 130.29 286.303 130.47 286.434C130.651 286.564 130.885 286.581 131.082 286.478L132.664 285.65C132.751 285.604 132.855 285.604 132.942 285.65L134.524 286.478C134.609 286.522 134.702 286.544 134.794 286.544C134.914 286.544 135.033 286.506 135.135 286.433C135.316 286.303 135.403 286.087 135.366 285.867L135.064 284.113C135.047 284.017 135.08 283.919 135.15 283.85L136.43 282.608C136.59 282.453 136.645 282.226 136.576 282.015C136.51 281.804 136.33 281.654 136.109 281.621L136.109 281.621Z" fill="#F99D1D"/>
<path d="M147.252 281.621L145.482 281.365C145.385 281.351 145.301 281.29 145.258 281.202L144.466 279.607C144.367 279.409 144.169 279.285 143.946 279.285C143.724 279.285 143.525 279.408 143.426 279.607L142.634 281.203C142.591 281.291 142.506 281.352 142.409 281.366L140.64 281.623C140.419 281.655 140.24 281.805 140.171 282.016C140.103 282.226 140.158 282.454 140.318 282.609L141.598 283.851C141.668 283.919 141.701 284.018 141.684 284.115L141.382 285.868C141.344 286.087 141.432 286.303 141.613 286.434C141.793 286.564 142.027 286.581 142.224 286.478L143.806 285.65C143.894 285.604 143.998 285.604 144.084 285.65L145.666 286.478C145.752 286.522 145.845 286.544 145.936 286.544C146.056 286.544 146.176 286.506 146.278 286.433C146.458 286.303 146.546 286.087 146.509 285.867L146.206 284.113C146.189 284.017 146.223 283.919 146.293 283.85L147.573 282.608C147.732 282.453 147.788 282.226 147.719 282.015C147.652 281.804 147.472 281.654 147.252 281.621L147.252 281.621Z" fill="#F99D1D"/>
<path d="M158.394 281.621L156.625 281.365C156.528 281.351 156.443 281.29 156.401 281.202L155.609 279.607C155.51 279.409 155.311 279.285 155.089 279.285C154.866 279.285 154.668 279.408 154.569 279.607L153.776 281.203C153.734 281.291 153.649 281.352 153.552 281.366L151.783 281.623C151.562 281.655 151.382 281.805 151.314 282.016C151.246 282.226 151.301 282.454 151.46 282.609L152.74 283.851C152.81 283.919 152.844 284.018 152.827 284.115L152.524 285.868C152.486 286.087 152.575 286.303 152.755 286.434C152.936 286.564 153.17 286.581 153.367 286.478L154.949 285.65C155.037 285.604 155.14 285.604 155.227 285.65L156.809 286.478C156.894 286.522 156.988 286.544 157.079 286.544C157.199 286.544 157.318 286.506 157.42 286.433C157.601 286.303 157.688 286.087 157.651 285.867L157.349 284.113C157.332 284.017 157.365 283.919 157.435 283.85L158.715 282.608C158.875 282.453 158.93 282.226 158.862 282.015C158.795 281.804 158.615 281.654 158.394 281.621L158.394 281.621Z" fill="#F99D1D"/>
<path d="M169.538 281.621L167.768 281.365C167.672 281.351 167.587 281.29 167.544 281.202L166.752 279.607C166.654 279.409 166.455 279.285 166.232 279.285C166.01 279.285 165.811 279.408 165.712 279.607L164.92 281.203C164.877 281.291 164.792 281.352 164.696 281.366L162.926 281.623C162.706 281.655 162.526 281.805 162.458 282.016C162.389 282.226 162.444 282.454 162.604 282.609L163.884 283.851C163.954 283.919 163.987 284.018 163.97 284.115L163.668 285.868C163.63 286.087 163.718 286.303 163.899 286.434C164.079 286.564 164.313 286.581 164.51 286.478L166.092 285.65C166.18 285.604 166.284 285.604 166.37 285.65L167.952 286.478C168.038 286.522 168.131 286.544 168.222 286.544C168.342 286.544 168.462 286.506 168.564 286.433C168.744 286.303 168.832 286.087 168.795 285.867L168.492 284.113C168.475 284.017 168.509 283.919 168.579 283.85L169.859 282.608C170.019 282.453 170.074 282.226 170.005 282.015C169.938 281.804 169.759 281.654 169.538 281.621L169.538 281.621Z" fill="#F99D1D"/>
<path d="M180.504 281.793L178.734 281.537C178.637 281.523 178.553 281.462 178.51 281.374L177.718 279.779C177.619 279.581 177.421 279.457 177.198 279.457C176.976 279.457 176.777 279.58 176.678 279.779L175.886 281.375C175.843 281.463 175.758 281.524 175.661 281.538L173.892 281.794C173.671 281.827 173.492 281.977 173.423 282.188C173.355 282.398 173.41 282.626 173.57 282.781L174.85 284.022C174.92 284.091 174.953 284.19 174.936 284.286L174.634 286.04C174.596 286.259 174.684 286.475 174.865 286.606C175.045 286.736 175.279 286.753 175.476 286.65L177.058 285.822C177.146 285.776 177.25 285.776 177.336 285.822L178.918 286.65C179.004 286.694 179.097 286.716 179.188 286.716C179.308 286.716 179.428 286.678 179.53 286.605C179.71 286.475 179.798 286.259 179.761 286.039L179.458 284.285C179.441 284.189 179.475 284.091 179.545 284.021L180.825 282.78C180.984 282.624 181.04 282.397 180.971 282.187C180.904 281.976 180.724 281.826 180.504 281.793L180.504 281.793Z" fill="#F99D1D"/>
<rect x="127" y="296" width="19" height="7" rx="2" fill="#C5CAFF"/>
<rect x="198" y="292" width="21" height="11" rx="2" fill="#C5CAFF"/>
<path d="M195.903 202.382H172.637C172.146 202.382 171.75 202.781 171.747 203.269V216.653H156.455C154.179 216.636 152.375 219.329 152.446 222.572L153.485 231.121C150.872 230.223 148.483 232.755 149.121 235.378L150.756 242.771L150.758 242.773C150.846 243.178 151.206 243.465 151.619 243.465H153.982L153.494 244.781C153.057 245.918 153.532 247.206 154.606 247.784C155.15 248.033 155.773 248.037 156.32 247.799C156.868 247.559 157.288 247.099 157.477 246.531L158.623 243.465H173.046L174.183 246.531C174.372 247.103 174.794 247.566 175.347 247.804C175.899 248.041 176.527 248.033 177.071 247.776C178.14 247.193 178.607 245.905 178.164 244.772L177.684 243.465H180.03C180.448 243.465 180.808 243.178 180.902 242.773L181.72 239.058H189.585L190.481 241.918C190.599 242.291 190.946 242.544 191.336 242.542H193.407H193.405C193.896 242.54 194.292 242.143 194.294 241.653V239.058H195.903C196.139 239.058 196.366 238.966 196.533 238.799C196.698 238.632 196.792 238.405 196.792 238.169V203.269C196.79 202.78 196.394 202.382 195.903 202.382L195.903 202.382ZM156.455 218.431H175.178C176.225 218.431 177.391 220.066 177.408 222.412L175.987 234.127C175.169 232.588 173.569 231.629 171.829 231.629H159.332C157.845 231.631 156.446 232.34 155.566 233.54L154.223 222.412C154.242 220.066 155.405 218.431 156.455 218.431ZM180.797 234.988L179.319 241.69H152.339L150.855 234.988C150.403 233.129 152.633 231.753 153.779 233.557L154.233 237.326C154.287 237.769 154.664 238.106 155.112 238.108H176.513C176.96 238.108 177.34 237.771 177.391 237.326C177.398 237.317 177.824 233.658 177.845 233.656C178.895 231.738 181.247 233.028 180.795 234.988H180.797ZM183.383 237.281H182.11L182.528 235.378C183.214 232.799 180.692 230.166 178.138 231.138L178.361 229.369H183.383L183.383 237.281ZM183.383 227.595H178.573L179.177 222.573C179.248 219.329 177.444 216.637 175.177 216.654H173.526V204.159H183.381L183.383 227.595ZM192.516 240.765H191.982L191.449 239.059H192.516L192.516 240.765ZM195.014 237.281C192.355 237.287 187.88 237.283 185.159 237.281V229.371H195.014V237.281ZM195.014 227.595H185.159V204.159H195.014V227.595Z" fill="#C5CAFF"/>
<path d="M186.859 219.026C187.349 219.024 187.746 218.627 187.748 218.137V214.405C187.748 213.914 187.349 213.516 186.859 213.516C186.368 213.516 185.97 213.914 185.97 214.405V218.137C185.97 218.373 186.062 218.6 186.229 218.767C186.396 218.934 186.623 219.026 186.859 219.026Z" fill="#C5CAFF"/>
<path d="M181.69 219.026C182.181 219.024 182.577 218.627 182.579 218.137V214.405C182.579 213.914 182.181 213.516 181.69 213.516C181.199 213.516 180.801 213.914 180.801 214.405V218.137C180.803 218.627 181.199 219.024 181.69 219.026Z" fill="#C5CAFF"/>
<path d="M186.859 235.419C187.349 235.417 187.746 235.021 187.748 234.53V232.503C187.748 232.013 187.349 231.616 186.859 231.616C186.368 231.616 185.97 232.013 185.97 232.503V234.53C185.97 234.766 186.062 234.993 186.229 235.16C186.396 235.327 186.623 235.419 186.859 235.419Z" fill="#C5CAFF"/>
<path d="M151.771 206.507H156.178V211.227H151.771V206.507Z" fill="#C5CAFF"/>
<path d="M151.771 200H156.178V204.72H151.771V200Z" fill="#C5CAFF"/>
<path d="M157.955 206.507H162.362V211.227H157.955V206.507Z" fill="#C5CAFF"/>
<path d="M157.955 200H162.362V204.72H157.955V200Z" fill="#C5CAFF"/>
<rect x="243" y="189" width="108" height="125" rx="8" fill="white"/>
<rect x="251" y="258" width="86" height="7" rx="3.5" fill="#C5CAFF"/>
<rect x="251" y="269" width="38" height="5" rx="2.5" fill="#C5CAFF"/>
<path d="M260.109 281.621L258.34 281.365C258.243 281.351 258.158 281.29 258.115 281.202L257.324 279.607C257.225 279.409 257.026 279.285 256.804 279.285C256.581 279.285 256.383 279.408 256.284 279.607L255.491 281.203C255.448 281.291 255.364 281.352 255.267 281.366L253.498 281.623C253.277 281.655 253.097 281.805 253.029 282.016C252.96 282.226 253.015 282.454 253.175 282.609L254.455 283.851C254.525 283.919 254.559 284.018 254.542 284.115L254.239 285.868C254.201 286.087 254.29 286.303 254.47 286.434C254.651 286.564 254.885 286.581 255.082 286.478L256.664 285.65C256.751 285.604 256.855 285.604 256.942 285.65L258.524 286.478C258.609 286.522 258.702 286.544 258.794 286.544C258.914 286.544 259.033 286.506 259.135 286.433C259.316 286.303 259.403 286.087 259.366 285.867L259.064 284.113C259.047 284.017 259.08 283.919 259.15 283.85L260.43 282.608C260.59 282.453 260.645 282.226 260.576 282.015C260.51 281.804 260.33 281.654 260.109 281.621L260.109 281.621Z" fill="#F99D1D"/>
<path d="M271.252 281.621L269.482 281.365C269.385 281.351 269.301 281.29 269.258 281.202L268.466 279.607C268.367 279.409 268.169 279.285 267.946 279.285C267.724 279.285 267.525 279.408 267.426 279.607L266.634 281.203C266.591 281.291 266.506 281.352 266.409 281.366L264.64 281.623C264.419 281.655 264.24 281.805 264.171 282.016C264.103 282.226 264.158 282.454 264.318 282.609L265.598 283.851C265.668 283.919 265.701 284.018 265.684 284.115L265.382 285.868C265.344 286.087 265.432 286.303 265.613 286.434C265.793 286.564 266.027 286.581 266.224 286.478L267.806 285.65C267.894 285.604 267.998 285.604 268.084 285.65L269.666 286.478C269.752 286.522 269.845 286.544 269.936 286.544C270.056 286.544 270.176 286.506 270.278 286.433C270.458 286.303 270.546 286.087 270.509 285.867L270.206 284.113C270.189 284.017 270.223 283.919 270.293 283.85L271.573 282.608C271.732 282.453 271.788 282.226 271.719 282.015C271.652 281.804 271.472 281.654 271.252 281.621L271.252 281.621Z" fill="#F99D1D"/>
<path d="M282.394 281.621L280.625 281.365C280.528 281.351 280.443 281.29 280.401 281.202L279.609 279.607C279.51 279.409 279.311 279.285 279.089 279.285C278.866 279.285 278.668 279.408 278.569 279.607L277.776 281.203C277.734 281.291 277.649 281.352 277.552 281.366L275.783 281.623C275.562 281.655 275.382 281.805 275.314 282.016C275.246 282.226 275.301 282.454 275.46 282.609L276.74 283.851C276.81 283.919 276.844 284.018 276.827 284.115L276.524 285.868C276.486 286.087 276.575 286.303 276.755 286.434C276.936 286.564 277.17 286.581 277.367 286.478L278.949 285.65C279.037 285.604 279.14 285.604 279.227 285.65L280.809 286.478C280.894 286.522 280.988 286.544 281.079 286.544C281.199 286.544 281.318 286.506 281.42 286.433C281.601 286.303 281.688 286.087 281.651 285.867L281.349 284.113C281.332 284.017 281.365 283.919 281.435 283.85L282.715 282.608C282.875 282.453 282.93 282.226 282.862 282.015C282.795 281.804 282.615 281.654 282.394 281.621L282.394 281.621Z" fill="#F99D1D"/>
<path d="M293.538 281.621L291.768 281.365C291.672 281.351 291.587 281.29 291.544 281.202L290.752 279.607C290.654 279.409 290.455 279.285 290.232 279.285C290.01 279.285 289.811 279.408 289.712 279.607L288.92 281.203C288.877 281.291 288.792 281.352 288.696 281.366L286.926 281.623C286.706 281.655 286.526 281.805 286.458 282.016C286.389 282.226 286.444 282.454 286.604 282.609L287.884 283.851C287.954 283.919 287.987 284.018 287.97 284.115L287.668 285.868C287.63 286.087 287.718 286.303 287.899 286.434C288.079 286.564 288.313 286.581 288.51 286.478L290.092 285.65C290.18 285.604 290.284 285.604 290.37 285.65L291.952 286.478C292.038 286.522 292.131 286.544 292.222 286.544C292.342 286.544 292.462 286.506 292.564 286.433C292.744 286.303 292.832 286.087 292.795 285.867L292.492 284.113C292.475 284.017 292.509 283.919 292.579 283.85L293.859 282.608C294.019 282.453 294.074 282.226 294.005 282.015C293.938 281.804 293.759 281.654 293.538 281.621L293.538 281.621Z" fill="#F99D1D"/>
<path d="M304.504 281.793L302.734 281.537C302.637 281.523 302.553 281.462 302.51 281.374L301.718 279.779C301.619 279.581 301.421 279.457 301.198 279.457C300.976 279.457 300.777 279.58 300.678 279.779L299.886 281.375C299.843 281.463 299.758 281.524 299.661 281.538L297.892 281.794C297.671 281.827 297.492 281.977 297.423 282.188C297.355 282.398 297.41 282.626 297.57 282.781L298.85 284.022C298.92 284.091 298.953 284.19 298.936 284.286L298.634 286.04C298.596 286.259 298.684 286.475 298.865 286.606C299.045 286.736 299.279 286.753 299.476 286.65L301.058 285.822C301.146 285.776 301.25 285.776 301.336 285.822L302.918 286.65C303.004 286.694 303.097 286.716 303.188 286.716C303.308 286.716 303.428 286.678 303.53 286.605C303.71 286.475 303.798 286.259 303.761 286.039L303.458 284.285C303.441 284.189 303.475 284.091 303.545 284.021L304.825 282.78C304.984 282.624 305.04 282.397 304.971 282.187C304.904 281.976 304.724 281.826 304.504 281.793L304.504 281.793Z" fill="#F99D1D"/>
<rect x="251" y="296" width="19" height="7" rx="2" fill="#C5CAFF"/>
<rect x="322" y="292" width="21" height="11" rx="2" fill="#C5CAFF"/>
<path d="M310.639 219.081C310.639 219.765 310.083 220.323 309.397 220.323H286.798V225.681H309.397C310.081 225.681 310.639 226.236 310.639 226.922V235.435C310.639 236.007 310.873 236.529 311.253 236.907C311.627 237.281 312.138 237.513 312.7 237.521H312.753C313.314 237.515 313.825 237.281 314.199 236.907C314.579 236.529 314.814 236.007 314.814 235.435V210.575C314.814 210 314.579 209.481 314.199 209.101C313.821 208.721 313.299 208.486 312.727 208.486C312.153 208.486 311.633 208.721 311.253 209.101C310.873 209.479 310.639 210 310.639 210.575V219.085L310.639 219.081ZM272.242 240.001C271.558 240.001 271 239.445 271 238.759C271 238.072 271.555 237.517 272.242 237.517H278.168C277.842 236.892 277.661 236.18 277.661 235.431V234.286C277.036 234.611 276.324 234.793 275.574 234.793C274.316 234.793 273.173 234.28 272.345 233.452C271.517 232.624 271.004 231.481 271.004 230.223V215.778C271.004 214.519 271.517 213.377 272.345 212.549C273.173 211.721 274.316 211.208 275.574 211.208C276.326 211.208 277.036 211.392 277.661 211.715V210.57C277.661 209.311 278.174 208.169 279.002 207.341C279.83 206.513 280.972 206 282.231 206C283.489 206 284.632 206.513 285.46 207.341C286.288 208.169 286.801 209.311 286.801 210.57V217.839H308.16V210.57C308.16 209.311 308.673 208.169 309.501 207.341C310.329 206.513 311.471 206 312.73 206C313.988 206 315.131 206.513 315.959 207.341C316.787 208.169 317.3 209.311 317.3 210.57V211.715C317.925 211.389 318.637 211.208 319.386 211.208C320.645 211.208 321.787 211.721 322.615 212.549C323.443 213.377 323.956 214.519 323.956 215.778V230.223C323.956 231.481 323.443 232.624 322.615 233.452C321.787 234.28 320.645 234.793 319.386 234.793C318.634 234.793 317.925 234.609 317.3 234.286V235.431C317.3 236.182 317.116 236.892 316.793 237.517H322.719C323.403 237.517 323.961 238.072 323.961 238.759C323.961 239.443 323.405 240.001 322.719 240.001H272.242ZM282.201 237.519H282.254C282.816 237.511 283.327 237.278 283.701 236.905C284.081 236.527 284.315 236.005 284.315 235.433V210.57C284.315 209.996 284.081 209.477 283.701 209.096C283.323 208.716 282.801 208.482 282.226 208.482C281.654 208.482 281.133 208.716 280.755 209.096C280.374 209.474 280.14 209.996 280.14 210.57V235.431C280.14 236.003 280.374 236.524 280.755 236.903C281.128 237.276 281.639 237.509 282.201 237.517L282.201 237.519ZM286.292 237.519H308.664C308.339 236.894 308.158 236.182 308.158 235.433V228.164H286.799V235.433C286.799 236.185 286.615 236.894 286.292 237.519ZM277.046 214.306C276.666 213.928 276.144 213.691 275.572 213.691C275 213.691 274.478 213.926 274.1 214.306C273.72 214.686 273.485 215.208 273.485 215.78V230.225C273.485 230.797 273.72 231.319 274.1 231.699C274.478 232.077 275 232.313 275.572 232.313C276.146 232.313 276.666 232.079 277.046 231.699C277.424 231.319 277.658 230.797 277.658 230.225V215.78C277.658 215.208 277.424 214.686 277.046 214.306ZM317.297 215.78V230.225C317.297 230.797 317.532 231.319 317.91 231.699C318.29 232.077 318.811 232.313 319.384 232.313C319.956 232.313 320.478 232.079 320.856 231.699C321.236 231.319 321.47 230.797 321.47 230.225V215.78C321.47 215.208 321.236 214.686 320.856 214.306C320.478 213.928 319.956 213.691 319.384 213.691C318.809 213.691 318.29 213.926 317.91 214.306C317.532 214.686 317.297 215.208 317.297 215.78Z" fill="#C5CAFF"/>
<rect x="367" y="189" width="108" height="125" rx="8" fill="white"/>
<path d="M433.693 206.2C433.693 205.039 432.661 204.1 431.385 204.1H429.213L428.183 205.978C427.401 207.401 425.801 208.3 424.054 208.3H417.947C416.2 208.3 414.6 207.401 413.818 205.978L412.788 204.1H410.616C409.34 204.1 408.308 205.039 408.308 206.2V239.8C408.308 240.96 409.34 241.9 410.616 241.9H431.385C432.661 241.9 433.693 240.96 433.693 239.8V206.2ZM425.039 236.125C425.677 236.125 426.193 236.594 426.193 237.175C426.193 237.755 425.677 238.225 425.039 238.225H411.193C410.555 238.225 410.039 237.755 410.039 237.175C410.039 236.594 410.555 236.125 411.193 236.125H425.039ZM430.808 236.125C431.446 236.125 431.962 236.594 431.962 237.175C431.962 237.755 431.446 238.225 430.808 238.225H428.5C427.863 238.225 427.347 237.755 427.347 237.175C427.347 236.594 427.863 236.125 428.5 236.125H430.808ZM430.808 232.975C431.446 232.975 431.962 233.444 431.962 234.025C431.962 234.605 431.446 235.075 430.808 235.075H411.193C410.555 235.075 410.039 234.605 410.039 234.025C410.039 233.444 410.555 232.975 411.193 232.975H430.808ZM430.808 229.825C431.446 229.825 431.962 230.294 431.962 230.875C431.962 231.455 431.446 231.925 430.808 231.925H411.193C410.555 231.925 410.039 231.455 410.039 230.875C410.039 230.294 410.555 229.825 411.193 229.825H430.808ZM422.438 212.748C424.685 211.355 427.612 211.901 429.192 213.915C430.794 215.959 430.522 218.884 428.518 220.606L421.791 226.388C421.347 226.771 420.653 226.771 420.209 226.388L413.482 220.606C411.479 218.884 411.206 215.959 412.809 213.915C414.388 211.901 417.316 211.355 419.563 212.748L421 213.638L422.438 212.748ZM427.313 215.135C426.427 214.005 424.895 213.765 423.736 214.483L421.649 215.777C421.257 216.021 420.743 216.021 420.351 215.777L418.264 214.483C417.106 213.765 415.574 214.005 414.688 215.135C413.735 216.347 413.924 218.096 415.067 219.079L421 224.179L426.934 219.079C428.077 218.096 428.266 216.347 427.313 215.135ZM415.884 205.039C416.274 205.751 417.072 206.2 417.946 206.2H424.054C424.928 206.2 425.726 205.751 426.116 205.039L426.634 204.1H415.366L415.884 205.039ZM436 239.8C436 242.119 433.933 244 431.385 244H410.615C408.067 244 406 242.119 406 239.8V206.2C406 203.881 408.067 202 410.615 202H431.385C433.933 202 436 203.881 436 206.2V239.8Z" fill="#C5CAFF"/>
<rect x="375" y="258" width="86" height="7" rx="3.5" fill="#C5CAFF"/>
<rect x="375" y="269" width="38" height="5" rx="2.5" fill="#C5CAFF"/>
<path d="M384.109 281.621L382.34 281.365C382.243 281.351 382.158 281.29 382.115 281.202L381.324 279.607C381.225 279.409 381.026 279.285 380.804 279.285C380.581 279.285 380.383 279.408 380.284 279.607L379.491 281.203C379.448 281.291 379.364 281.352 379.267 281.366L377.498 281.623C377.277 281.655 377.097 281.805 377.029 282.016C376.96 282.226 377.015 282.454 377.175 282.609L378.455 283.851C378.525 283.919 378.559 284.018 378.542 284.115L378.239 285.868C378.201 286.087 378.29 286.303 378.47 286.434C378.651 286.564 378.885 286.581 379.082 286.478L380.664 285.65C380.751 285.604 380.855 285.604 380.942 285.65L382.524 286.478C382.609 286.522 382.702 286.544 382.794 286.544C382.914 286.544 383.033 286.506 383.135 286.433C383.316 286.303 383.403 286.087 383.366 285.867L383.064 284.113C383.047 284.017 383.08 283.919 383.15 283.85L384.43 282.608C384.59 282.453 384.645 282.226 384.576 282.015C384.51 281.804 384.33 281.654 384.109 281.621L384.109 281.621Z" fill="#F99D1D"/>
<path d="M395.252 281.621L393.482 281.365C393.385 281.351 393.301 281.29 393.258 281.202L392.466 279.607C392.367 279.409 392.169 279.285 391.946 279.285C391.724 279.285 391.525 279.408 391.426 279.607L390.634 281.203C390.591 281.291 390.506 281.352 390.409 281.366L388.64 281.623C388.419 281.655 388.24 281.805 388.171 282.016C388.103 282.226 388.158 282.454 388.318 282.609L389.598 283.851C389.668 283.919 389.701 284.018 389.684 284.115L389.382 285.868C389.344 286.087 389.432 286.303 389.613 286.434C389.793 286.564 390.027 286.581 390.224 286.478L391.806 285.65C391.894 285.604 391.998 285.604 392.084 285.65L393.666 286.478C393.752 286.522 393.845 286.544 393.936 286.544C394.056 286.544 394.176 286.506 394.278 286.433C394.458 286.303 394.546 286.087 394.509 285.867L394.206 284.113C394.189 284.017 394.223 283.919 394.293 283.85L395.573 282.608C395.732 282.453 395.788 282.226 395.719 282.015C395.652 281.804 395.472 281.654 395.252 281.621L395.252 281.621Z" fill="#F99D1D"/>
<path d="M406.394 281.621L404.625 281.365C404.528 281.351 404.443 281.29 404.401 281.202L403.609 279.607C403.51 279.409 403.311 279.285 403.089 279.285C402.866 279.285 402.668 279.408 402.569 279.607L401.776 281.203C401.734 281.291 401.649 281.352 401.552 281.366L399.783 281.623C399.562 281.655 399.382 281.805 399.314 282.016C399.246 282.226 399.301 282.454 399.46 282.609L400.74 283.851C400.81 283.919 400.844 284.018 400.827 284.115L400.524 285.868C400.486 286.087 400.575 286.303 400.755 286.434C400.936 286.564 401.17 286.581 401.367 286.478L402.949 285.65C403.037 285.604 403.14 285.604 403.227 285.65L404.809 286.478C404.894 286.522 404.988 286.544 405.079 286.544C405.199 286.544 405.318 286.506 405.42 286.433C405.601 286.303 405.688 286.087 405.651 285.867L405.349 284.113C405.332 284.017 405.365 283.919 405.435 283.85L406.715 282.608C406.875 282.453 406.93 282.226 406.862 282.015C406.795 281.804 406.615 281.654 406.394 281.621L406.394 281.621Z" fill="#F99D1D"/>
<path d="M417.538 281.621L415.768 281.365C415.672 281.351 415.587 281.29 415.544 281.202L414.752 279.607C414.654 279.409 414.455 279.285 414.232 279.285C414.01 279.285 413.811 279.408 413.712 279.607L412.92 281.203C412.877 281.291 412.792 281.352 412.696 281.366L410.926 281.623C410.706 281.655 410.526 281.805 410.458 282.016C410.389 282.226 410.444 282.454 410.604 282.609L411.884 283.851C411.954 283.919 411.987 284.018 411.97 284.115L411.668 285.868C411.63 286.087 411.718 286.303 411.899 286.434C412.079 286.564 412.313 286.581 412.51 286.478L414.092 285.65C414.18 285.604 414.284 285.604 414.37 285.65L415.952 286.478C416.038 286.522 416.131 286.544 416.222 286.544C416.342 286.544 416.462 286.506 416.564 286.433C416.744 286.303 416.832 286.087 416.795 285.867L416.492 284.113C416.475 284.017 416.509 283.919 416.579 283.85L417.859 282.608C418.019 282.453 418.074 282.226 418.005 282.015C417.938 281.804 417.759 281.654 417.538 281.621L417.538 281.621Z" fill="#F99D1D"/>
<path d="M428.504 281.793L426.734 281.537C426.637 281.523 426.553 281.462 426.51 281.374L425.718 279.779C425.619 279.581 425.421 279.457 425.198 279.457C424.976 279.457 424.777 279.58 424.678 279.779L423.886 281.375C423.843 281.463 423.758 281.524 423.661 281.538L421.892 281.794C421.671 281.827 421.492 281.977 421.423 282.188C421.355 282.398 421.41 282.626 421.57 282.781L422.85 284.022C422.92 284.091 422.953 284.19 422.936 284.286L422.634 286.04C422.596 286.259 422.684 286.475 422.865 286.606C423.045 286.736 423.279 286.753 423.476 286.65L425.058 285.822C425.146 285.776 425.25 285.776 425.336 285.822L426.918 286.65C427.004 286.694 427.097 286.716 427.188 286.716C427.308 286.716 427.428 286.678 427.53 286.605C427.71 286.475 427.798 286.259 427.761 286.039L427.458 284.285C427.441 284.189 427.475 284.091 427.545 284.021L428.825 282.78C428.984 282.624 429.04 282.397 428.971 282.187C428.904 281.976 428.724 281.826 428.504 281.793L428.504 281.793Z" fill="#F99D1D"/>
<rect x="375" y="296" width="19" height="7" rx="2" fill="#C5CAFF"/>
<rect x="446" y="292" width="21" height="11" rx="2" fill="#C5CAFF"/>
</g>
<defs>
<clipPath id="clip0_3146_566">
<rect width="498" height="341" rx="12" fill="white"/>
</clipPath>
</defs>
</svg>
