<svg width="85" height="45" viewBox="0 0 85 45" fill="none" xmlns="http://www.w3.org/2000/svg">
<g clip-path="url(#clip0_3146_542)">
<mask id="mask0_3146_542" style="mask-type:luminance" maskUnits="userSpaceOnUse" x="0" y="0" width="85" height="32">
<path d="M85 0H0V31.1188H85V0Z" fill="white"/>
</mask>
<g mask="url(#mask0_3146_542)">
<path d="M85 0H0V31.1188H85V0Z" fill="#7351FD"/>
<path d="M7.94531 13.6041H10.1483V21.717C10.0763 21.7458 9.93952 21.7889 9.73794 21.8465C9.55076 21.8896 9.35638 21.9112 9.1548 21.9112C8.78043 21.9112 8.48526 21.8033 8.26928 21.5876C8.0533 21.3574 7.94531 21.0625 7.94531 20.7029V13.6041ZM10.1483 16.9701H7.94531V9.97914C7.94531 9.61952 8.0533 9.33183 8.26928 9.11606C8.48526 8.88591 8.78043 8.77083 9.1548 8.77083C9.35638 8.77083 9.55076 8.7924 9.73794 8.83556C9.93952 8.87871 10.0763 8.92187 10.1483 8.96502V16.9701ZM9.1548 16.0854V14.273H15.6558C15.7134 14.3593 15.7638 14.4815 15.807 14.6398C15.8646 14.7836 15.8934 14.949 15.8934 15.136C15.8934 15.4381 15.8214 15.6755 15.6774 15.8481C15.5334 16.0063 15.3318 16.0854 15.0726 16.0854H9.1548ZM9.1548 21.9112V20.0772H16.4117C16.4693 20.1635 16.5197 20.2857 16.5629 20.444C16.6205 20.5878 16.6493 20.7604 16.6493 20.9618C16.6493 21.2639 16.5773 21.5012 16.4333 21.6739C16.3037 21.8321 16.1021 21.9112 15.8286 21.9112H9.1548ZM9.1548 10.6049V8.77083H16.3037C16.3613 8.85714 16.4189 8.97941 16.4765 9.13764C16.5341 9.29587 16.5629 9.46129 16.5629 9.63391C16.5629 9.93598 16.4909 10.1733 16.3469 10.3459C16.2029 10.5186 16.0014 10.6049 15.7422 10.6049H9.1548ZM32.8565 10.5617H32.7701C32.5685 11.1227 32.3381 11.7772 32.079 12.5252C31.8198 13.2732 31.5462 14.05 31.2582 14.8555C30.9847 15.6467 30.7255 16.4019 30.4807 17.1211L30.2863 17.941C30.1999 18.2144 30.0991 18.5308 29.984 18.8904C29.8688 19.2501 29.7464 19.6241 29.6168 20.0124C29.5016 20.3864 29.3864 20.7461 29.2712 21.0913C29.156 21.4221 29.0624 21.6954 28.9904 21.9112C28.8753 21.9688 28.7457 22.0119 28.6017 22.0407C28.4721 22.0694 28.3065 22.0838 28.1049 22.0838C27.7594 22.0838 27.4714 22.0047 27.241 21.8465C27.025 21.6882 26.917 21.4581 26.917 21.156C26.917 20.9978 26.9386 20.8467 26.9818 20.7029C27.0394 20.5447 27.097 20.3721 27.1546 20.1851C27.313 19.7104 27.5146 19.1206 27.7594 18.4157C28.0041 17.6965 28.2777 16.9197 28.5801 16.0854C28.8825 15.2511 29.192 14.4024 29.5088 13.5393C29.8256 12.6763 30.1279 11.8563 30.4159 11.0796C30.7183 10.2884 30.9919 9.59075 31.2366 8.9866C31.3806 8.91467 31.5966 8.84275 31.8846 8.77083C32.1869 8.68452 32.4893 8.64137 32.7917 8.64137C33.1805 8.64137 33.5404 8.6989 33.8716 8.81398C34.2028 8.92906 34.4187 9.12325 34.5195 9.39656C34.8363 10.2021 35.1819 11.1299 35.5562 12.18C35.9306 13.2157 36.305 14.2945 36.6793 15.4165C37.0681 16.5385 37.4353 17.6318 37.7808 18.6962C38.1264 19.7607 38.436 20.7245 38.7095 21.5876C38.5943 21.7314 38.4288 21.8465 38.2128 21.9328C38.0112 22.0191 37.7808 22.0623 37.5216 22.0623C37.1329 22.0623 36.8521 21.9903 36.6793 21.8465C36.5065 21.7026 36.3698 21.4581 36.269 21.1129L35.2323 17.941L34.9947 16.9701C34.7355 16.1645 34.4691 15.359 34.1956 14.5535C33.9364 13.7479 33.6844 12.9999 33.4396 12.3095C33.2092 11.619 33.0149 11.0364 32.8565 10.5617ZM29.2496 18.5668L30.0487 16.7759H35.7722L36.1394 18.5668H29.2496ZM53.0136 20.3577C53.9063 20.3577 54.5759 20.1635 55.0222 19.7751C55.483 19.3867 55.7134 18.8904 55.7134 18.2863C55.7134 17.7684 55.5334 17.3441 55.1734 17.0132C54.8279 16.668 54.2951 16.3947 53.5752 16.1933L51.9337 15.697C51.2714 15.4813 50.6954 15.2223 50.2059 14.9203C49.7163 14.6182 49.3348 14.237 49.0612 13.7767C48.802 13.3164 48.6724 12.7626 48.6724 12.1153C48.6724 10.9933 49.09 10.1086 49.9251 9.46129C50.7602 8.7996 51.8905 8.46875 53.316 8.46875C54.1079 8.46875 54.8135 8.55506 55.4326 8.72767C56.0517 8.8859 56.5413 9.10167 56.9013 9.37498C57.2612 9.64829 57.4412 9.95037 57.4412 10.2812C57.4412 10.5114 57.3764 10.7199 57.2468 10.9069C57.1316 11.0796 56.9877 11.2234 56.8149 11.3385C56.4693 11.0652 55.9941 10.8278 55.3894 10.6264C54.7991 10.4251 54.1583 10.3244 53.4672 10.3244C52.6753 10.3244 52.0561 10.4898 51.6098 10.8206C51.1634 11.1371 50.9402 11.5686 50.9402 12.1153C50.9402 12.5612 51.0986 12.9208 51.4154 13.1941C51.7321 13.4674 52.2361 13.7048 52.9272 13.9061L54.2015 14.2945C55.3822 14.6398 56.3109 15.1217 56.9877 15.7402C57.6644 16.3587 58.0028 17.2146 58.0028 18.3079C58.0028 19.4586 57.5708 20.3936 56.7069 21.1129C55.843 21.8321 54.6191 22.1917 53.0352 22.1917C52.1569 22.1917 51.3794 22.091 50.7026 21.8896C50.0403 21.7026 49.522 21.4581 49.1476 21.156C48.7732 20.8396 48.586 20.5087 48.586 20.1635C48.586 19.8758 48.6724 19.6384 48.8452 19.4514C49.018 19.25 49.2124 19.099 49.4284 18.9983C49.7739 19.3148 50.2491 19.6241 50.8538 19.9261C51.4586 20.2138 52.1785 20.3577 53.0136 20.3577ZM73.9485 17.3369H71.9831C71.58 16.7471 71.1552 16.1142 70.7088 15.4381C70.2769 14.762 69.8449 14.0716 69.413 13.3667C68.9954 12.6619 68.5922 11.9714 68.2035 11.2953C67.8291 10.6193 67.4979 10.0007 67.21 9.43971C67.2964 9.25271 67.4403 9.0801 67.6419 8.92187C67.8435 8.74925 68.0955 8.66294 68.3979 8.66294C68.7434 8.66294 69.017 8.74925 69.2186 8.92187C69.4202 9.0801 69.6145 9.34621 69.8017 9.72021C69.9457 9.96475 70.1257 10.274 70.3417 10.648C70.5577 11.022 70.7808 11.432 71.0112 11.8779C71.256 12.3095 71.5008 12.741 71.7455 13.1725C71.9903 13.6041 72.2135 13.9997 72.4151 14.3593C72.6167 14.7045 72.7822 14.9922 72.9118 15.2223H72.9982C73.459 14.4312 73.8693 13.6904 74.2293 12.9999C74.6037 12.3095 74.9636 11.6262 75.3092 10.9501C75.6548 10.274 76.0003 9.58356 76.3459 8.87871C76.4755 8.80679 76.6267 8.75644 76.7995 8.72767C76.9723 8.68452 77.1306 8.66294 77.2746 8.66294C77.6058 8.66294 77.865 8.74925 78.0522 8.92187C78.2393 9.0801 78.3329 9.31025 78.3329 9.61233C78.3329 9.75618 78.2321 10.0439 78.0305 10.4754C77.8434 10.8926 77.5626 11.432 77.1882 12.0937C76.8139 12.7554 76.3531 13.5321 75.806 14.424C75.2732 15.3015 74.6541 16.2724 73.9485 17.3369ZM71.8535 16.3875H74.0565V21.8465C73.9701 21.8752 73.8261 21.9112 73.6246 21.9544C73.4374 21.9975 73.243 22.0191 73.0414 22.0191C72.6239 22.0191 72.3215 21.94 72.1343 21.7817C71.9471 21.6091 71.8535 21.343 71.8535 20.9834V16.3875Z" fill="white"/>
</g>
<path d="M8.19573 44.1024C7.19239 44.69 6.13452 44.9892 5.02213 45C3.50621 45 2.27932 44.4997 1.34142 43.4987C0.447138 42.5307 0 41.3339 0 39.9088C0 38.7338 0.321721 37.695 0.965165 36.7921C1.89216 35.5193 3.22813 34.8828 4.97305 34.8828C5.20209 34.8828 5.4311 34.8936 5.66013 34.9154C6.68527 35.0243 7.50865 35.3179 8.13029 35.7967C8.13029 35.5356 8.14121 35.3398 8.163 35.2091C8.21755 35.0461 8.37022 34.9643 8.62104 34.9643L8.67012 38.0158H8.24481C7.72132 36.2534 6.66345 35.3616 5.0712 35.3398C4.50411 35.3398 3.99152 35.4812 3.53348 35.7639C2.39928 36.4603 1.83218 37.8472 1.83218 39.9251C1.83218 40.7084 1.91397 41.4101 2.07756 42.0301C2.51379 43.7054 3.48987 44.5431 5.00578 44.5431C6.65256 44.5323 7.74858 43.6184 8.29388 41.8016H8.71922V44.9185C8.58834 44.9185 8.49018 44.9075 8.42474 44.8859C8.27207 44.8205 8.19573 44.5594 8.19573 44.1024Z" fill="white"/>
<path d="M15.1801 34.8828C16.3143 34.8828 17.3176 35.2038 18.1901 35.8456C19.4443 36.7811 20.0714 38.1465 20.0714 39.9414C20.0714 41.4645 19.5588 42.71 18.5336 43.6783C17.5848 44.5594 16.4506 45 15.131 45C13.9641 45 12.928 44.6464 12.0228 43.9394C10.8123 42.9711 10.207 41.6168 10.207 39.8762C10.207 38.3749 10.7196 37.1455 11.7448 36.1882C12.7045 35.3179 13.8496 34.8828 15.1801 34.8828ZM15.1801 44.5431C15.4418 44.5431 15.6927 44.516 15.9326 44.4616C17.4703 44.0698 18.2392 42.5414 18.2392 39.8762C18.2283 36.8736 17.1922 35.3616 15.131 35.3398C14.9783 35.3398 14.8202 35.3506 14.6566 35.3724C12.9008 35.6008 12.0228 37.1239 12.0228 39.9414C12.0228 40.1373 12.0283 40.3332 12.0392 40.5288C12.1701 43.2051 13.217 44.5431 15.1801 44.5431Z" fill="white"/>
<path d="M33.7156 35.0469V35.471H32.4068V44.4134H33.2904C33.3449 44.4134 33.3993 44.4187 33.4538 44.4297C33.6283 44.4624 33.7156 44.5983 33.7156 44.8375H29.6096V44.4134H30.9182V36.5645L27.2048 44.9356H26.8614L23.2951 37.5599V44.4134H24.1785C24.2329 44.4134 24.2874 44.4187 24.3421 44.4297C24.5166 44.4624 24.6037 44.5983 24.6037 44.8375H21.332V44.4134H22.6407V35.471H21.332V35.0469H23.7858L27.5156 42.8304L30.9182 35.0469H33.7156Z" fill="white"/>
<path d="M46.95 35.0469V35.471H45.6411V44.4134H46.5245C46.5792 44.4134 46.6337 44.4187 46.6881 44.4297C46.8626 44.4624 46.95 44.5983 46.95 44.8375H42.8439V44.4134H44.1525V36.5645L40.4391 44.9356H40.0955L36.5294 37.5599V44.4134H37.4128C37.4673 44.4134 37.5217 44.4187 37.5762 44.4297C37.7509 44.4624 37.838 44.5983 37.838 44.8375H34.5664V44.4134H35.875V35.471H34.5664V35.0469H37.0202L40.7499 42.8304L44.1525 35.0469H46.95Z" fill="white"/>
<path d="M55.719 38.0166H55.359L55.0972 37.1844C55.0972 37.1626 55.0919 37.141 55.0809 37.1192C54.7428 36.0205 54.1539 35.471 53.3142 35.471H50.8441V39.5505H54.1812V40.0237H50.8441V44.4134H53.3142C53.4778 44.4134 53.636 44.3916 53.7886 44.348C54.3775 44.185 54.8138 43.6355 55.0972 42.7L55.359 41.8678H55.719L55.6372 44.8375H47.9648V44.4134H49.2734V35.471H47.9648V35.0469H55.6372L55.719 38.0166Z" fill="white"/>
<path d="M61.2972 44.8375H57.1094V44.4134H58.418V35.471H57.1094V35.0469H62.0824C62.9331 35.0469 63.6528 35.2425 64.2417 35.6342C64.9506 36.1238 65.3051 36.7764 65.3051 37.5925C65.3051 37.9188 65.2396 38.2398 65.1088 38.5553C64.738 39.3819 64.0291 39.9314 62.9821 40.2033L65.5995 44.4134H66.1395C66.2048 44.4134 66.2648 44.4187 66.3192 44.4297C66.4611 44.4513 66.5321 44.5875 66.5321 44.8375H63.9799L61.3954 40.3503H59.9884V44.4134H61.2972V44.8375ZM61.4935 35.471H59.9884V39.877H61.559C62.028 39.877 62.4314 39.7411 62.7695 39.469C63.3147 39.0446 63.5873 38.4301 63.5873 37.6251C63.5873 37.277 63.5221 36.9452 63.391 36.6297C63.0421 35.8572 62.4095 35.471 61.4935 35.471Z" fill="white"/>
<path d="M75.4809 44.1024C74.4775 44.69 73.4197 44.9892 72.3074 45C70.7915 45 69.5645 44.4997 68.6266 43.4987C67.7325 42.5307 67.2852 41.3339 67.2852 39.9088C67.2852 38.7338 67.607 37.695 68.2503 36.7921C69.1774 35.5193 70.5133 34.8828 72.2582 34.8828C72.4874 34.8828 72.7163 34.8936 72.9453 34.9154C73.9704 35.0243 74.7938 35.3179 75.4156 35.7967C75.4156 35.5356 75.4264 35.3398 75.4482 35.2091C75.5027 35.0461 75.6553 34.9643 75.9063 34.9643L75.9553 38.0158H75.5301C75.0064 36.2534 73.9486 35.3616 72.3564 35.3398C71.7893 35.3398 71.2767 35.4812 70.8186 35.7639C69.6845 36.4603 69.1174 37.8472 69.1174 39.9251C69.1174 40.7084 69.1992 41.4101 69.3629 42.0301C69.7989 43.7054 70.7752 44.5431 72.2911 44.5431C73.9378 44.5323 75.0338 43.6184 75.579 41.8016H76.0045V44.9185C75.8735 44.9185 75.7753 44.9075 75.71 44.8859C75.5572 44.8205 75.4809 44.5594 75.4809 44.1024Z" fill="white"/>
<path d="M85.0002 38.0166H84.6403L84.3787 37.1844C84.3787 37.1626 84.3732 37.141 84.3621 37.1192C84.0243 36.0205 83.4354 35.471 82.5954 35.471H80.1253V39.5505H83.4625V40.0237H80.1253V44.4134H82.5954C82.7591 44.4134 82.9172 44.3916 83.0699 44.348C83.6588 44.185 84.0951 43.6355 84.3787 42.7L84.6403 41.8678H85.0002L84.9184 44.8375H77.2461V44.4134H78.5549V35.471H77.2461V35.0469H84.9184L85.0002 38.0166Z" fill="white"/>
</g>
<defs>
<clipPath id="clip0_3146_542">
<rect width="85" height="45" fill="white"/>
</clipPath>
</defs>
</svg>
