<svg width="444" height="466" viewBox="0 0 444 466" fill="none" xmlns="http://www.w3.org/2000/svg">
<g clip-path="url(#clip0_3213_3578)">
<rect width="444" height="466" rx="16" fill="#000D2B"/>
<mask id="mask0_3213_3578" style="mask-type:luminance" maskUnits="userSpaceOnUse" x="-11" y="0" width="466" height="466">
<path d="M454.44 0H-11V465.44H454.44V0Z" fill="white"/>
</mask>
<g mask="url(#mask0_3213_3578)">
<mask id="mask1_3213_3578" style="mask-type:luminance" maskUnits="userSpaceOnUse" x="-11" y="0" width="838" height="466">
<path d="M826.079 0.5V465.31H-10.5V0.5H826.079Z" fill="white" stroke="white"/>
</mask>
<g mask="url(#mask1_3213_3578)">
<g opacity="0.22">
<path d="M5.12843 -85.3047L-635.06 554.883" stroke="#2D374C" stroke-miterlimit="10"/>
<path d="M11.23 -85.3047L-628.958 554.883" stroke="#2D374C" stroke-miterlimit="10"/>
<path d="M17.3286 -85.3047L-622.859 554.883" stroke="#2D374C" stroke-miterlimit="10"/>
<path d="M23.4282 -85.3047L-616.76 554.883" stroke="#2D374C" stroke-miterlimit="10"/>
<path d="M29.5057 -85.3047L-610.659 554.883" stroke="#2D374C" stroke-miterlimit="10"/>
<path d="M35.6053 -85.3047L-604.56 554.883" stroke="#2D374C" stroke-miterlimit="10"/>
<path d="M41.7039 -85.3047L-598.461 554.883" stroke="#2D374C" stroke-miterlimit="10"/>
<path d="M47.8062 -85.3047L-592.382 554.883" stroke="#2D374C" stroke-miterlimit="10"/>
<path d="M53.9048 -85.3047L-586.283 554.883" stroke="#2D374C" stroke-miterlimit="10"/>
<path d="M60.0034 -85.3047L-580.185 554.883" stroke="#2D374C" stroke-miterlimit="10"/>
<path d="M66.105 -85.3047L-574.083 554.883" stroke="#2D374C" stroke-miterlimit="10"/>
<path d="M72.2036 -85.3047L-567.984 554.883" stroke="#2D374C" stroke-miterlimit="10"/>
<path d="M78.3032 -85.3047L-561.885 554.883" stroke="#2D374C" stroke-miterlimit="10"/>
<path d="M84.4058 -85.3047L-555.782 554.883" stroke="#2D374C" stroke-miterlimit="10"/>
<path d="M90.5044 -85.3047L-549.684 554.883" stroke="#2D374C" stroke-miterlimit="10"/>
<path d="M96.603 -85.3047L-543.585 554.883" stroke="#2D374C" stroke-miterlimit="10"/>
<path d="M102.705 -85.3047L-537.483 554.883" stroke="#2D374C" stroke-miterlimit="10"/>
<path d="M108.78 -85.3047L-531.385 554.883" stroke="#2D374C" stroke-miterlimit="10"/>
<path d="M114.882 -85.3047L-525.283 554.883" stroke="#2D374C" stroke-miterlimit="10"/>
<path d="M120.981 -85.3047L-519.207 554.883" stroke="#2D374C" stroke-miterlimit="10"/>
<path d="M127.081 -85.3047L-513.107 554.883" stroke="#2D374C" stroke-miterlimit="10"/>
<path d="M133.18 -85.3047L-507.008 554.883" stroke="#2D374C" stroke-miterlimit="10"/>
<path d="M139.282 -85.3047L-500.906 554.883" stroke="#2D374C" stroke-miterlimit="10"/>
<path d="M145.379 -85.3047L-494.809 554.883" stroke="#2D374C" stroke-miterlimit="10"/>
<path d="M151.479 -85.3047L-488.709 554.883" stroke="#2D374C" stroke-miterlimit="10"/>
<path d="M157.579 -85.3047L-482.609 554.883" stroke="#2D374C" stroke-miterlimit="10"/>
<path d="M163.68 -85.3047L-476.508 554.883" stroke="#2D374C" stroke-miterlimit="10"/>
<path d="M169.782 -85.3047L-470.406 554.883" stroke="#2D374C" stroke-miterlimit="10"/>
<path d="M175.879 -85.3047L-464.309 554.883" stroke="#2D374C" stroke-miterlimit="10"/>
<path d="M181.956 -85.3047L-458.209 554.883" stroke="#2D374C" stroke-miterlimit="10"/>
<path d="M188.057 -85.3047L-452.107 554.883" stroke="#2D374C" stroke-miterlimit="10"/>
<path d="M194.157 -85.3047L-446.031 554.883" stroke="#2D374C" stroke-miterlimit="10"/>
<path d="M200.256 -85.3047L-439.932 554.883" stroke="#2D374C" stroke-miterlimit="10"/>
<path d="M206.356 -85.3047L-433.832 554.883" stroke="#2D374C" stroke-miterlimit="10"/>
<path d="M212.458 -85.3047L-427.73 554.883" stroke="#2D374C" stroke-miterlimit="10"/>
<path d="M218.555 -85.3047L-421.633 554.883" stroke="#2D374C" stroke-miterlimit="10"/>
<path d="M224.657 -85.3047L-415.531 554.883" stroke="#2D374C" stroke-miterlimit="10"/>
<path d="M230.754 -85.3047L-409.434 554.883" stroke="#2D374C" stroke-miterlimit="10"/>
<path d="M236.856 -85.3047L-403.332 554.883" stroke="#2D374C" stroke-miterlimit="10"/>
<path d="M242.956 -85.3047L-397.232 554.883" stroke="#2D374C" stroke-miterlimit="10"/>
<path d="M249.055 -85.3047L-391.133 554.883" stroke="#2D374C" stroke-miterlimit="10"/>
<path d="M255.13 -85.3047L-385.035 554.883" stroke="#2D374C" stroke-miterlimit="10"/>
<path d="M261.233 -85.3047L-378.932 554.883" stroke="#2D374C" stroke-miterlimit="10"/>
<path d="M267.333 -85.3047L-372.855 554.883" stroke="#2D374C" stroke-miterlimit="10"/>
<path d="M273.43 -85.3047L-366.758 554.883" stroke="#2D374C" stroke-miterlimit="10"/>
<path d="M279.532 -85.3047L-360.656 554.883" stroke="#2D374C" stroke-miterlimit="10"/>
<path d="M285.631 -85.3047L-354.557 554.883" stroke="#2D374C" stroke-miterlimit="10"/>
<path d="M291.731 -85.3047L-348.457 554.883" stroke="#2D374C" stroke-miterlimit="10"/>
<path d="M297.833 -85.3047L-342.355 554.883" stroke="#2D374C" stroke-miterlimit="10"/>
<path d="M303.93 -85.3047L-336.258 554.883" stroke="#2D374C" stroke-miterlimit="10"/>
<path d="M310.03 -85.3047L-330.158 554.883" stroke="#2D374C" stroke-miterlimit="10"/>
<path d="M316.131 -85.3047L-324.057 554.883" stroke="#2D374C" stroke-miterlimit="10"/>
<path d="M322.231 -85.3047L-317.957 554.883" stroke="#2D374C" stroke-miterlimit="10"/>
<path d="M328.329 -85.3047L-311.859 554.883" stroke="#2D374C" stroke-miterlimit="10"/>
<path d="M334.407 -85.3047L-305.758 554.883" stroke="#2D374C" stroke-miterlimit="10"/>
<path d="M340.507 -85.3047L-299.658 554.883" stroke="#2D374C" stroke-miterlimit="10"/>
<path d="M346.606 -85.3047L-293.582 554.883" stroke="#2D374C" stroke-miterlimit="10"/>
<path d="M352.708 -85.3047L-287.48 554.883" stroke="#2D374C" stroke-miterlimit="10"/>
<path d="M358.805 -85.3047L-281.383 554.883" stroke="#2D374C" stroke-miterlimit="10"/>
<path d="M364.907 -85.3047L-275.281 554.883" stroke="#2D374C" stroke-miterlimit="10"/>
<path d="M371.008 -85.3047L-269.18 554.883" stroke="#2D374C" stroke-miterlimit="10"/>
<path d="M377.106 -85.3047L-263.082 554.883" stroke="#2D374C" stroke-miterlimit="10"/>
<path d="M383.206 -85.3047L-256.982 554.883" stroke="#2D374C" stroke-miterlimit="10"/>
<path d="M389.307 -85.3047L-250.881 554.883" stroke="#2D374C" stroke-miterlimit="10"/>
<path d="M395.407 -85.3047L-244.781 554.883" stroke="#2D374C" stroke-miterlimit="10"/>
<path d="M401.504 -85.3047L-238.684 554.883" stroke="#2D374C" stroke-miterlimit="10"/>
<path d="M407.583 -85.3047L-232.582 554.883" stroke="#2D374C" stroke-miterlimit="10"/>
<path d="M413.682 -85.3047L-226.482 554.883" stroke="#2D374C" stroke-miterlimit="10"/>
<path d="M419.782 -85.3047L-220.406 554.883" stroke="#2D374C" stroke-miterlimit="10"/>
<path d="M425.883 -85.3047L-214.305 554.883" stroke="#2D374C" stroke-miterlimit="10"/>
<path d="M431.981 -85.3047L-208.207 554.883" stroke="#2D374C" stroke-miterlimit="10"/>
<path d="M438.083 -85.3047L-202.105 554.883" stroke="#2D374C" stroke-miterlimit="10"/>
<path d="M444.182 -85.3047L-196.006 554.883" stroke="#2D374C" stroke-miterlimit="10"/>
<path d="M450.282 -85.3047L-189.906 554.883" stroke="#2D374C" stroke-miterlimit="10"/>
<path d="M456.381 -85.3047L-183.807 554.883" stroke="#2D374C" stroke-miterlimit="10"/>
<path d="M462.483 -85.3047L-177.705 554.883" stroke="#2D374C" stroke-miterlimit="10"/>
<path d="M468.583 -85.3047L-171.605 554.883" stroke="#2D374C" stroke-miterlimit="10"/>
<path d="M474.684 -85.3047L-165.504 554.883" stroke="#2D374C" stroke-miterlimit="10"/>
<path d="M480.759 -85.3047L-159.406 554.883" stroke="#2D374C" stroke-miterlimit="10"/>
<path d="M486.856 -85.3047L-153.309 554.883" stroke="#2D374C" stroke-miterlimit="10"/>
<path d="M492.958 -85.3047L-147.23 554.883" stroke="#2D374C" stroke-miterlimit="10"/>
<path d="M499.059 -85.3047L-141.129 554.883" stroke="#2D374C" stroke-miterlimit="10"/>
<path d="M505.157 -85.3047L-135.031 554.883" stroke="#2D374C" stroke-miterlimit="10"/>
<path d="M511.256 -85.3047L-128.932 554.883" stroke="#2D374C" stroke-miterlimit="10"/>
<path d="M517.358 -85.3047L-122.83 554.883" stroke="#2D374C" stroke-miterlimit="10"/>
<path d="M523.458 -85.3047L-116.73 554.883" stroke="#2D374C" stroke-miterlimit="10"/>
<path d="M529.559 -85.3047L-110.629 554.883" stroke="#2D374C" stroke-miterlimit="10"/>
<path d="M535.657 -85.3047L-104.531 554.883" stroke="#2D374C" stroke-miterlimit="10"/>
<path d="M541.756 -85.3047L-98.4316 554.883" stroke="#2D374C" stroke-miterlimit="10"/>
<path d="M547.858 -85.3047L-92.3301 554.883" stroke="#2D374C" stroke-miterlimit="10"/>
<path d="M553.934 -85.3047L-86.2305 554.883" stroke="#2D374C" stroke-miterlimit="10"/>
<path d="M560.032 -85.3047L-80.1328 554.883" stroke="#2D374C" stroke-miterlimit="10"/>
<path d="M566.134 -85.3047L-74.0312 554.883" stroke="#2D374C" stroke-miterlimit="10"/>
<path d="M572.235 -85.3047L-67.9531 554.883" stroke="#2D374C" stroke-miterlimit="10"/>
<path d="M578.333 -85.3047L-61.8555 554.883" stroke="#2D374C" stroke-miterlimit="10"/>
<path d="M584.434 -85.3047L-55.7539 554.883" stroke="#2D374C" stroke-miterlimit="10"/>
<path d="M590.534 -85.3047L-49.6543 554.883" stroke="#2D374C" stroke-miterlimit="10"/>
<path d="M596.633 -85.3047L-43.5547 554.883" stroke="#2D374C" stroke-miterlimit="10"/>
<path d="M602.735 -85.3047L-37.4531 554.883" stroke="#2D374C" stroke-miterlimit="10"/>
<path d="M608.832 -85.3047L-31.3555 554.883" stroke="#2D374C" stroke-miterlimit="10"/>
<path d="M614.932 -85.3047L-25.2559 554.883" stroke="#2D374C" stroke-miterlimit="10"/>
<path d="M621.032 -85.3047L-19.1562 554.883" stroke="#2D374C" stroke-miterlimit="10"/>
<path d="M627.133 -85.3047L-13.0547 554.883" stroke="#2D374C" stroke-miterlimit="10"/>
<path d="M633.208 -85.3047L-6.95703 554.883" stroke="#2D374C" stroke-miterlimit="10"/>
<path d="M639.309 -85.3047L-0.855469 554.883" stroke="#2D374C" stroke-miterlimit="10"/>
<path d="M645.409 -85.3047L5.2207 554.883" stroke="#2D374C" stroke-miterlimit="10"/>
<path d="M651.508 -85.3047L11.3203 554.883" stroke="#2D374C" stroke-miterlimit="10"/>
<path d="M657.61 -85.3047L17.4219 554.883" stroke="#2D374C" stroke-miterlimit="10"/>
<path d="M663.709 -85.3047L23.5215 554.883" stroke="#2D374C" stroke-miterlimit="10"/>
<path d="M669.809 -85.3047L29.6211 554.883" stroke="#2D374C" stroke-miterlimit="10"/>
<path d="M675.911 -85.3047L35.7227 554.883" stroke="#2D374C" stroke-miterlimit="10"/>
<path d="M682.008 -85.3047L41.8203 554.883" stroke="#2D374C" stroke-miterlimit="10"/>
<path d="M688.106 -85.3047L47.918 554.883" stroke="#2D374C" stroke-miterlimit="10"/>
<path d="M694.208 -85.3047L54.0195 554.883" stroke="#2D374C" stroke-miterlimit="10"/>
<path d="M700.307 -85.3047L60.1191 554.883" stroke="#2D374C" stroke-miterlimit="10"/>
<path d="M706.386 -85.3047L66.2207 554.883" stroke="#2D374C" stroke-miterlimit="10"/>
<path d="M712.485 -85.3047L72.3203 554.883" stroke="#2D374C" stroke-miterlimit="10"/>
<path d="M718.585 -85.3047L78.4199 554.883" stroke="#2D374C" stroke-miterlimit="10"/>
<path d="M724.684 -85.3047L84.4961 554.883" stroke="#2D374C" stroke-miterlimit="10"/>
<path d="M730.786 -85.3047L90.5977 554.883" stroke="#2D374C" stroke-miterlimit="10"/>
<path d="M736.883 -85.3047L96.6953 554.883" stroke="#2D374C" stroke-miterlimit="10"/>
<path d="M742.985 -85.3047L102.797 554.883" stroke="#2D374C" stroke-miterlimit="10"/>
<path d="M749.084 -85.3047L108.896 554.883" stroke="#2D374C" stroke-miterlimit="10"/>
<path d="M755.184 -85.3047L114.996 554.883" stroke="#2D374C" stroke-miterlimit="10"/>
<path d="M761.286 -85.3047L121.098 554.883" stroke="#2D374C" stroke-miterlimit="10"/>
<path d="M767.383 -85.3047L127.195 554.883" stroke="#2D374C" stroke-miterlimit="10"/>
<path d="M773.483 -85.3047L133.295 554.883" stroke="#2D374C" stroke-miterlimit="10"/>
<path d="M779.561 -85.3047L139.396 554.883" stroke="#2D374C" stroke-miterlimit="10"/>
<path d="M785.661 -85.3047L145.496 554.883" stroke="#2D374C" stroke-miterlimit="10"/>
<path d="M791.759 -85.3047L151.594 554.883" stroke="#2D374C" stroke-miterlimit="10"/>
<path d="M797.86 -85.3047L157.672 554.883" stroke="#2D374C" stroke-miterlimit="10"/>
<path d="M803.961 -85.3047L163.773 554.883" stroke="#2D374C" stroke-miterlimit="10"/>
<path d="M810.059 -85.3047L169.871 554.883" stroke="#2D374C" stroke-miterlimit="10"/>
<path d="M816.161 -85.3047L175.973 554.883" stroke="#2D374C" stroke-miterlimit="10"/>
<path d="M822.26 -85.3047L182.072 554.883" stroke="#2D374C" stroke-miterlimit="10"/>
<path d="M828.36 -85.3047L188.172 554.883" stroke="#2D374C" stroke-miterlimit="10"/>
<path d="M834.461 -85.3047L194.273 554.883" stroke="#2D374C" stroke-miterlimit="10"/>
<path d="M840.559 -85.3047L200.371 554.883" stroke="#2D374C" stroke-miterlimit="10"/>
<path d="M846.659 -85.3047L206.471 554.883" stroke="#2D374C" stroke-miterlimit="10"/>
<path d="M852.76 -85.3047L212.572 554.883" stroke="#2D374C" stroke-miterlimit="10"/>
<path d="M858.837 -85.3047L218.672 554.883" stroke="#2D374C" stroke-miterlimit="10"/>
<path d="M864.934 -85.3047L224.77 554.883" stroke="#2D374C" stroke-miterlimit="10"/>
<path d="M871.036 -85.3047L230.848 554.883" stroke="#2D374C" stroke-miterlimit="10"/>
<path d="M877.137 -85.3047L236.949 554.883" stroke="#2D374C" stroke-miterlimit="10"/>
<path d="M883.235 -85.3047L243.047 554.883" stroke="#2D374C" stroke-miterlimit="10"/>
<path d="M889.336 -85.3047L249.148 554.883" stroke="#2D374C" stroke-miterlimit="10"/>
<path d="M895.434 -85.3047L255.246 554.883" stroke="#2D374C" stroke-miterlimit="10"/>
<path d="M901.534 -85.3047L261.346 554.883" stroke="#2D374C" stroke-miterlimit="10"/>
<path d="M907.635 -85.3047L267.447 554.883" stroke="#2D374C" stroke-miterlimit="10"/>
<path d="M913.735 -85.3047L273.547 554.883" stroke="#2D374C" stroke-miterlimit="10"/>
<path d="M919.834 -85.3047L279.646 554.883" stroke="#2D374C" stroke-miterlimit="10"/>
<path d="M925.934 -85.3047L285.746 554.883" stroke="#2D374C" stroke-miterlimit="10"/>
<path d="M932.013 -85.3047L291.848 554.883" stroke="#2D374C" stroke-miterlimit="10"/>
<path d="M938.112 -85.3047L297.947 554.883" stroke="#2D374C" stroke-miterlimit="10"/>
<path d="M944.211 -85.3047L304.023 554.883" stroke="#2D374C" stroke-miterlimit="10"/>
<path d="M950.311 -85.3047L310.123 554.883" stroke="#2D374C" stroke-miterlimit="10"/>
<path d="M956.411 -85.3047L316.223 554.883" stroke="#2D374C" stroke-miterlimit="10"/>
<path d="M962.512 -85.3047L322.324 554.883" stroke="#2D374C" stroke-miterlimit="10"/>
<path d="M968.61 -85.3047L328.422 554.883" stroke="#2D374C" stroke-miterlimit="10"/>
<path d="M974.709 -85.3047L334.521 554.883" stroke="#2D374C" stroke-miterlimit="10"/>
<path d="M980.811 -85.3047L340.623 554.883" stroke="#2D374C" stroke-miterlimit="10"/>
<path d="M986.911 -85.3047L346.723 554.883" stroke="#2D374C" stroke-miterlimit="10"/>
<path d="M993.012 -85.3047L352.824 554.883" stroke="#2D374C" stroke-miterlimit="10"/>
<path d="M999.11 -85.3047L358.922 554.883" stroke="#2D374C" stroke-miterlimit="10"/>
<path d="M1005.19 -85.3047L365.023 554.883" stroke="#2D374C" stroke-miterlimit="10"/>
<path d="M1011.29 -85.3047L371.123 554.883" stroke="#2D374C" stroke-miterlimit="10"/>
<path d="M1017.39 -85.3047L377.223 554.883" stroke="#2D374C" stroke-miterlimit="10"/>
<path d="M1023.49 -85.3047L383.299 554.883" stroke="#2D374C" stroke-miterlimit="10"/>
<path d="M1029.59 -85.3047L389.398 554.883" stroke="#2D374C" stroke-miterlimit="10"/>
<path d="M1035.69 -85.3047L395.5 554.883" stroke="#2D374C" stroke-miterlimit="10"/>
<path d="M1041.79 -85.3047L401.598 554.883" stroke="#2D374C" stroke-miterlimit="10"/>
<path d="M1047.89 -85.3047L407.699 554.883" stroke="#2D374C" stroke-miterlimit="10"/>
<path d="M1053.99 -85.3047L413.799 554.883" stroke="#2D374C" stroke-miterlimit="10"/>
<path d="M1060.09 -85.3047L419.898 554.883" stroke="#2D374C" stroke-miterlimit="10"/>
<path d="M1066.19 -85.3047L426 554.883" stroke="#2D374C" stroke-miterlimit="10"/>
<path d="M1072.29 -85.3047L432.098 554.883" stroke="#2D374C" stroke-miterlimit="10"/>
<path d="M1078.39 -85.3047L438.197 554.883" stroke="#2D374C" stroke-miterlimit="10"/>
<path d="M1084.46 -85.3047L444.299 554.883" stroke="#2D374C" stroke-miterlimit="10"/>
</g>
</g>
</g>
<mask id="mask2_3213_3578" style="mask-type:luminance" maskUnits="userSpaceOnUse" x="-59" y="226" width="558" height="270">
<path d="M498.515 226H-59V495.63H498.515V226Z" fill="white"/>
</mask>
<g mask="url(#mask2_3213_3578)">
<path d="M363.769 684.894L363.907 564.067H359.268L359.351 481.74H345.072L345.238 335.422H346.26L346.094 480.718H360.372L360.29 563.046H364.929L364.791 684.894H363.769Z" fill="#6A758D"/>
<path d="M373.242 684.892L373.353 587.54H387.465L387.658 394.77L359.461 394.742L359.544 299.766H360.566L360.483 393.72L388.68 393.748L388.487 588.562H374.374L374.264 684.892H373.242Z" fill="#6A758D"/>
<path d="M400.746 684.92L400.885 563.099H410.247L410.357 456.053L388.098 456.026V455.004L411.379 455.032L411.269 564.121H401.906L401.768 684.92H400.746Z" fill="#6A758D"/>
<path d="M39.6207 684.559L39.7864 505.929H27.4414L27.5795 359.059L55.6113 359.086V360.108L28.6014 360.08L28.4633 504.907H40.8083L40.6426 684.559H39.6207Z" fill="#6A758D"/>
<path d="M343.801 335.422C343.801 334.345 344.685 333.461 345.762 333.461C346.839 333.461 347.722 334.345 347.722 335.422C347.722 336.499 346.839 337.383 345.762 337.383C344.657 337.383 343.801 336.499 343.801 335.422Z" fill="#6A758D"/>
<path d="M358.107 299.766C358.107 298.689 358.991 297.805 360.068 297.805C361.145 297.805 362.029 298.689 362.029 299.766C362.029 300.843 361.145 301.726 360.068 301.726C358.964 301.699 358.107 300.843 358.107 299.766Z" fill="#6A758D"/>
<path d="M428.781 684.947L428.919 563.126H434.139L434.277 410.567L406.549 410.54L406.742 231.992H407.764L407.571 409.518L435.299 409.545L435.133 564.148H429.913L429.803 684.947H428.781Z" fill="#6A758D"/>
<path d="M405.305 231.992C405.305 230.915 406.188 230.031 407.266 230.031C408.343 230.031 409.226 230.915 409.226 231.992C409.226 233.069 408.343 233.953 407.266 233.953C406.161 233.925 405.305 233.069 405.305 231.992Z" fill="#6A758D"/>
<path d="M205.491 744.242L205.601 643.631H196.211L196.322 524.517L176.852 524.489L176.879 494.165H186.628L186.766 356.547H187.788L187.65 495.187H177.901L177.873 523.467L197.344 523.495L197.233 642.609H206.596L206.513 744.242H205.491Z" fill="#6A758D"/>
<path d="M218.526 744.242L218.83 460.776L187.152 460.748L187.18 459.727L219.851 459.754L219.548 744.242H218.526Z" fill="#6A758D"/>
<path d="M176.631 744.214L176.742 639.433H166.33L166.579 401.922L187.237 401.95V402.971L167.6 402.944L167.352 638.411L177.764 638.438L177.653 744.214H176.631Z" fill="#6A758D"/>
<path d="M185.33 356.547C185.33 355.47 186.214 354.586 187.291 354.586C188.368 354.586 189.252 355.47 189.252 356.547C189.252 357.624 188.368 358.508 187.291 358.508C186.186 358.48 185.33 357.624 185.33 356.547Z" fill="#6A758D"/>
<path d="M104.605 684.643L104.743 546.749H113.526L113.609 485.079L54.9766 484.996L55.1975 271.07H56.2194L55.9984 484.002L114.63 484.057L114.548 547.77H105.765L105.627 684.643H104.605Z" fill="#6A758D"/>
<path d="M53.707 270.492C53.707 269.415 54.5908 268.531 55.6679 268.531C56.745 268.531 57.6287 269.415 57.6287 270.492C57.6287 271.569 56.745 272.453 55.6679 272.453C54.5632 272.453 53.707 271.569 53.707 270.492Z" fill="#6A758D"/>
<path d="M141.891 364.641C141.891 363.563 142.774 362.68 143.851 362.68C144.929 362.68 145.812 363.563 145.812 364.641C145.812 365.718 144.929 366.601 143.851 366.601C142.774 366.601 141.891 365.718 141.891 364.641Z" fill="#6A758D"/>
<path d="M143.351 365.709L143.217 495.512L144.239 495.513L144.373 365.71L143.351 365.709Z" fill="#6A758D"/>
<path d="M263.49 340.004C263.49 338.927 264.374 338.043 265.451 338.043C266.528 338.043 267.412 338.927 267.412 340.004C267.412 341.081 266.528 341.965 265.451 341.965C264.374 341.937 263.49 341.081 263.49 340.004Z" fill="#6A758D"/>
<path d="M312.623 390.32C312.623 389.243 313.507 388.359 314.584 388.359C315.661 388.359 316.545 389.243 316.545 390.32C316.545 391.397 315.661 392.281 314.584 392.281C313.507 392.281 312.623 391.397 312.623 390.32Z" fill="#6A758D"/>
<path d="M330.875 399.519C330.875 398.442 331.759 397.559 332.836 397.559C333.913 397.559 334.797 398.442 334.797 399.519C334.797 400.596 333.913 401.48 332.836 401.48C331.731 401.48 330.875 400.596 330.875 399.519Z" fill="#6A758D"/>
<path d="M285.889 366.516C285.889 365.438 286.772 364.555 287.85 364.555C288.927 364.555 289.81 365.438 289.81 366.516C289.81 367.593 288.927 368.476 287.85 368.476C286.772 368.449 285.889 367.593 285.889 366.516Z" fill="#6A758D"/>
<path d="M285.004 724.44L285.142 602.619H295.581L295.692 500.931L332.202 500.959L332.313 399.52H333.335L333.224 501.981L296.714 501.953L296.603 603.641H286.164L286.026 724.44H285.004Z" fill="#6A758D"/>
<path d="M240.955 724.382L241.121 582.345H251.947L252.03 490.683L313.976 490.738L314.059 390.32H315.081L314.998 491.76L253.052 491.704L252.969 583.367H242.143L241.977 724.382H240.955Z" fill="#6A758D"/>
<path d="M234.16 724.383L234.353 549.702H237.695L237.806 453.703L314.527 453.786L314.5 454.808L238.828 454.725L238.717 550.724H235.375L235.182 724.383H234.16Z" fill="#6A758D"/>
<path d="M264.95 340L264.83 454.254L265.852 454.255L265.972 340.001L264.95 340Z" fill="#6A758D"/>
<path d="M287.339 366.485L287.248 454.254L288.27 454.255L288.361 366.486L287.339 366.485Z" fill="#6A758D"/>
<g opacity="0.26">
<path d="M-11.2227 527.307L-10.9741 285.102H-9.95225L-10.2008 526.285L30.176 526.341V527.363L-11.2227 527.307Z" fill="#6A758D"/>
</g>
<path d="M60.8867 637.831L60.9972 516.01H71.4642L71.5471 414.322L108.085 414.349L108.168 312.91H109.19L109.079 415.371L72.5689 415.344L72.4585 517.031H62.019L61.9086 637.831H60.8867Z" fill="#6A758D"/>
<path d="M106.814 312.219C106.814 311.142 107.698 310.258 108.775 310.258C109.852 310.258 110.736 311.142 110.736 312.219C110.736 313.296 109.852 314.18 108.775 314.18C107.698 314.18 106.814 313.296 106.814 312.219Z" fill="#6A758D"/>
</g>
<circle cx="187.5" cy="327.5" r="26.5" fill="#152342"/>
<path d="M202.273 324.78C202.533 324.428 202.469 323.946 202.117 323.686L200.006 322.097C199.654 321.836 199.159 321.901 198.899 322.253L198.092 323.322L201.466 325.862L202.273 324.781L202.273 324.78Z" fill="white"/>
<path d="M197.158 324.578L189.659 334.589C189.612 334.711 189.569 334.826 189.523 334.948L189.27 337.829C189.233 338.246 189.649 338.557 190.04 338.404L192.736 337.343C192.853 337.298 192.959 337.218 193.037 337.112L193.662 336.278L199.838 328.035L200.923 328.849L199.036 331.367C198.844 331.624 198.896 331.988 199.153 332.18C199.409 332.372 199.774 332.32 199.965 332.063L202.199 329.08C202.391 328.824 202.339 328.459 202.083 328.268L197.158 324.579L197.158 324.578Z" fill="white"/>
<path d="M195.408 318.476C195.408 317.109 194.3 316.001 192.933 316.001L175.475 316C174.107 316 173 317.107 173 318.475V337.665C173 338.356 173.834 338.707 174.316 338.212L179.826 332.702H189.127L195.407 324.313L195.408 318.476ZM188.569 329.341H177.013C176.584 329.341 176.231 328.989 176.231 328.56C176.231 328.13 176.584 327.778 177.013 327.778H188.569C188.998 327.778 189.35 328.13 189.35 328.56C189.35 328.989 188.998 329.341 188.569 329.341ZM191.396 325.132H177.013C176.584 325.132 176.231 324.781 176.231 324.35C176.231 323.921 176.584 323.569 177.013 323.569H191.397C191.827 323.569 192.179 323.921 192.179 324.35C192.179 324.78 191.827 325.132 191.397 325.132H191.396ZM191.396 320.924H177.013C176.584 320.924 176.231 320.572 176.231 320.143C176.231 319.713 176.584 319.361 177.013 319.361H191.397C191.827 319.361 192.179 319.713 192.179 320.143C192.179 320.572 191.827 320.924 191.397 320.924H191.396Z" fill="white"/>
<circle cx="358.5" cy="273.5" r="24.5" fill="#152342"/>
<path d="M358.571 268.688C358.571 268.865 358.467 269.024 358.307 269.092C358.147 269.159 357.963 269.122 357.84 268.997C357.717 268.871 357.681 268.683 357.746 268.52C357.813 268.356 357.969 268.25 358.143 268.25C358.256 268.25 358.366 268.296 358.446 268.378C358.526 268.46 358.571 268.572 358.571 268.688ZM354.646 273.867L348.714 279.319L347 280.894V281.375C347.004 282.823 348.153 283.996 349.572 284H363.329L361.829 282.25L354.646 273.867ZM364.143 271.234L359.086 276.396L364.1 282.25L365.6 284H368.428C369.847 283.996 370.995 282.823 371 281.375V278.234L364.143 271.234ZM371 265.625V275.766L365.351 270C365.031 269.672 364.596 269.488 364.143 269.488C363.69 269.488 363.255 269.672 362.934 270L357.954 275.075L355.932 272.713C355.63 272.364 355.204 272.151 354.749 272.126C354.289 272.089 353.835 272.251 353.497 272.573L348.714 276.956L347 278.531V265.625C347.004 264.177 348.153 263.004 349.571 263H368.428C369.847 263.004 370.996 264.177 371 265.625ZM360.286 268.688C360.286 267.803 359.764 267.006 358.963 266.666C358.162 266.329 357.241 266.516 356.628 267.141C356.015 267.767 355.832 268.707 356.163 269.524C356.495 270.343 357.276 270.875 358.143 270.875C358.711 270.875 359.256 270.644 359.658 270.234C360.06 269.824 360.286 269.267 360.286 268.688Z" fill="#E2EBFF"/>
<circle cx="264.5" cy="321.5" r="16.5" fill="#152342"/>
<path d="M270.577 320.48C270.577 320.217 270.37 320.012 270.108 320.012C269.846 320.012 269.64 320.218 269.64 320.48C269.64 323.432 267.241 325.832 264.288 325.832C261.336 325.832 258.937 323.432 258.937 320.48C258.937 320.217 258.73 320.012 258.468 320.012C258.206 320.012 258 320.218 258 320.48C258 323.788 260.577 326.507 263.82 326.75V328.896H261.842C261.58 328.896 261.374 329.103 261.374 329.365C261.374 329.628 261.58 329.833 261.842 329.833H266.744C267.007 329.833 267.212 329.627 267.212 329.365C267.212 329.102 267.006 328.896 266.744 328.896H264.757V326.75C268.009 326.507 270.577 323.789 270.577 320.48Z" fill="white"/>
<path d="M264.29 323.853C266.24 323.853 267.814 322.278 267.814 320.329V316.524C267.814 314.584 266.24 313 264.29 313C262.34 313 260.766 314.584 260.766 316.524V320.33C260.766 322.278 262.34 323.853 264.29 323.853Z" fill="white"/>
<circle cx="107.5" cy="289.5" r="20.5" fill="#152342"/>
<path d="M117.011 278.938H99.151C97.9348 278.938 96.9422 279.93 96.9422 281.138L96.9395 296.976C96.9395 298.202 97.9412 299.185 99.1574 299.185H117.011C118.228 299.185 119.229 298.201 119.229 296.976V281.138C119.229 279.93 118.227 278.938 117.011 278.938ZM112.423 281.101H116.6C116.94 281.101 117.216 281.37 117.216 281.718C117.216 282.067 116.939 282.344 116.6 282.344H112.423C112.083 282.344 111.797 282.067 111.797 281.718C111.797 281.369 112.083 281.101 112.423 281.101ZM104.526 281.03H104.696C105.089 281.03 105.403 281.334 105.403 281.718C105.403 282.103 105.089 282.407 104.696 282.407H104.526C104.16 282.407 103.838 282.102 103.838 281.718C103.838 281.333 104.16 281.03 104.526 281.03ZM102.156 281.03H102.335C102.701 281.03 103.015 281.334 103.015 281.718C103.015 282.103 102.701 282.407 102.335 282.407H102.156C101.763 282.407 101.45 282.102 101.45 281.718C101.45 281.333 101.762 281.03 102.156 281.03ZM99.7676 281.03H99.9464C100.331 281.03 100.635 281.334 100.635 281.718C100.635 282.103 100.33 282.407 99.9464 282.407H99.7676C99.3827 282.407 99.0793 282.102 99.0793 281.718C99.0793 281.333 99.3836 281.03 99.7676 281.03ZM118.075 296.976C118.075 297.567 117.601 298.041 117.011 298.041H99.1571C98.5668 298.041 98.093 297.567 98.093 296.976L98.0866 284.501H118.075L118.075 296.976Z" fill="white"/>
<path d="M99.8888 285.648H116.272C116.634 285.648 116.927 286.01 116.927 286.303V289.326C116.927 289.687 116.634 289.98 116.272 289.98H99.8888C99.5277 289.98 99.2344 289.619 99.2344 289.326V286.303C99.2344 285.942 99.5277 285.648 99.8888 285.648Z" fill="white"/>
<path d="M109.31 291.129H111.563C111.925 291.129 112.218 291.422 112.218 291.783V296.238C112.218 296.6 111.925 296.893 111.563 296.893H109.311C108.95 296.893 108.656 296.6 108.656 296.238V291.783C108.656 291.422 108.95 291.129 109.311 291.129H109.31Z" fill="white"/>
<path d="M114.017 291.129H116.27C116.632 291.129 116.925 291.422 116.925 291.783V296.238C116.925 296.6 116.632 296.893 116.27 296.893H114.018C113.657 296.893 113.363 296.6 113.363 296.238V291.783C113.363 291.422 113.657 291.129 114.018 291.129H114.017Z" fill="white"/>
<path d="M99.8879 291.129H102.142C102.503 291.129 102.796 291.422 102.796 291.783V296.238C102.796 296.6 102.503 296.893 102.142 296.893H99.8888C99.5277 296.893 99.2344 296.6 99.2344 296.238V291.783C99.2344 291.422 99.5277 291.129 99.8888 291.129H99.8879Z" fill="white"/>
<path d="M104.597 291.129H106.851C107.212 291.129 107.505 291.422 107.505 291.783V296.238C107.505 296.6 107.212 296.893 106.851 296.893H104.598C104.237 296.893 103.943 296.6 103.943 296.238V291.783C103.943 291.422 104.237 291.129 104.598 291.129H104.597Z" fill="white"/>
</g>
<defs>
<clipPath id="clip0_3213_3578">
<rect width="444" height="466" rx="16" fill="white"/>
</clipPath>
</defs>
</svg>
