<svg width="444" height="466" viewBox="0 0 444 466" fill="none" xmlns="http://www.w3.org/2000/svg">
<g clip-path="url(#clip0_3213_3578)">
<rect width="444" height="466" rx="16" fill="#000D2B"/>
<mask id="mask0_3213_3578" style="mask-type:luminance" maskUnits="userSpaceOnUse" x="-11" y="0" width="466" height="466">
<path d="M454.44 0H-11V465.44H454.44V0Z" fill="white"/>
</mask>
<g mask="url(#mask0_3213_3578)">
<mask id="mask1_3213_3578" style="mask-type:luminance" maskUnits="userSpaceOnUse" x="-11" y="0" width="838" height="466">
<path d="M826.079 0.5V465.31H-10.5V0.5H826.079Z" fill="white" stroke="white"/>
</mask>
<g mask="url(#mask1_3213_3578)">
<g opacity="0.22">
<path d="M5.12843 -85.3047L-635.06 554.883" stroke="#2D374C" stroke-miterlimit="10"/>
<path d="M11.23 -85.3047L-628.958 554.883" stroke="#2D374C" stroke-miterlimit="10"/>
<path d="M17.3286 -85.3047L-622.859 554.883" stroke="#2D374C" stroke-miterlimit="10"/>
<path d="M23.4282 -85.3047L-616.76 554.883" stroke="#2D374C" stroke-miterlimit="10"/>
<path d="M29.5057 -85.3047L-610.659 554.883" stroke="#2D374C" stroke-miterlimit="10"/>
<path d="M35.6053 -85.3047L-604.56 554.883" stroke="#2D374C" stroke-miterlimit="10"/>
<path d="M41.7039 -85.3047L-598.461 554.883" stroke="#2D374C" stroke-miterlimit="10"/>
<path d="M47.8062 -85.3047L-592.382 554.883" stroke="#2D374C" stroke-miterlimit="10"/>
<path d="M53.9048 -85.3047L-586.283 554.883" stroke="#2D374C" stroke-miterlimit="10"/>
<path d="M60.0034 -85.3047L-580.185 554.883" stroke="#2D374C" stroke-miterlimit="10"/>
<path d="M66.105 -85.3047L-574.083 554.883" stroke="#2D374C" stroke-miterlimit="10"/>
<path d="M72.2036 -85.3047L-567.984 554.883" stroke="#2D374C" stroke-miterlimit="10"/>
<path d="M78.3032 -85.3047L-561.885 554.883" stroke="#2D374C" stroke-miterlimit="10"/>
<path d="M84.4058 -85.3047L-555.782 554.883" stroke="#2D374C" stroke-miterlimit="10"/>
<path d="M90.5044 -85.3047L-549.684 554.883" stroke="#2D374C" stroke-miterlimit="10"/>
<path d="M96.603 -85.3047L-543.585 554.883" stroke="#2D374C" stroke-miterlimit="10"/>
<path d="M102.705 -85.3047L-537.483 554.883" stroke="#2D374C" stroke-miterlimit="10"/>
<path d="M108.78 -85.3047L-531.385 554.883" stroke="#2D374C" stroke-miterlimit="10"/>
<path d="M114.882 -85.3047L-525.283 554.883" stroke="#2D374C" stroke-miterlimit="10"/>
<path d="M120.981 -85.3047L-519.207 554.883" stroke="#2D374C" stroke-miterlimit="10"/>
<path d="M127.081 -85.3047L-513.107 554.883" stroke="#2D374C" stroke-miterlimit="10"/>
<path d="M133.18 -85.3047L-507.008 554.883" stroke="#2D374C" stroke-miterlimit="10"/>
<path d="M139.282 -85.3047L-500.906 554.883" stroke="#2D374C" stroke-miterlimit="10"/>
<path d="M145.379 -85.3047L-494.809 554.883" stroke="#2D374C" stroke-miterlimit="10"/>
<path d="M151.479 -85.3047L-488.709 554.883" stroke="#2D374C" stroke-miterlimit="10"/>
<path d="M157.579 -85.3047L-482.609 554.883" stroke="#2D374C" stroke-miterlimit="10"/>
<path d="M163.68 -85.3047L-476.508 554.883" stroke="#2D374C" stroke-miterlimit="10"/>
<path d="M169.782 -85.3047L-470.406 554.883" stroke="#2D374C" stroke-miterlimit="10"/>
<path d="M175.879 -85.3047L-464.309 554.883" stroke="#2D374C" stroke-miterlimit="10"/>
<path d="M181.956 -85.3047L-458.209 554.883" stroke="#2D374C" stroke-miterlimit="10"/>
<path d="M188.057 -85.3047L-452.107 554.883" stroke="#2D374C" stroke-miterlimit="10"/>
<path d="M194.157 -85.3047L-446.031 554.883" stroke="#2D374C" stroke-miterlimit="10"/>
<path d="M200.256 -85.3047L-439.932 554.883" stroke="#2D374C" stroke-miterlimit="10"/>
<path d="M206.356 -85.3047L-433.832 554.883" stroke="#2D374C" stroke-miterlimit="10"/>
<path d="M212.458 -85.3047L-427.73 554.883" stroke="#2D374C" stroke-miterlimit="10"/>
<path d="M218.555 -85.3047L-421.633 554.883" stroke="#2D374C" stroke-miterlimit="10"/>
<path d="M224.657 -85.3047L-415.531 554.883" stroke="#2D374C" stroke-miterlimit="10"/>
<path d="M230.754 -85.3047L-409.434 554.883" stroke="#2D374C" stroke-miterlimit="10"/>
<path d="M236.856 -85.3047L-403.332 554.883" stroke="#2D374C" stroke-miterlimit="10"/>
<path d="M242.956 -85.3047L-397.232 554.883" stroke="#2D374C" stroke-miterlimit="10"/>
<path d="M249.055 -85.3047L-391.133 554.883" stroke="#2D374C" stroke-miterlimit="10"/>
<path d="M255.13 -85.3047L-385.035 554.883" stroke="#2D374C" stroke-miterlimit="10"/>
<path d="M261.233 -85.3047L-378.932 554.883" stroke="#2D374C" stroke-miterlimit="10"/>
<path d="M267.333 -85.3047L-372.855 554.883" stroke="#2D374C" stroke-miterlimit="10"/>
<path d="M273.43 -85.3047L-366.758 554.883" stroke="#2D374C" stroke-miterlimit="10"/>
<path d="M279.532 -85.3047L-360.656 554.883" stroke="#2D374C" stroke-miterlimit="10"/>
<path d="M285.631 -85.3047L-354.557 554.883" stroke="#2D374C" stroke-miterlimit="10"/>
<path d="M291.731 -85.3047L-348.457 554.883" stroke="#2D374C" stroke-miterlimit="10"/>
<path d="M297.833 -85.3047L-342.355 554.883" stroke="#2D374C" stroke-miterlimit="10"/>
<path d="M303.93 -85.3047L-336.258 554.883" stroke="#2D374C" stroke-miterlimit="10"/>
<path d="M310.03 -85.3047L-330.158 554.883" stroke="#2D374C" stroke-miterlimit="10"/>
<path d="M316.131 -85.3047L-324.057 554.883" stroke="#2D374C" stroke-miterlimit="10"/>
<path d="M322.231 -85.3047L-317.957 554.883" stroke="#2D374C" stroke-miterlimit="10"/>
<path d="M328.329 -85.3047L-311.859 554.883" stroke="#2D374C" stroke-miterlimit="10"/>
<path d="M334.407 -85.3047L-305.758 554.883" stroke="#2D374C" stroke-miterlimit="10"/>
<path d="M340.507 -85.3047L-299.658 554.883" stroke="#2D374C" stroke-miterlimit="10"/>
<path d="M346.606 -85.3047L-293.582 554.883" stroke="#2D374C" stroke-miterlimit="10"/>
<path d="M352.708 -85.3047L-287.48 554.883" stroke="#2D374C" stroke-miterlimit="10"/>
<path d="M358.805 -85.3047L-281.383 554.883" stroke="#2D374C" stroke-miterlimit="10"/>
<path d="M364.907 -85.3047L-275.281 554.883" stroke="#2D374C" stroke-miterlimit="10"/>
<path d="M371.008 -85.3047L-269.18 554.883" stroke="#2D374C" stroke-miterlimit="10"/>
<path d="M377.106 -85.3047L-263.082 554.883" stroke="#2D374C" stroke-miterlimit="10"/>
<path d="M383.206 -85.3047L-256.982 554.883" stroke="#2D374C" stroke-miterlimit="10"/>
<path d="M389.307 -85.3047L-250.881 554.883" stroke="#2D374C" stroke-miterlimit="10"/>
<path d="M395.407 -85.3047L-244.781 554.883" stroke="#2D374C" stroke-miterlimit="10"/>
<path d="M401.504 -85.3047L-238.684 554.883" stroke="#2D374C" stroke-miterlimit="10"/>
<path d="M407.583 -85.3047L-232.582 554.883" stroke="#2D374C" stroke-miterlimit="10"/>
<path d="M413.682 -85.3047L-226.482 554.883" stroke="#2D374C" stroke-miterlimit="10"/>
<path d="M419.782 -85.3047L-220.406 554.883" stroke="#2D374C" stroke-miterlimit="10"/>
<path d="M425.883 -85.3047L-214.305 554.883" stroke="#2D374C" stroke-miterlimit="10"/>
<path d="M431.981 -85.3047L-208.207 554.883" stroke="#2D374C" stroke-miterlimit="10"/>
<path d="M438.083 -85.3047L-202.105 554.883" stroke="#2D374C" stroke-miterlimit="10"/>
<path d="M444.182 -85.3047L-196.006 554.883" stroke="#2D374C" stroke-miterlimit="10"/>
<path d="M450.282 -85.3047L-189.906 554.883" stroke="#2D374C" stroke-miterlimit="10"/>
<path d="M456.381 -85.3047L-183.807 554.883" stroke="#2D374C" stroke-miterlimit="10"/>
<path d="M462.483 -85.3047L-177.705 554.883" stroke="#2D374C" stroke-miterlimit="10"/>
<path d="M468.583 -85.3047L-171.605 554.883" stroke="#2D374C" stroke-miterlimit="10"/>
<path d="M474.684 -85.3047L-165.504 554.883" stroke="#2D374C" stroke-miterlimit="10"/>
<path d="M480.759 -85.3047L-159.406 554.883" stroke="#2D374C" stroke-miterlimit="10"/>
<path d="M486.856 -85.3047L-153.309 554.883" stroke="#2D374C" stroke-miterlimit="10"/>
<path d="M492.958 -85.3047L-147.23 554.883" stroke="#2D374C" stroke-miterlimit="10"/>
<path d="M499.059 -85.3047L-141.129 554.883" stroke="#2D374C" stroke-miterlimit="10"/>
<path d="M505.157 -85.3047L-135.031 554.883" stroke="#2D374C" stroke-miterlimit="10"/>
<path d="M511.256 -85.3047L-128.932 554.883" stroke="#2D374C" stroke-miterlimit="10"/>
<path d="M517.358 -85.3047L-122.83 554.883" stroke="#2D374C" stroke-miterlimit="10"/>
<path d="M523.458 -85.3047L-116.73 554.883" stroke="#2D374C" stroke-miterlimit="10"/>
<path d="M529.559 -85.3047L-110.629 554.883" stroke="#2D374C" stroke-miterlimit="10"/>
<path d="M535.657 -85.3047L-104.531 554.883" stroke="#2D374C" stroke-miterlimit="10"/>
<path d="M541.756 -85.3047L-98.4316 554.883" stroke="#2D374C" stroke-miterlimit="10"/>
<path d="M547.858 -85.3047L-92.3301 554.883" stroke="#2D374C" stroke-miterlimit="10"/>
<path d="M553.934 -85.3047L-86.2305 554.883" stroke="#2D374C" stroke-miterlimit="10"/>
<path d="M560.032 -85.3047L-80.1328 554.883" stroke="#2D374C" stroke-miterlimit="10"/>
<path d="M566.134 -85.3047L-74.0312 554.883" stroke="#2D374C" stroke-miterlimit="10"/>
<path d="M572.235 -85.3047L-67.9531 554.883" stroke="#2D374C" stroke-miterlimit="10"/>
<path d="M578.333 -85.3047L-61.8555 554.883" stroke="#2D374C" stroke-miterlimit="10"/>
<path d="M584.434 -85.3047L-55.7539 554.883" stroke="#2D374C" stroke-miterlimit="10"/>
<path d="M590.534 -85.3047L-49.6543 554.883" stroke="#2D374C" stroke-miterlimit="10"/>
<path d="M596.633 -85.3047L-43.5547 554.883" stroke="#2D374C" stroke-miterlimit="10"/>
<path d="M602.735 -85.3047L-37.4531 554.883" stroke="#2D374C" stroke-miterlimit="10"/>
<path d="M608.832 -85.3047L-31.3555 554.883" stroke="#2D374C" stroke-miterlimit="10"/>
<path d="M614.932 -85.3047L-25.2559 554.883" stroke="#2D374C" stroke-miterlimit="10"/>
<path d="M621.032 -85.3047L-19.1562 554.883" stroke="#2D374C" stroke-miterlimit="10"/>
<path d="M627.133 -85.3047L-13.0547 554.883" stroke="#2D374C" stroke-miterlimit="10"/>
<path d="M633.208 -85.3047L-6.95703 554.883" stroke="#2D374C" stroke-miterlimit="10"/>
<path d="M639.309 -85.3047L-0.855469 554.883" stroke="#2D374C" stroke-miterlimit="10"/>
<path d="M645.409 -85.3047L5.2207 554.883" stroke="#2D374C" stroke-miterlimit="10"/>
<path d="M651.508 -85.3047L11.3203 554.883" stroke="#2D374C" stroke-miterlimit="10"/>
<path d="M657.61 -85.3047L17.4219 554.883" stroke="#2D374C" stroke-miterlimit="10"/>
<path d="M663.709 -85.3047L23.5215 554.883" stroke="#2D374C" stroke-miterlimit="10"/>
<path d="M669.809 -85.3047L29.6211 554.883" stroke="#2D374C" stroke-miterlimit="10"/>
<path d="M675.911 -85.3047L35.7227 554.883" stroke="#2D374C" stroke-miterlimit="10"/>
<path d="M682.008 -85.3047L41.8203 554.883" stroke="#2D374C" stroke-miterlimit="10"/>
<path d="M688.106 -85.3047L47.918 554.883" stroke="#2D374C" stroke-miterlimit="10"/>
<path d="M694.208 -85.3047L54.0195 554.883" stroke="#2D374C" stroke-miterlimit="10"/>
<path d="M700.307 -85.3047L60.1191 554.883" stroke="#2D374C" stroke-miterlimit="10"/>
<path d="M706.386 -85.3047L66.2207 554.883" stroke="#2D374C" stroke-miterlimit="10"/>
<path d="M712.485 -85.3047L72.3203 554.883" stroke="#2D374C" stroke-miterlimit="10"/>
<path d="M718.585 -85.3047L78.4199 554.883" stroke="#2D374C" stroke-miterlimit="10"/>
<path d="M724.684 -85.3047L84.4961 554.883" stroke="#2D374C" stroke-miterlimit="10"/>
<path d="M730.786 -85.3047L90.5977 554.883" stroke="#2D374C" stroke-miterlimit="10"/>
<path d="M736.883 -85.3047L96.6953 554.883" stroke="#2D374C" stroke-miterlimit="10"/>
<path d="M742.985 -85.3047L102.797 554.883" stroke="#2D374C" stroke-miterlimit="10"/>
<path d="M749.084 -85.3047L108.896 554.883" stroke="#2D374C" stroke-miterlimit="10"/>
<path d="M755.184 -85.3047L114.996 554.883" stroke="#2D374C" stroke-miterlimit="10"/>
<path d="M761.286 -85.3047L121.098 554.883" stroke="#2D374C" stroke-miterlimit="10"/>
<path d="M767.383 -85.3047L127.195 554.883" stroke="#2D374C" stroke-miterlimit="10"/>
<path d="M773.483 -85.3047L133.295 554.883" stroke="#2D374C" stroke-miterlimit="10"/>
<path d="M779.561 -85.3047L139.396 554.883" stroke="#2D374C" stroke-miterlimit="10"/>
<path d="M785.661 -85.3047L145.496 554.883" stroke="#2D374C" stroke-miterlimit="10"/>
<path d="M791.759 -85.3047L151.594 554.883" stroke="#2D374C" stroke-miterlimit="10"/>
<path d="M797.86 -85.3047L157.672 554.883" stroke="#2D374C" stroke-miterlimit="10"/>
<path d="M803.961 -85.3047L163.773 554.883" stroke="#2D374C" stroke-miterlimit="10"/>
<path d="M810.059 -85.3047L169.871 554.883" stroke="#2D374C" stroke-miterlimit="10"/>
<path d="M816.161 -85.3047L175.973 554.883" stroke="#2D374C" stroke-miterlimit="10"/>
<path d="M822.26 -85.3047L182.072 554.883" stroke="#2D374C" stroke-miterlimit="10"/>
<path d="M828.36 -85.3047L188.172 554.883" stroke="#2D374C" stroke-miterlimit="10"/>
<path d="M834.461 -85.3047L194.273 554.883" stroke="#2D374C" stroke-miterlimit="10"/>
<path d="M840.559 -85.3047L200.371 554.883" stroke="#2D374C" stroke-miterlimit="10"/>
<path d="M846.659 -85.3047L206.471 554.883" stroke="#2D374C" stroke-miterlimit="10"/>
<path d="M852.76 -85.3047L212.572 554.883" stroke="#2D374C" stroke-miterlimit="10"/>
<path d="M858.837 -85.3047L218.672 554.883" stroke="#2D374C" stroke-miterlimit="10"/>
<path d="M864.934 -85.3047L224.77 554.883" stroke="#2D374C" stroke-miterlimit="10"/>
<path d="M871.036 -85.3047L230.848 554.883" stroke="#2D374C" stroke-miterlimit="10"/>
<path d="M877.137 -85.3047L236.949 554.883" stroke="#2D374C" stroke-miterlimit="10"/>
<path d="M883.235 -85.3047L243.047 554.883" stroke="#2D374C" stroke-miterlimit="10"/>
<path d="M889.336 -85.3047L249.148 554.883" stroke="#2D374C" stroke-miterlimit="10"/>
<path d="M895.434 -85.3047L255.246 554.883" stroke="#2D374C" stroke-miterlimit="10"/>
<path d="M901.534 -85.3047L261.346 554.883" stroke="#2D374C" stroke-miterlimit="10"/>
<path d="M907.635 -85.3047L267.447 554.883" stroke="#2D374C" stroke-miterlimit="10"/>
<path d="M913.735 -85.3047L273.547 554.883" stroke="#2D374C" stroke-miterlimit="10"/>
<path d="M919.834 -85.3047L279.646 554.883" stroke="#2D374C" stroke-miterlimit="10"/>
<path d="M925.934 -85.3047L285.746 554.883" stroke="#2D374C" stroke-miterlimit="10"/>
<path d="M932.013 -85.3047L291.848 554.883" stroke="#2D374C" stroke-miterlimit="10"/>
<path d="M938.112 -85.3047L297.947 554.883" stroke="#2D374C" stroke-miterlimit="10"/>
<path d="M944.211 -85.3047L304.023 554.883" stroke="#2D374C" stroke-miterlimit="10"/>
<path d="M950.311 -85.3047L310.123 554.883" stroke="#2D374C" stroke-miterlimit="10"/>
<path d="M956.411 -85.3047L316.223 554.883" stroke="#2D374C" stroke-miterlimit="10"/>
<path d="M962.512 -85.3047L322.324 554.883" stroke="#2D374C" stroke-miterlimit="10"/>
<path d="M968.61 -85.3047L328.422 554.883" stroke="#2D374C" stroke-miterlimit="10"/>
<path d="M974.709 -85.3047L334.521 554.883" stroke="#2D374C" stroke-miterlimit="10"/>
<path d="M980.811 -85.3047L340.623 554.883" stroke="#2D374C" stroke-miterlimit="10"/>
<path d="M986.911 -85.3047L346.723 554.883" stroke="#2D374C" stroke-miterlimit="10"/>
<path d="M993.012 -85.3047L352.824 554.883" stroke="#2D374C" stroke-miterlimit="10"/>
<path d="M999.11 -85.3047L358.922 554.883" stroke="#2D374C" stroke-miterlimit="10"/>
<path d="M1005.19 -85.3047L365.023 554.883" stroke="#2D374C" stroke-miterlimit="10"/>
<path d="M1011.29 -85.3047L371.123 554.883" stroke="#2D374C" stroke-miterlimit="10"/>
<path d="M1017.39 -85.3047L377.223 554.883" stroke="#2D374C" stroke-miterlimit="10"/>
<path d="M1023.49 -85.3047L383.299 554.883" stroke="#2D374C" stroke-miterlimit="10"/>
<path d="M1029.59 -85.3047L389.398 554.883" stroke="#2D374C" stroke-miterlimit="10"/>
<path d="M1035.69 -85.3047L395.5 554.883" stroke="#2D374C" stroke-miterlimit="10"/>
<path d="M1041.79 -85.3047L401.598 554.883" stroke="#2D374C" stroke-miterlimit="10"/>
<path d="M1047.89 -85.3047L407.699 554.883" stroke="#2D374C" stroke-miterlimit="10"/>
<path d="M1053.99 -85.3047L413.799 554.883" stroke="#2D374C" stroke-miterlimit="10"/>
<path d="M1060.09 -85.3047L419.898 554.883" stroke="#2D374C" stroke-miterlimit="10"/>
<path d="M1066.19 -85.3047L426 554.883" stroke="#2D374C" stroke-miterlimit="10"/>
<path d="M1072.29 -85.3047L432.098 554.883" stroke="#2D374C" stroke-miterlimit="10"/>
<path d="M1078.39 -85.3047L438.197 554.883" stroke="#2D374C" stroke-miterlimit="10"/>
<path d="M1084.46 -85.3047L444.299 554.883" stroke="#2D374C" stroke-miterlimit="10"/>
</g>
</g>
</g>
<mask id="mask2_3213_3578" style="mask-type:luminance" maskUnits="userSpaceOnUse" x="-59" y="226" width="558" height="270">
<path d="M498.515 226H-59V495.63H498.515V226Z" fill="white"/>
</mask>
<g mask="url(#mask2_3213_3578)">
<path d="M363.769 684.894L363.907 564.067H359.268L359.351 481.74H345.072L345.238 335.422H346.26L346.094 480.718H360.372L360.29 563.046H364.929L364.791 684.894H363.769Z" fill="#6A758D"/>
<path d="M373.242 684.892L373.353 587.54H387.465L387.658 394.77L359.461 394.742L359.544 299.766H360.566L360.483 393.72L388.68 393.748L388.487 588.562H374.374L374.264 684.892H373.242Z" fill="#6A758D"/>
<path d="M400.746 684.92L400.885 563.099H410.247L410.357 456.053L388.098 456.026V455.004L411.379 455.032L411.269 564.121H401.906L401.768 684.92H400.746Z" fill="#6A758D"/>
<path d="M39.6207 684.559L39.7864 505.929H27.4414L27.5795 359.059L55.6113 359.086V360.108L28.6014 360.08L28.4633 504.907H40.8083L40.6426 684.559H39.6207Z" fill="#6A758D"/>
<path d="M343.801 335.422C343.801 334.345 344.685 333.461 345.762 333.461C346.839 333.461 347.722 334.345 347.722 335.422C347.722 336.499 346.839 337.383 345.762 337.383C344.657 337.383 343.801 336.499 343.801 335.422Z" fill="#6A758D"/>
<path d="M358.107 299.766C358.107 298.689 358.991 297.805 360.068 297.805C361.145 297.805 362.029 298.689 362.029 299.766C362.029 300.843 361.145 301.726 360.068 301.726C358.964 301.699 358.107 300.843 358.107 299.766Z" fill="#6A758D"/>
<path d="M428.781 684.947L428.919 563.126H434.139L434.277 410.567L406.549 410.54L406.742 231.992H407.764L407.571 409.518L435.299 409.545L435.133 564.148H429.913L429.803 684.947H428.781Z" fill="#6A758D"/>
<path d="M405.305 231.992C405.305 230.915 406.188 230.031 407.266 230.031C408.343 230.031 409.226 230.915 409.226 231.992C409.226 233.069 408.343 233.953 407.266 233.953C406.161 233.925 405.305 233.069 405.305 231.992Z" fill="#6A758D"/>
<path d="M205.491 744.242L205.601 643.631H196.211L196.322 524.517L176.852 524.489L176.879 494.165H186.628L186.766 356.547H187.788L187.65 495.187H177.901L177.873 523.467L197.344 523.495L197.233 642.609H206.596L206.513 744.242H205.491Z" fill="#6A758D"/>
<path d="M218.526 744.242L218.83 460.776L187.152 460.748L187.18 459.727L219.851 459.754L219.548 744.242H218.526Z" fill="#6A758D"/>
<path d="M176.631 744.214L176.742 639.433H166.33L166.579 401.922L187.237 401.95V402.971L167.6 402.944L167.352 638.411L177.764 638.438L177.653 744.214H176.631Z" fill="#6A758D"/>
<path d="M185.33 356.547C185.33 355.47 186.214 354.586 187.291 354.586C188.368 354.586 189.252 355.47 189.252 356.547C189.252 357.624 188.368 358.508 187.291 358.508C186.186 358.48 185.33 357.624 185.33 356.547Z" fill="#6A758D"/>
<path d="M104.605 684.643L104.743 546.749H113.526L113.609 485.079L54.9766 484.996L55.1975 271.07H56.2194L55.9984 484.002L114.63 484.057L114.548 547.77H105.765L105.627 684.643H104.605Z" fill="#6A758D"/>
<path d="M53.707 270.492C53.707 269.415 54.5908 268.531 55.6679 268.531C56.745 268.531 57.6287 269.415 57.6287 270.492C57.6287 271.569 56.745 272.453 55.6679 272.453C54.5632 272.453 53.707 271.569 53.707 270.492Z" fill="#6A758D"/>
<path d="M141.891 364.641C141.891 363.563 142.774 362.68 143.851 362.68C144.929 362.68 145.812 363.563 145.812 364.641C145.812 365.718 144.929 366.601 143.851 366.601C142.774 366.601 141.891 365.718 141.891 364.641Z" fill="#6A758D"/>
<path d="M143.351 365.709L143.217 495.512L144.239 495.513L144.373 365.71L143.351 365.709Z" fill="#6A758D"/>
<path d="M263.49 340.004C263.49 338.927 264.374 338.043 265.451 338.043C266.528 338.043 267.412 338.927 267.412 340.004C267.412 341.081 266.528 341.965 265.451 341.965C264.374 341.937 263.49 341.081 263.49 340.004Z" fill="#6A758D"/>
<path d="M312.623 390.32C312.623 389.243 313.507 388.359 314.584 388.359C315.661 388.359 316.545 389.243 316.545 390.32C316.545 391.397 315.661 392.281 314.584 392.281C313.507 392.281 312.623 391.397 312.623 390.32Z" fill="#6A758D"/>
<path d="M330.875 399.519C330.875 398.442 331.759 397.559 332.836 397.559C333.913 397.559 334.797 398.442 334.797 399.519C334.797 400.596 333.913 401.48 332.836 401.48C331.731 401.48 330.875 400.596 330.875 399.519Z" fill="#6A758D"/>
<path d="M285.889 366.516C285.889 365.438 286.772 364.555 287.85 364.555C288.927 364.555 289.81 365.438 289.81 366.516C289.81 367.593 288.927 368.476 287.85 368.476C286.772 368.449 285.889 367.593 285.889 366.516Z" fill="#6A758D"/>
<path d="M285.004 724.44L285.142 602.619H295.581L295.692 500.931L332.202 500.959L332.313 399.52H333.335L333.224 501.981L296.714 501.953L296.603 603.641H286.164L286.026 724.44H285.004Z" fill="#6A758D"/>
<path d="M240.955 724.382L241.121 582.345H251.947L252.03 490.683L313.976 490.738L314.059 390.32H315.081L314.998 491.76L253.052 491.704L252.969 583.367H242.143L241.977 724.382H240.955Z" fill="#6A758D"/>
<path d="M234.16 724.383L234.353 549.702H237.695L237.806 453.703L314.527 453.786L314.5 454.808L238.828 454.725L238.717 550.724H235.375L235.182 724.383H234.16Z" fill="#6A758D"/>
<path d="M264.95 340L264.83 454.254L265.852 454.255L265.972 340.001L264.95 340Z" fill="#6A758D"/>
<path d="M287.339 366.485L287.248 454.254L288.27 454.255L288.361 366.486L287.339 366.485Z" fill="#6A758D"/>
<g opacity="0.26">
<path d="M-11.2227 527.307L-10.9741 285.102H-9.95225L-10.2008 526.285L30.176 526.341V527.363L-11.2227 527.307Z" fill="#6A758D"/>
</g>
<path d="M60.8867 637.831L60.9972 516.01H71.4642L71.5471 414.322L108.085 414.349L108.168 312.91H109.19L109.079 415.371L72.5689 415.344L72.4585 517.031H62.019L61.9086 637.831H60.8867Z" fill="#6A758D"/>
<path d="M106.814 312.219C106.814 311.142 107.698 310.258 108.775 310.258C109.852 310.258 110.736 311.142 110.736 312.219C110.736 313.296 109.852 314.18 108.775 314.18C107.698 314.18 106.814 313.296 106.814 312.219Z" fill="#6A758D"/>
</g>
<circle cx="187.5" cy="327.5" r="26.5" fill="#152342"/>
<path d="M202.273 324.78C202.533 324.428 202.469 323.946 202.117 323.686L200.006 322.097C199.654 321.836 199.159 321.901 198.899 322.253L198.092 323.322L201.466 325.862L202.273 324.781L202.273 324.78Z" fill="white"/>
<path d="M197.158 324.578L189.659 334.589C189.612 334.711 189.569 334.826 189.523 334.948L189.27 337.829C189.233 338.246 189.649 338.557 190.04 338.404L192.736 337.343C192.853 337.298 192.959 337.218 193.037 337.112L193.662 336.278L199.838 328.035L200.923 328.849L199.036 331.367C198.844 331.624 198.896 331.988 199.153 332.18C199.409 332.372 199.774 332.32 199.965 332.063L202.199 329.08C202.391 328.824 202.339 328.459 202.083 328.268L197.158 324.579L197.158 324.578Z" fill="white"/>
<path d="M195.408 318.476C195.408 317.109 194.3 316.001 192.933 316.001L175.475 316C174.107 316 173 317.107 173 318.475V337.665C173 338.356 173.834 338.707 174.316 338.212L179.826 332.702H189.127L195.407 324.313L195.408 318.476ZM188.569 329.341H177.013C176.584 329.341 176.231 328.989 176.231 328.56C176.231 328.13 176.584 327.778 177.013 327.778H188.569C188.998 327.778 189.35 328.13 189.35 328.56C189.35 328.989 188.998 329.341 188.569 329.341ZM191.396 325.132H177.013C176.584 325.132 176.231 324.781 176.231 324.35C176.231 323.921 176.584 323.569 177.013 323.569H191.397C191.827 323.569 192.179 323.921 192.179 324.35C192.179 324.78 191.827 325.132 191.397 325.132H191.396ZM191.396 320.924H177.013C176.584 320.924 176.231 320.572 176.231 320.143C176.231 319.713 176.584 319.361 177.013 319.361H191.397C191.827 319.361 192.179 319.713 192.179 320.143C192.179 320.572 191.827 320.924 191.397 320.924H191.396Z" fill="white"/>
<circle cx="358.5" cy="273.5" r="24.5" fill="#152342"/>
<path d="M358.571 268.688C358.571 268.865 358.467 269.024 358.307 269.092C358.147 269.159 357.963 269.122 357.84 268.997C357.717 268.871 357.681 268.683 357.746 268.52C357.813 268.356 357.969 268.25 358.143 268.25C358.256 268.25 358.366 268.296 358.446 268.378C358.526 268.46 358.571 268.572 358.571 268.688ZM354.646 273.867L348.714 279.319L347 280.894V281.375C347.004 282.823 348.153 283.996 349.572 284H363.329L361.829 282.25L354.646 273.867ZM364.143 271.234L359.086 276.396L364.1 282.25L365.6 284H368.428C369.847 283.996 370.995 282.823 371 281.375V278.234L364.143 271.234ZM371 265.625V275.766L365.351 270C365.031 269.672 364.596 269.488 364.143 269.488C363.69 269.488 363.255 269.672 362.934 270L357.954 275.075L355.932 272.713C355.63 272.364 355.204 272.151 354.749 272.126C354.289 272.089 353.835 272.251 353.497 272.573L348.714 276.956L347 278.531V265.625C347.004 264.177 348.153 263.004 349.571 263H368.428C369.847 263.004 370.996 264.177 371 265.625ZM360.286 268.688C360.286 267.803 359.764 267.006 358.963 266.666C358.162 266.329 357.241 266.516 356.628 267.141C356.015 267.767 355.832 268.707 356.163 269.524C356.495 270.343 357.276 270.875 358.143 270.875C358.711 270.875 359.256 270.644 359.658 270.234C360.06 269.824 360.286 269.267 360.286 268.688Z" fill="#E2EBFF"/>
<circle cx="264.5" cy="321.5" r="16.5" fill="#152342"/>
<path d="M270.577 320.48C270.577 320.217 270.37 320.012 270.108 320.012C269.846 320.012 269.64 320.218 269.64 320.48C269.64 323.432 267.241 325.832 264.288 325.832C261.336 325.832 258.937 323.432 258.937 320.48C258.937 320.217 258.73 320.012 258.468 320.012C258.206 320.012 258 320.218 258 320.48C258 323.788 260.577 326.507 263.82 326.75V328.896H261.842C261.58 328.896 261.374 329.103 261.374 329.365C261.374 329.628 261.58 329.833 261.842 329.833H266.744C267.007 329.833 267.212 329.627 267.212 329.365C267.212 329.102 267.006 328.896 266.744 328.896H264.757V326.75C268.009 326.507 270.577 323.789 270.577 320.48Z" fill="white"/>
<path d="M264.29 323.853C266.24 323.853 267.814 322.278 267.814 320.329V316.524C267.814 314.584 266.24 313 264.29 313C262.34 313 260.766 314.584 260.766 316.524V320.33C260.766 322.278 262.34 323.853 264.29 323.853Z" fill="white"/>
<circle cx="107.5" cy="289.5" r="20.5" fill="#152342"/>
<path d="M117.011 278.938H99.151C97.9348 278.938 96.9422 279.93 96.9422 281.138L96.9395 296.976C96.9395 298.202 97.9412 299.185 99.1574 299.185H117.011C118.228 299.185 119.229 298.201 119.229 296.976V281.138C119.229 279.93 118.227 278.938 117.011 278.938ZM112.423 281.101H116.6C116.94 281.101 117.216 281.37 117.216 281.718C117.216 282.067 116.939 282.344 116.6 282.344H112.423C112.083 282.344 111.797 282.067 111.797 281.718C111.797 281.369 112.083 281.101 112.423 281.101ZM104.526 281.03H104.696C105.089 281.03 105.403 281.334 105.403 281.718C105.403 282.103 105.089 282.407 104.696 282.407H104.526C104.16 282.407 103.838 282.102 103.838 281.718C103.838 281.333 104.16 281.03 104.526 281.03ZM102.156 281.03H102.335C102.701 281.03 103.015 281.334 103.015 281.718C103.015 282.103 102.701 282.407 102.335 282.407H102.156C101.763 282.407 101.45 282.102 101.45 281.718C101.45 281.333 101.762 281.03 102.156 281.03ZM99.7676 281.03H99.9464C100.331 281.03 100.635 281.334 100.635 281.718C100.635 282.103 100.33 282.407 99.9464 282.407H99.7676C99.3827 282.407 99.0793 282.102 99.0793 281.718C99.0793 281.333 99.3836 281.03 99.7676 281.03ZM118.075 296.976C118.075 297.567 117.601 298.041 117.011 298.041H99.1571C98.5668 298.041 98.093 297.567 98.093 296.976L98.0866 284.501H118.075L118.075 296.976Z" fill="white"/>
<path d="M99.8888 285.648H116.272C116.634 285.648 116.927 286.01 116.927 286.303V289.326C116.927 289.687 116.634 289.98 116.272 289.98H99.8888C99.5277 289.98 99.2344 289.619 99.2344 289.326V286.303C99.2344 285.942 99.5277 285.648 99.8888 285.648Z" fill="white"/>
<path d="M109.31 291.129H111.563C111.925 291.129 112.218 291.422 112.218 291.783V296.238C112.218 296.6 111.925 296.893 111.563 296.893H109.311C108.95 296.893 108.656 296.6 108.656 296.238V291.783C108.656 291.422 108.95 291.129 109.311 291.129H109.31Z" fill="white"/>
<path d="M114.017 291.129H116.27C116.632 291.129 116.925 291.422 116.925 291.783V296.238C116.925 296.6 116.632 296.893 116.27 296.893H114.018C113.657 296.893 113.363 296.6 113.363 296.238V291.783C113.363 291.422 113.657 291.129 114.018 291.129H114.017Z" fill="white"/>
<path d="M99.8879 291.129H102.142C102.503 291.129 102.796 291.422 102.796 291.783V296.238C102.796 296.6 102.503 296.893 102.142 296.893H99.8888C99.5277 296.893 99.2344 296.6 99.2344 296.238V291.783C99.2344 291.422 99.5277 291.129 99.8888 291.129H99.8879Z" fill="white"/>
<path d="M104.597 291.129H106.851C107.212 291.129 107.505 291.422 107.505 291.783V296.238C107.505 296.6 107.212 296.893 106.851 296.893H104.598C104.237 296.893 103.943 296.6 103.943 296.238V291.783C103.943 291.422 104.237 291.129 104.598 291.129H104.597Z" fill="white"/>
<g clip-path="url(#clip1_3213_3578)">
<mask id="mask3_3213_3578" style="mask-type:luminance" maskUnits="userSpaceOnUse" x="179" y="40" width="85" height="32">
<path d="M264 40H179V71.1188H264V40Z" fill="white"/>
</mask>
<g mask="url(#mask3_3213_3578)">
<path d="M264 40H179V71.1188H264V40Z" fill="#7351FD"/>
<path d="M186.945 53.6041H189.148V61.717C189.076 61.7458 188.94 61.7889 188.738 61.8465C188.551 61.8896 188.356 61.9112 188.155 61.9112C187.78 61.9112 187.485 61.8033 187.269 61.5876C187.053 61.3574 186.945 61.0625 186.945 60.7029V53.6041ZM189.148 56.9701H186.945V49.9791C186.945 49.6195 187.053 49.3318 187.269 49.1161C187.485 48.8859 187.78 48.7708 188.155 48.7708C188.356 48.7708 188.551 48.7924 188.738 48.8356C188.94 48.8787 189.076 48.9219 189.148 48.965V56.9701ZM188.155 56.0854V54.273H194.656C194.713 54.3593 194.764 54.4815 194.807 54.6398C194.865 54.7836 194.893 54.949 194.893 55.136C194.893 55.4381 194.821 55.6755 194.677 55.8481C194.533 56.0063 194.332 56.0854 194.073 56.0854H188.155ZM188.155 61.9112V60.0772H195.412C195.469 60.1635 195.52 60.2857 195.563 60.444C195.62 60.5878 195.649 60.7604 195.649 60.9618C195.649 61.2639 195.577 61.5012 195.433 61.6739C195.304 61.8321 195.102 61.9112 194.829 61.9112H188.155ZM188.155 50.6049V48.7708H195.304C195.361 48.8571 195.419 48.9794 195.477 49.1376C195.534 49.2959 195.563 49.4613 195.563 49.6339C195.563 49.936 195.491 50.1733 195.347 50.3459C195.203 50.5186 195.001 50.6049 194.742 50.6049H188.155ZM211.856 50.5617H211.77C211.569 51.1227 211.338 51.7772 211.079 52.5252C210.82 53.2732 210.546 54.05 210.258 54.8555C209.985 55.6467 209.725 56.4019 209.481 57.1211L209.286 57.941C209.2 58.2144 209.099 58.5308 208.984 58.8904C208.869 59.2501 208.746 59.6241 208.617 60.0124C208.502 60.3864 208.386 60.7461 208.271 61.0913C208.156 61.4221 208.062 61.6954 207.99 61.9112C207.875 61.9688 207.746 62.0119 207.602 62.0407C207.472 62.0694 207.307 62.0838 207.105 62.0838C206.759 62.0838 206.471 62.0047 206.241 61.8465C206.025 61.6882 205.917 61.4581 205.917 61.156C205.917 60.9978 205.939 60.8467 205.982 60.7029C206.039 60.5447 206.097 60.3721 206.155 60.1851C206.313 59.7104 206.515 59.1206 206.759 58.4157C207.004 57.6965 207.278 56.9197 207.58 56.0854C207.882 55.2511 208.192 54.4024 208.509 53.5393C208.826 52.6763 209.128 51.8563 209.416 51.0796C209.718 50.2884 209.992 49.5908 210.237 48.9866C210.381 48.9147 210.597 48.8428 210.885 48.7708C211.187 48.6845 211.489 48.6414 211.792 48.6414C212.18 48.6414 212.54 48.6989 212.872 48.814C213.203 48.9291 213.419 49.1233 213.52 49.3966C213.836 50.2021 214.182 51.1299 214.556 52.18C214.931 53.2157 215.305 54.2945 215.679 55.4165C216.068 56.5385 216.435 57.6318 216.781 58.6962C217.126 59.7607 217.436 60.7245 217.71 61.5876C217.594 61.7314 217.429 61.8465 217.213 61.9328C217.011 62.0191 216.781 62.0623 216.522 62.0623C216.133 62.0623 215.852 61.9903 215.679 61.8465C215.507 61.7026 215.37 61.4581 215.269 61.1129L214.232 57.941L213.995 56.9701C213.736 56.1645 213.469 55.359 213.196 54.5535C212.936 53.7479 212.684 52.9999 212.44 52.3095C212.209 51.619 212.015 51.0364 211.856 50.5617ZM208.25 58.5668L209.049 56.7759H214.772L215.139 58.5668H208.25ZM232.014 60.3577C232.906 60.3577 233.576 60.1635 234.022 59.7751C234.483 59.3867 234.713 58.8904 234.713 58.2863C234.713 57.7684 234.533 57.3441 234.173 57.0132C233.828 56.668 233.295 56.3947 232.575 56.1933L230.934 55.697C230.271 55.4813 229.695 55.2223 229.206 54.9203C228.716 54.6182 228.335 54.237 228.061 53.7767C227.802 53.3164 227.672 52.7626 227.672 52.1153C227.672 50.9933 228.09 50.1086 228.925 49.4613C229.76 48.7996 230.891 48.4688 232.316 48.4688C233.108 48.4688 233.813 48.5551 234.433 48.7277C235.052 48.8859 235.541 49.1017 235.901 49.375C236.261 49.6483 236.441 49.9504 236.441 50.2812C236.441 50.5114 236.376 50.7199 236.247 50.9069C236.132 51.0796 235.988 51.2234 235.815 51.3385C235.469 51.0652 234.994 50.8278 234.389 50.6264C233.799 50.4251 233.158 50.3244 232.467 50.3244C231.675 50.3244 231.056 50.4898 230.61 50.8206C230.163 51.1371 229.94 51.5686 229.94 52.1153C229.94 52.5612 230.099 52.9208 230.415 53.1941C230.732 53.4674 231.236 53.7048 231.927 53.9061L233.202 54.2945C234.382 54.6398 235.311 55.1217 235.988 55.7402C236.664 56.3587 237.003 57.2146 237.003 58.3079C237.003 59.4586 236.571 60.3936 235.707 61.1129C234.843 61.8321 233.619 62.1917 232.035 62.1917C231.157 62.1917 230.379 62.091 229.703 61.8896C229.04 61.7026 228.522 61.4581 228.148 61.156C227.773 60.8396 227.586 60.5087 227.586 60.1635C227.586 59.8758 227.672 59.6384 227.845 59.4514C228.018 59.25 228.212 59.099 228.428 58.9983C228.774 59.3148 229.249 59.6241 229.854 59.9261C230.459 60.2138 231.179 60.3577 232.014 60.3577ZM252.949 57.3369H250.983C250.58 56.7471 250.155 56.1142 249.709 55.4381C249.277 54.762 248.845 54.0716 248.413 53.3667C247.995 52.6619 247.592 51.9714 247.203 51.2953C246.829 50.6193 246.498 50.0007 246.21 49.4397C246.296 49.2527 246.44 49.0801 246.642 48.9219C246.844 48.7493 247.095 48.6629 247.398 48.6629C247.743 48.6629 248.017 48.7493 248.219 48.9219C248.42 49.0801 248.615 49.3462 248.802 49.7202C248.946 49.9648 249.126 50.274 249.342 50.648C249.558 51.022 249.781 51.432 250.011 51.8779C250.256 52.3095 250.501 52.741 250.746 53.1725C250.99 53.6041 251.214 53.9997 251.415 54.3593C251.617 54.7045 251.782 54.9922 251.912 55.2223H251.998C252.459 54.4312 252.869 53.6904 253.229 52.9999C253.604 52.3095 253.964 51.6262 254.309 50.9501C254.655 50.274 255 49.5836 255.346 48.8787C255.475 48.8068 255.627 48.7564 255.799 48.7277C255.972 48.6845 256.131 48.6629 256.275 48.6629C256.606 48.6629 256.865 48.7493 257.052 48.9219C257.239 49.0801 257.333 49.3103 257.333 49.6123C257.333 49.7562 257.232 50.0439 257.031 50.4754C256.843 50.8926 256.563 51.432 256.188 52.0937C255.814 52.7554 255.353 53.5321 254.806 54.424C254.273 55.3015 253.654 56.2724 252.949 57.3369ZM250.854 56.3875H253.057V61.8465C252.97 61.8752 252.826 61.9112 252.625 61.9544C252.437 61.9975 252.243 62.0191 252.041 62.0191C251.624 62.0191 251.321 61.94 251.134 61.7817C250.947 61.6091 250.854 61.343 250.854 60.9834V56.3875Z" fill="white"/>
</g>
<path d="M187.196 84.1024C186.192 84.69 185.135 84.9892 184.022 85C182.506 85 181.279 84.4997 180.341 83.4987C179.447 82.5307 179 81.3339 179 79.9088C179 78.7338 179.322 77.695 179.965 76.7921C180.892 75.5193 182.228 74.8828 183.973 74.8828C184.202 74.8828 184.431 74.8936 184.66 74.9154C185.685 75.0243 186.509 75.3179 187.13 75.7967C187.13 75.5356 187.141 75.3398 187.163 75.2091C187.218 75.0461 187.37 74.9643 187.621 74.9643L187.67 78.0158H187.245C186.721 76.2534 185.663 75.3616 184.071 75.3398C183.504 75.3398 182.992 75.4812 182.533 75.7639C181.399 76.4603 180.832 77.8472 180.832 79.9251C180.832 80.7084 180.914 81.4101 181.078 82.0301C181.514 83.7054 182.49 84.5431 184.006 84.5431C185.653 84.5323 186.749 83.6184 187.294 81.8016H187.719V84.9185C187.588 84.9185 187.49 84.9075 187.425 84.8859C187.272 84.8205 187.196 84.5594 187.196 84.1024Z" fill="white"/>
<path d="M194.18 74.8828C195.314 74.8828 196.318 75.2038 197.19 75.8456C198.444 76.7811 199.071 78.1465 199.071 79.9414C199.071 81.4645 198.559 82.71 197.534 83.6783C196.585 84.5594 195.451 85 194.131 85C192.964 85 191.928 84.6464 191.023 83.9394C189.812 82.9711 189.207 81.6168 189.207 79.8762C189.207 78.3749 189.72 77.1455 190.745 76.1882C191.704 75.3179 192.85 74.8828 194.18 74.8828ZM194.18 84.5431C194.442 84.5431 194.693 84.516 194.933 84.4616C196.47 84.0698 197.239 82.5414 197.239 79.8762C197.228 76.8736 196.192 75.3616 194.131 75.3398C193.978 75.3398 193.82 75.3506 193.657 75.3724C191.901 75.6008 191.023 77.1239 191.023 79.9414C191.023 80.1373 191.028 80.3332 191.039 80.5288C191.17 83.2051 192.217 84.5431 194.18 84.5431Z" fill="white"/>
<path d="M212.716 75.0469V75.471H211.407V84.4134H212.29C212.345 84.4134 212.399 84.4187 212.454 84.4297C212.628 84.4624 212.716 84.5983 212.716 84.8375H208.61V84.4134H209.918V76.5645L206.205 84.9356H205.861L202.295 77.5599V84.4134H203.178C203.233 84.4134 203.287 84.4187 203.342 84.4297C203.517 84.4624 203.604 84.5983 203.604 84.8375H200.332V84.4134H201.641V75.471H200.332V75.0469H202.786L206.516 82.8304L209.918 75.0469H212.716Z" fill="white"/>
<path d="M225.95 75.0469V75.471H224.641V84.4134H225.524C225.579 84.4134 225.634 84.4187 225.688 84.4297C225.863 84.4624 225.95 84.5983 225.95 84.8375H221.844V84.4134H223.153V76.5645L219.439 84.9356H219.095L215.529 77.5599V84.4134H216.413C216.467 84.4134 216.522 84.4187 216.576 84.4297C216.751 84.4624 216.838 84.5983 216.838 84.8375H213.566V84.4134H214.875V75.471H213.566V75.0469H216.02L219.75 82.8304L223.153 75.0469H225.95Z" fill="white"/>
<path d="M234.719 78.0166H234.359L234.097 77.1844C234.097 77.1626 234.092 77.141 234.081 77.1192C233.743 76.0205 233.154 75.471 232.314 75.471H229.844V79.5505H233.181V80.0237H229.844V84.4134H232.314C232.478 84.4134 232.636 84.3916 232.789 84.348C233.378 84.185 233.814 83.6355 234.097 82.7L234.359 81.8678H234.719L234.637 84.8375H226.965V84.4134H228.273V75.471H226.965V75.0469H234.637L234.719 78.0166Z" fill="white"/>
<path d="M240.297 84.8375H236.109V84.4134H237.418V75.471H236.109V75.0469H241.082C241.933 75.0469 242.653 75.2425 243.242 75.6342C243.951 76.1238 244.305 76.7764 244.305 77.5925C244.305 77.9188 244.24 78.2398 244.109 78.5553C243.738 79.3819 243.029 79.9314 241.982 80.2033L244.6 84.4134H245.139C245.205 84.4134 245.265 84.4187 245.319 84.4297C245.461 84.4513 245.532 84.5875 245.532 84.8375H242.98L240.395 80.3503H238.988V84.4134H240.297V84.8375ZM240.494 75.471H238.988V79.877H240.559C241.028 79.877 241.431 79.7411 241.769 79.469C242.315 79.0446 242.587 78.4301 242.587 77.6251C242.587 77.277 242.522 76.9452 242.391 76.6297C242.042 75.8572 241.41 75.471 240.494 75.471Z" fill="white"/>
<path d="M254.481 84.1024C253.478 84.69 252.42 84.9892 251.307 85C249.791 85 248.564 84.4997 247.627 83.4987C246.732 82.5307 246.285 81.3339 246.285 79.9088C246.285 78.7338 246.607 77.695 247.25 76.7921C248.177 75.5193 249.513 74.8828 251.258 74.8828C251.487 74.8828 251.716 74.8936 251.945 74.9154C252.97 75.0243 253.794 75.3179 254.416 75.7967C254.416 75.5356 254.426 75.3398 254.448 75.2091C254.503 75.0461 254.655 74.9643 254.906 74.9643L254.955 78.0158H254.53C254.006 76.2534 252.949 75.3616 251.356 75.3398C250.789 75.3398 250.277 75.4812 249.819 75.7639C248.684 76.4603 248.117 77.8472 248.117 79.9251C248.117 80.7084 248.199 81.4101 248.363 82.0301C248.799 83.7054 249.775 84.5431 251.291 84.5431C252.938 84.5323 254.034 83.6184 254.579 81.8016H255.004V84.9185C254.873 84.9185 254.775 84.9075 254.71 84.8859C254.557 84.8205 254.481 84.5594 254.481 84.1024Z" fill="white"/>
<path d="M264 78.0166H263.64L263.379 77.1844C263.379 77.1626 263.373 77.141 263.362 77.1192C263.024 76.0205 262.435 75.471 261.595 75.471H259.125V79.5505H262.462V80.0237H259.125V84.4134H261.595C261.759 84.4134 261.917 84.3916 262.07 84.348C262.659 84.185 263.095 83.6355 263.379 82.7L263.64 81.8678H264L263.918 84.8375H256.246V84.4134H257.555V75.471H256.246V75.0469H263.918L264 78.0166Z" fill="white"/>
</g>
</g>
<defs>
<clipPath id="clip0_3213_3578">
<rect width="444" height="466" rx="16" fill="white"/>
</clipPath>
<clipPath id="clip1_3213_3578">
<rect width="85" height="45" fill="white" transform="translate(179 40)"/>
</clipPath>
</defs>
</svg>
