<svg width="298" height="298" viewBox="0 0 298 298" fill="none" xmlns="http://www.w3.org/2000/svg">
<path fill-rule="evenodd" clip-rule="evenodd" d="M207.342 1.42157C209.238 3.317 209.238 6.39009 207.342 8.28551L155.862 59.7656L238.231 142.134L289.711 90.6547C291.607 88.7593 294.68 88.7593 296.575 90.6547C298.471 92.5501 298.471 95.6232 296.575 97.5187L245.095 148.998L296.578 200.481C298.474 202.376 298.474 205.449 296.578 207.345C294.683 209.24 291.61 209.24 289.714 207.345L238.231 155.862L155.861 238.231L207.345 289.714C209.241 291.61 209.241 294.683 207.345 296.578C205.45 298.474 202.377 298.474 200.481 296.578L148.997 245.095L97.5186 296.573C95.6232 298.469 92.55 298.469 90.6546 296.573C88.7591 294.678 88.7591 291.605 90.6546 289.709L142.133 238.231L59.7638 155.862L8.28561 207.34C6.39016 209.235 3.31703 209.235 1.42159 207.34C-0.47386 205.445 -0.473863 202.371 1.42158 200.476L52.8997 148.998L1.42476 97.524C-0.470691 95.6286 -0.470688 92.5555 1.42476 90.66C3.32021 88.7646 6.39333 88.7646 8.28878 90.66L59.7638 142.134L142.134 59.7656L90.6578 8.29037C88.7623 6.39494 88.7623 3.32185 90.6578 1.42642C92.5532 -0.469002 95.6263 -0.469001 97.5218 1.42643L148.998 52.9017L200.478 1.42157C202.374 -0.473856 205.447 -0.473857 207.342 1.42157ZM148.998 66.6296L66.6278 148.998L148.997 231.367L231.367 148.998L148.998 66.6296Z" fill="url(#paint0_radial_3146_153)"/>
<defs>
<radialGradient id="paint0_radial_3146_153" cx="0" cy="0" r="1" gradientUnits="userSpaceOnUse" gradientTransform="translate(149 149) rotate(90) scale(165.023)">
<stop stop-color="#626AFF"/>
<stop offset="1" stop-color="#737AFF"/>
</radialGradient>
</defs>
</svg>
