<svg width="498" height="341" viewBox="0 0 498 341" fill="none" xmlns="http://www.w3.org/2000/svg">
<g clip-path="url(#clip0_3146_867)">
<rect width="498" height="341" rx="12" fill="#F0F1FF"/>
<circle cx="75" cy="75" r="35" fill="white"/>
<rect x="126" y="52.5" width="130" height="17" rx="8.5" fill="#8181FF"/>
<rect x="126" y="81.5" width="156" height="16" rx="8" fill="#D7D7FF"/>
<path fill-rule="evenodd" clip-rule="evenodd" d="M91 87.5142V94C91 93.9983 59 93.9983 59 93.9983V87.5125C59 83.6134 62.1674 80.4517 66.0759 80.4517H83.924C87.8325 80.4517 91 83.6133 91 87.5125V87.5142ZM75.0002 56C80.6771 56 85.2858 60.5977 85.2858 66.2611C85.2858 71.9245 80.6771 76.5222 75.0002 76.5222C69.3233 76.5222 64.7147 71.9245 64.7147 66.2611C64.7147 60.5977 69.3233 56 75.0002 56Z" fill="#D7D7FF"/>
<circle cx="75" cy="165" r="35" fill="white"/>
<rect x="126" y="142.5" width="224" height="17" rx="8.5" fill="#8181FF"/>
<rect x="126" y="171.5" width="147" height="16" rx="8" fill="#D7D7FF"/>
<path d="M85.8887 157.222H62.5553C62.0887 157.222 61.7776 157.067 61.4664 156.756C61.1553 156.444 60.9998 156.133 60.9998 155.667C60.9998 154.733 61.622 154.111 62.5553 154.111H90.5553C91.4887 154.111 92.1109 153.489 92.1109 152.556C92.1109 151.622 91.4887 151 90.5553 151H62.5553C59.9109 151 57.8887 153.022 57.8887 155.667V172.778C57.8887 176.2 60.6887 179 64.1109 179H85.8887C89.3109 179 92.1109 176.2 92.1109 172.778V163.444C92.1109 160.022 89.3109 157.222 85.8887 157.222ZM71.8887 172.778H65.6664C64.7331 172.778 64.1109 172.156 64.1109 171.222C64.1109 170.289 64.7331 169.667 65.6664 169.667H71.8887C72.822 169.667 73.4442 170.289 73.4442 171.222C73.4442 172.156 72.822 172.778 71.8887 172.778Z" fill="#D7D7FF"/>
<g filter="url(#filter0_d_3146_867)">
<rect x="137" y="229" width="329" height="80" rx="12" fill="white"/>
<circle cx="180" cy="269" r="24.5" fill="white" stroke="#EEEFFF"/>
<path d="M187.223 278.468C187.975 280.181 187.197 282.181 185.482 282.931C183.769 283.683 181.771 282.904 181.02 281.189C180.818 280.732 180.736 280.253 180.742 279.783L186.377 277.312C186.726 277.624 187.021 278.009 187.223 278.468Z" fill="#D7D7FF"/>
<path d="M169.824 269.514C168.234 265.514 169.043 261.701 171.42 259.207C171.322 259.057 171.223 258.917 171.149 258.745C170.397 257.033 171.176 255.037 172.889 254.286C174.602 253.534 176.6 254.316 177.352 256.027C177.423 256.189 177.462 256.357 177.504 256.524C181.065 256.452 184.58 258.62 186.417 262.308C186.417 262.308 189.138 268.555 192.126 269.052C192.218 269.057 193.821 269.097 194.31 270.265C194.771 271.37 193.822 272.849 192.171 273.56L174.292 281.265C172.643 281.976 170.821 281.691 170.431 280.56C170.046 279.445 170.891 278.408 170.971 278.316C172.658 275.724 169.824 269.514 169.824 269.514Z" fill="#D7D7FF"/>
<rect x="213" y="249.5" width="171" height="15" rx="7.5" fill="#8181FF"/>
<rect x="213" y="274.5" width="127" height="14" rx="7" fill="#D7D7FF"/>
<path fill-rule="evenodd" clip-rule="evenodd" d="M448.844 237C448.677 237 448.513 237.05 448.375 237.144C448.236 237.237 448.129 237.37 448.066 237.524C448.003 237.679 447.988 237.849 448.022 238.013C448.056 238.176 448.138 238.326 448.258 238.443L451.812 241.998L448.258 245.554C448.178 245.631 448.113 245.724 448.069 245.826C448.025 245.929 448.001 246.039 448 246.151C447.999 246.263 448.02 246.374 448.062 246.477C448.105 246.581 448.167 246.675 448.246 246.754C448.325 246.833 448.419 246.895 448.522 246.938C448.626 246.98 448.737 247.001 448.848 247C448.96 246.999 449.07 246.975 449.173 246.931C449.276 246.887 449.368 246.822 449.446 246.742L453 243.186L456.554 246.742C456.632 246.822 456.724 246.887 456.827 246.931C456.929 246.975 457.04 246.999 457.152 247C457.263 247.001 457.374 246.98 457.478 246.938C457.581 246.895 457.675 246.833 457.754 246.754C457.833 246.675 457.895 246.581 457.938 246.477C457.98 246.374 458.001 246.263 458 246.151C457.999 246.04 457.975 245.929 457.931 245.826C457.887 245.724 457.822 245.631 457.742 245.554L454.187 241.998L457.742 238.443C457.863 238.325 457.946 238.173 457.98 238.007C458.013 237.841 457.996 237.669 457.93 237.513C457.864 237.357 457.752 237.224 457.61 237.133C457.468 237.042 457.301 236.995 457.132 237C456.913 237.007 456.706 237.098 456.554 237.255L453 240.81L449.446 237.255C449.367 237.174 449.274 237.11 449.17 237.067C449.067 237.023 448.956 237 448.844 237Z" fill="#BDBDFF"/>
</g>
</g>
<defs>
<filter id="filter0_d_3146_867" x="110.1" y="211.1" width="382.8" height="133.8" filterUnits="userSpaceOnUse" color-interpolation-filters="sRGB">
<feFlood flood-opacity="0" result="BackgroundImageFix"/>
<feColorMatrix in="SourceAlpha" type="matrix" values="0 0 0 0 0 0 0 0 0 0 0 0 0 0 0 0 0 0 127 0" result="hardAlpha"/>
<feOffset dy="9"/>
<feGaussianBlur stdDeviation="13.45"/>
<feComposite in2="hardAlpha" operator="out"/>
<feColorMatrix type="matrix" values="0 0 0 0 0.850962 0 0 0 0 0.860897 0 0 0 0 1 0 0 0 1 0"/>
<feBlend mode="normal" in2="BackgroundImageFix" result="effect1_dropShadow_3146_867"/>
<feBlend mode="normal" in="SourceGraphic" in2="effect1_dropShadow_3146_867" result="shape"/>
</filter>
<clipPath id="clip0_3146_867">
<rect width="498" height="341" rx="12" fill="white"/>
</clipPath>
</defs>
</svg>
