<svg width="498" height="341" viewBox="0 0 498 341" fill="none" xmlns="http://www.w3.org/2000/svg">
<rect width="498" height="341" rx="12" fill="#F0F1FF"/>
<circle cx="36.5" cy="36.5" r="16.5" fill="#8181FF"/>
<rect x="62" y="32" width="171" height="9" rx="4.5" fill="#D7D7FF"/>
<rect x="376" y="32" width="102" height="9" rx="4.5" fill="#D7D7FF"/>
<rect x="408" y="48" width="70" height="18" rx="9" fill="#D7D7FF"/>
<rect x="376" y="73" width="102" height="9" rx="4.5" fill="#D7D7FF"/>
<rect x="20" y="66" width="251" height="87" rx="8" fill="white"/>
<rect x="32" y="78" width="190" height="14" rx="7" fill="#D7D7FF"/>
<rect x="32" y="102" width="123" height="8" rx="4" fill="#D7D7FF"/>
<rect x="32" y="120" width="83" height="8" rx="4" fill="#D7D7FF"/>
<rect x="20" y="169" width="458" height="150" rx="8" fill="white"/>
<rect x="20" y="169" width="458" height="24" fill="#D5D8FF"/>
<rect x="41" y="176" width="61" height="10" rx="5" fill="white"/>
<rect x="159" y="176" width="61" height="10" rx="5" fill="white"/>
<rect x="277" y="176" width="61" height="10" rx="5" fill="white"/>
<rect x="395" y="176" width="61" height="10" rx="5" fill="white"/>
<path d="M48.8651 303.03C48.7827 302.771 48.6719 302.54 48.5327 302.335C48.3963 302.128 48.233 301.952 48.0426 301.807C47.8523 301.659 47.6349 301.547 47.3906 301.47C47.1491 301.393 46.8835 301.355 46.5938 301.355C46.1023 301.355 45.6591 301.482 45.2642 301.734C44.8693 301.987 44.5568 302.358 44.3267 302.847C44.0994 303.332 43.9858 303.928 43.9858 304.632C43.9858 305.339 44.1009 305.937 44.331 306.426C44.5611 306.915 44.8764 307.286 45.277 307.538C45.6776 307.791 46.1335 307.918 46.6449 307.918C47.1193 307.918 47.5327 307.821 47.8849 307.628C48.2401 307.435 48.5142 307.162 48.7074 306.81C48.9034 306.455 49.0014 306.037 49.0014 305.557L49.3423 305.621H46.8452V304.534H50.2756V305.527C50.2756 306.26 50.1193 306.896 49.8068 307.436C49.4972 307.973 49.0682 308.388 48.5199 308.68C47.9744 308.973 47.3494 309.119 46.6449 309.119C45.8551 309.119 45.1619 308.938 44.5653 308.574C43.9716 308.21 43.5085 307.695 43.1761 307.027C42.8438 306.357 42.6776 305.561 42.6776 304.641C42.6776 303.945 42.7741 303.32 42.9673 302.766C43.1605 302.212 43.4318 301.741 43.7812 301.355C44.1335 300.966 44.5469 300.669 45.0213 300.464C45.4986 300.257 46.0199 300.153 46.5852 300.153C47.0568 300.153 47.4957 300.223 47.902 300.362C48.3111 300.501 48.6747 300.699 48.9929 300.955C49.3139 301.21 49.5795 301.514 49.7898 301.866C50 302.216 50.142 302.604 50.2159 303.03H48.8651ZM51.8448 309V302.455H53.0763V303.494H53.1445C53.2638 303.142 53.4741 302.865 53.7752 302.663C54.0792 302.459 54.4229 302.357 54.8065 302.357C54.886 302.357 54.9798 302.359 55.0877 302.365C55.1985 302.371 55.2852 302.378 55.3477 302.386V303.605C55.2965 303.591 55.2056 303.575 55.0749 303.558C54.9442 303.538 54.8136 303.528 54.6829 303.528C54.3817 303.528 54.1133 303.592 53.8775 303.72C53.6445 303.845 53.4599 304.02 53.3235 304.244C53.1871 304.466 53.119 304.719 53.119 305.003V309H51.8448ZM58.2965 309.145C57.8817 309.145 57.5067 309.068 57.1715 308.915C56.8363 308.759 56.5707 308.533 56.3746 308.237C56.1815 307.942 56.0849 307.58 56.0849 307.151C56.0849 306.781 56.1559 306.477 56.2979 306.239C56.44 306 56.6317 305.811 56.8732 305.672C57.1147 305.533 57.3846 305.428 57.6829 305.357C57.9812 305.286 58.2852 305.232 58.5948 305.195C58.9869 305.149 59.305 305.112 59.5494 305.084C59.7937 305.053 59.9712 305.003 60.082 304.935C60.1928 304.866 60.2482 304.756 60.2482 304.602V304.572C60.2482 304.2 60.1431 303.912 59.9329 303.707C59.7255 303.503 59.4158 303.401 59.0039 303.401C58.5749 303.401 58.2369 303.496 57.9897 303.686C57.7454 303.874 57.5763 304.082 57.4826 304.312L56.2852 304.04C56.4272 303.642 56.6346 303.321 56.9073 303.077C57.1829 302.83 57.4996 302.651 57.8576 302.54C58.2156 302.426 58.592 302.369 58.9869 302.369C59.2482 302.369 59.5252 302.401 59.8178 302.463C60.1133 302.523 60.3888 302.634 60.6445 302.795C60.9031 302.957 61.1147 303.189 61.2795 303.49C61.4442 303.788 61.5266 304.176 61.5266 304.653V309H60.2823V308.105H60.2312C60.1488 308.27 60.0252 308.432 59.8604 308.591C59.6957 308.75 59.484 308.882 59.2255 308.987C58.967 309.092 58.6573 309.145 58.2965 309.145ZM58.5735 308.122C58.9258 308.122 59.2269 308.053 59.4769 307.913C59.7298 307.774 59.9215 307.592 60.0522 307.368C60.1857 307.141 60.2525 306.898 60.2525 306.639V305.795C60.207 305.841 60.119 305.884 59.9883 305.923C59.8604 305.96 59.7141 305.993 59.5494 306.021C59.3846 306.047 59.2241 306.071 59.0678 306.094C58.9116 306.114 58.7809 306.131 58.6758 306.145C58.4286 306.176 58.2028 306.229 57.9982 306.303C57.7965 306.376 57.6346 306.483 57.5124 306.622C57.3931 306.759 57.3335 306.94 57.3335 307.168C57.3335 307.483 57.4499 307.722 57.6829 307.884C57.9158 308.043 58.2127 308.122 58.5735 308.122ZM64.4979 305.114V309H63.2237V302.455H64.4467V303.52H64.5277C64.6783 303.173 64.9141 302.895 65.2351 302.685C65.5589 302.474 65.9666 302.369 66.4581 302.369C66.9041 302.369 67.2947 302.463 67.63 302.651C67.9652 302.835 68.2251 303.111 68.4098 303.477C68.5945 303.844 68.6868 304.297 68.6868 304.837V309H67.4126V304.99C67.4126 304.516 67.2891 304.145 67.0419 303.878C66.7947 303.608 66.4553 303.473 66.0234 303.473C65.728 303.473 65.4652 303.537 65.2351 303.665C65.0078 303.793 64.8274 303.98 64.6939 304.227C64.5632 304.472 64.4979 304.767 64.4979 305.114ZM72.8459 309.128C72.3175 309.128 71.8459 308.993 71.4311 308.723C71.0192 308.45 70.6953 308.062 70.4595 307.56C70.2266 307.054 70.1101 306.447 70.1101 305.74C70.1101 305.033 70.228 304.428 70.4638 303.925C70.7024 303.422 71.0291 303.037 71.4439 302.77C71.8587 302.503 72.3288 302.369 72.8544 302.369C73.2607 302.369 73.5874 302.438 73.8345 302.574C74.0845 302.707 74.2777 302.864 74.4141 303.043C74.5533 303.222 74.6612 303.379 74.7379 303.516H74.8146V300.273H76.0888V309H74.8445V307.982H74.7379C74.6612 308.121 74.5504 308.28 74.4055 308.459C74.2635 308.638 74.0675 308.794 73.8175 308.928C73.5675 309.061 73.2436 309.128 72.8459 309.128ZM73.1271 308.041C73.4936 308.041 73.8033 307.945 74.0561 307.751C74.3118 307.555 74.505 307.284 74.6357 306.938C74.7692 306.591 74.8359 306.187 74.8359 305.727C74.8359 305.273 74.7706 304.875 74.6399 304.534C74.5092 304.193 74.3175 303.928 74.0646 303.737C73.8118 303.547 73.4993 303.452 73.1271 303.452C72.7436 303.452 72.424 303.551 72.1683 303.75C71.9126 303.949 71.7195 304.22 71.5888 304.564C71.4609 304.908 71.397 305.295 71.397 305.727C71.397 306.165 71.4624 306.558 71.593 306.908C71.7237 307.257 71.9169 307.534 72.1726 307.739C72.4311 307.94 72.7493 308.041 73.1271 308.041ZM80.755 301.406V300.273H87.5092V301.406H84.7862V309H83.4737V301.406H80.755ZM90.7074 309.132C90.0938 309.132 89.5582 308.991 89.1009 308.71C88.6435 308.429 88.2884 308.036 88.0355 307.53C87.7827 307.024 87.6562 306.433 87.6562 305.757C87.6562 305.078 87.7827 304.484 88.0355 303.976C88.2884 303.467 88.6435 303.072 89.1009 302.791C89.5582 302.51 90.0938 302.369 90.7074 302.369C91.321 302.369 91.8565 302.51 92.3139 302.791C92.7713 303.072 93.1264 303.467 93.3793 303.976C93.6321 304.484 93.7585 305.078 93.7585 305.757C93.7585 306.433 93.6321 307.024 93.3793 307.53C93.1264 308.036 92.7713 308.429 92.3139 308.71C91.8565 308.991 91.321 309.132 90.7074 309.132ZM90.7116 308.062C91.1094 308.062 91.4389 307.957 91.7003 307.747C91.9616 307.537 92.1548 307.257 92.2798 306.908C92.4077 306.558 92.4716 306.173 92.4716 305.753C92.4716 305.335 92.4077 304.952 92.2798 304.602C92.1548 304.25 91.9616 303.967 91.7003 303.754C91.4389 303.541 91.1094 303.435 90.7116 303.435C90.3111 303.435 89.9787 303.541 89.7145 303.754C89.4531 303.967 89.2585 304.25 89.1307 304.602C89.0057 304.952 88.9432 305.335 88.9432 305.753C88.9432 306.173 89.0057 306.558 89.1307 306.908C89.2585 307.257 89.4531 307.537 89.7145 307.747C89.9787 307.957 90.3111 308.062 90.7116 308.062ZM98.2362 302.455V303.477H94.6609V302.455H98.2362ZM95.6197 300.886H96.8938V307.078C96.8938 307.325 96.9308 307.511 97.0046 307.636C97.0785 307.759 97.1737 307.842 97.2901 307.888C97.4094 307.93 97.5387 307.952 97.6779 307.952C97.7802 307.952 97.8697 307.945 97.9464 307.93C98.0231 307.916 98.0827 307.905 98.1254 307.896L98.3555 308.949C98.2816 308.977 98.1765 309.006 98.0401 309.034C97.9038 309.065 97.7333 309.082 97.5288 309.085C97.1935 309.091 96.881 309.031 96.5913 308.906C96.3015 308.781 96.0671 308.588 95.8881 308.327C95.7092 308.065 95.6197 307.737 95.6197 307.342V300.886ZM101.55 309.145C101.136 309.145 100.761 309.068 100.425 308.915C100.09 308.759 99.8246 308.533 99.6286 308.237C99.4354 307.942 99.3388 307.58 99.3388 307.151C99.3388 306.781 99.4098 306.477 99.5518 306.239C99.6939 306 99.8857 305.811 100.127 305.672C100.369 305.533 100.638 305.428 100.937 305.357C101.235 305.286 101.539 305.232 101.849 305.195C102.241 305.149 102.559 305.112 102.803 305.084C103.048 305.053 103.225 305.003 103.336 304.935C103.447 304.866 103.502 304.756 103.502 304.602V304.572C103.502 304.2 103.397 303.912 103.187 303.707C102.979 303.503 102.67 303.401 102.258 303.401C101.829 303.401 101.491 303.496 101.244 303.686C100.999 303.874 100.83 304.082 100.737 304.312L99.5391 304.04C99.6811 303.642 99.8885 303.321 100.161 303.077C100.437 302.83 100.754 302.651 101.112 302.54C101.469 302.426 101.846 302.369 102.241 302.369C102.502 302.369 102.779 302.401 103.072 302.463C103.367 302.523 103.643 302.634 103.898 302.795C104.157 302.957 104.369 303.189 104.533 303.49C104.698 303.788 104.781 304.176 104.781 304.653V309H103.536V308.105H103.485C103.403 308.27 103.279 308.432 103.114 308.591C102.95 308.75 102.738 308.882 102.479 308.987C102.221 309.092 101.911 309.145 101.55 309.145ZM101.827 308.122C102.18 308.122 102.481 308.053 102.731 307.913C102.984 307.774 103.175 307.592 103.306 307.368C103.44 307.141 103.506 306.898 103.506 306.639V305.795C103.461 305.841 103.373 305.884 103.242 305.923C103.114 305.96 102.968 305.993 102.803 306.021C102.638 306.047 102.478 306.071 102.322 306.094C102.165 306.114 102.035 306.131 101.93 306.145C101.683 306.176 101.457 306.229 101.252 306.303C101.05 306.376 100.888 306.483 100.766 306.622C100.647 306.759 100.587 306.94 100.587 307.168C100.587 307.483 100.704 307.722 100.937 307.884C101.17 308.043 101.467 308.122 101.827 308.122ZM107.752 300.273V309H106.478V300.273H107.752Z" fill="#6771FF"/>
<path d="M417.112 308.091V297.182H417.81V308.091H417.112ZM419.127 300.672C419.087 300.3 418.92 300.01 418.624 299.803C418.332 299.595 417.951 299.491 417.482 299.491C417.153 299.491 416.87 299.541 416.634 299.641C416.398 299.74 416.218 299.875 416.093 300.045C415.968 300.216 415.904 300.411 415.901 300.629C415.901 300.811 415.942 300.969 416.025 301.102C416.11 301.236 416.225 301.349 416.37 301.443C416.515 301.534 416.675 301.611 416.852 301.673C417.028 301.736 417.205 301.788 417.384 301.831L418.202 302.036C418.532 302.112 418.849 302.216 419.153 302.347C419.46 302.477 419.734 302.642 419.975 302.841C420.219 303.04 420.413 303.28 420.555 303.561C420.697 303.842 420.768 304.172 420.768 304.55C420.768 305.061 420.637 305.511 420.376 305.901C420.114 306.287 419.737 306.589 419.242 306.808C418.751 307.024 418.156 307.132 417.457 307.132C416.778 307.132 416.188 307.027 415.688 306.817C415.191 306.607 414.802 306.3 414.521 305.896C414.242 305.493 414.092 305.001 414.069 304.422H415.624C415.647 304.726 415.741 304.979 415.906 305.18C416.07 305.382 416.285 305.533 416.549 305.632C416.816 305.732 417.114 305.781 417.444 305.781C417.788 305.781 418.089 305.73 418.347 305.628C418.609 305.523 418.813 305.378 418.961 305.193C419.109 305.006 419.184 304.787 419.187 304.537C419.184 304.31 419.117 304.122 418.987 303.974C418.856 303.824 418.673 303.699 418.437 303.599C418.204 303.497 417.931 303.406 417.619 303.327L416.626 303.071C415.907 302.886 415.339 302.607 414.921 302.232C414.506 301.854 414.299 301.352 414.299 300.727C414.299 300.213 414.438 299.763 414.717 299.376C414.998 298.99 415.38 298.69 415.863 298.477C416.346 298.261 416.893 298.153 417.504 298.153C418.123 298.153 418.665 298.261 419.131 298.477C419.6 298.69 419.968 298.987 420.235 299.368C420.502 299.746 420.64 300.18 420.648 300.672H419.127ZM422.092 307V305.858L425.122 302.888C425.412 302.595 425.653 302.335 425.846 302.108C426.039 301.881 426.184 301.661 426.281 301.447C426.377 301.234 426.426 301.007 426.426 300.766C426.426 300.49 426.363 300.254 426.238 300.058C426.113 299.859 425.941 299.706 425.723 299.598C425.504 299.49 425.255 299.436 424.977 299.436C424.69 299.436 424.439 299.496 424.223 299.615C424.007 299.732 423.839 299.898 423.72 300.114C423.603 300.33 423.545 300.587 423.545 300.885H422.041C422.041 300.331 422.167 299.849 422.42 299.44C422.673 299.031 423.021 298.714 423.464 298.49C423.91 298.266 424.422 298.153 424.998 298.153C425.583 298.153 426.098 298.263 426.541 298.482C426.984 298.7 427.328 299 427.572 299.381C427.819 299.761 427.943 300.196 427.943 300.685C427.943 301.011 427.88 301.332 427.755 301.648C427.63 301.963 427.41 302.312 427.095 302.696C426.782 303.08 426.343 303.544 425.778 304.089L424.274 305.619V305.679H428.075V307H422.092ZM432.575 298.153C432.993 298.156 433.399 298.23 433.794 298.375C434.191 298.517 434.549 298.75 434.868 299.074C435.186 299.395 435.439 299.825 435.626 300.365C435.814 300.905 435.907 301.572 435.907 302.368C435.91 303.118 435.831 303.788 435.669 304.379C435.51 304.967 435.281 305.464 434.983 305.871C434.684 306.277 434.325 306.587 433.904 306.8C433.484 307.013 433.011 307.119 432.485 307.119C431.934 307.119 431.446 307.011 431.02 306.795C430.596 306.58 430.254 306.284 429.993 305.909C429.731 305.534 429.571 305.105 429.511 304.622H431.066C431.146 304.969 431.308 305.244 431.552 305.449C431.799 305.651 432.11 305.751 432.485 305.751C433.091 305.751 433.556 305.489 433.883 304.963C434.21 304.437 434.373 303.707 434.373 302.773H434.314C434.174 303.023 433.994 303.239 433.772 303.42C433.551 303.599 433.299 303.737 433.018 303.834C432.74 303.93 432.444 303.979 432.132 303.979C431.62 303.979 431.16 303.857 430.751 303.612C430.345 303.368 430.022 303.033 429.784 302.607C429.548 302.18 429.429 301.693 429.426 301.145C429.426 300.577 429.556 300.067 429.818 299.615C430.082 299.161 430.45 298.803 430.922 298.541C431.393 298.277 431.944 298.148 432.575 298.153ZM432.579 299.432C432.272 299.432 431.995 299.507 431.748 299.658C431.504 299.805 431.311 300.007 431.169 300.263C431.029 300.516 430.96 300.798 430.96 301.111C430.963 301.42 431.032 301.702 431.169 301.955C431.308 302.207 431.497 302.408 431.735 302.555C431.977 302.703 432.252 302.777 432.562 302.777C432.792 302.777 433.007 302.733 433.206 302.645C433.404 302.557 433.578 302.435 433.725 302.278C433.876 302.119 433.993 301.939 434.075 301.737C434.16 301.536 434.201 301.322 434.199 301.098C434.199 300.8 434.127 300.524 433.985 300.271C433.846 300.018 433.654 299.815 433.41 299.662C433.169 299.509 432.892 299.432 432.579 299.432ZM440.36 307.119C439.792 307.119 439.284 307.013 438.835 306.8C438.386 306.584 438.029 306.288 437.765 305.913C437.504 305.538 437.365 305.109 437.348 304.626H438.882C438.91 304.984 439.065 305.277 439.346 305.504C439.627 305.729 439.966 305.841 440.36 305.841C440.67 305.841 440.946 305.77 441.187 305.628C441.429 305.486 441.619 305.288 441.758 305.036C441.897 304.783 441.966 304.494 441.963 304.17C441.966 303.841 441.896 303.548 441.754 303.293C441.612 303.037 441.417 302.837 441.17 302.692C440.923 302.544 440.639 302.47 440.318 302.47C440.056 302.467 439.799 302.516 439.547 302.615C439.294 302.714 439.093 302.845 438.946 303.007L437.518 302.773L437.974 298.273H443.037V299.594H439.282L439.031 301.908H439.082C439.244 301.717 439.473 301.56 439.768 301.435C440.064 301.307 440.387 301.243 440.74 301.243C441.268 301.243 441.74 301.368 442.154 301.618C442.569 301.865 442.896 302.206 443.135 302.641C443.373 303.075 443.493 303.572 443.493 304.132C443.493 304.709 443.359 305.223 443.092 305.675C442.828 306.124 442.46 306.477 441.988 306.736C441.52 306.991 440.977 307.119 440.36 307.119ZM445.594 307.094C445.336 307.094 445.114 307.003 444.93 306.821C444.745 306.639 444.654 306.418 444.657 306.156C444.654 305.901 444.745 305.682 444.93 305.5C445.114 305.318 445.336 305.227 445.594 305.227C445.844 305.227 446.062 305.318 446.246 305.5C446.434 305.682 446.529 305.901 446.532 306.156C446.529 306.33 446.484 306.487 446.396 306.629C446.31 306.771 446.197 306.885 446.055 306.97C445.915 307.053 445.762 307.094 445.594 307.094ZM450.994 307.166C450.292 307.166 449.69 306.989 449.187 306.634C448.687 306.276 448.302 305.76 448.032 305.087C447.765 304.411 447.631 303.597 447.631 302.645C447.634 301.693 447.769 300.884 448.036 300.216C448.306 299.545 448.691 299.034 449.191 298.682C449.694 298.33 450.295 298.153 450.994 298.153C451.692 298.153 452.293 298.33 452.796 298.682C453.299 299.034 453.684 299.545 453.951 300.216C454.221 300.886 454.356 301.696 454.356 302.645C454.356 303.599 454.221 304.415 453.951 305.091C453.684 305.764 453.299 306.278 452.796 306.634C452.296 306.989 451.695 307.166 450.994 307.166ZM450.994 305.832C451.539 305.832 451.969 305.564 452.285 305.027C452.603 304.487 452.762 303.693 452.762 302.645C452.762 301.952 452.69 301.369 452.545 300.898C452.4 300.426 452.195 300.071 451.931 299.832C451.667 299.591 451.354 299.47 450.994 299.47C450.451 299.47 450.022 299.74 449.707 300.28C449.391 300.817 449.232 301.605 449.229 302.645C449.227 303.341 449.296 303.926 449.438 304.401C449.583 304.875 449.788 305.233 450.052 305.474C450.316 305.713 450.63 305.832 450.994 305.832ZM458.998 307.166C458.296 307.166 457.694 306.989 457.191 306.634C456.691 306.276 456.306 305.76 456.036 305.087C455.769 304.411 455.635 303.597 455.635 302.645C455.638 301.693 455.773 300.884 456.04 300.216C456.31 299.545 456.695 299.034 457.195 298.682C457.698 298.33 458.299 298.153 458.998 298.153C459.696 298.153 460.297 298.33 460.8 298.682C461.303 299.034 461.688 299.545 461.955 300.216C462.225 300.886 462.36 301.696 462.36 302.645C462.36 303.599 462.225 304.415 461.955 305.091C461.688 305.764 461.303 306.278 460.8 306.634C460.3 306.989 459.699 307.166 458.998 307.166ZM458.998 305.832C459.543 305.832 459.973 305.564 460.289 305.027C460.607 304.487 460.766 303.693 460.766 302.645C460.766 301.952 460.694 301.369 460.549 300.898C460.404 300.426 460.199 300.071 459.935 299.832C459.671 299.591 459.358 299.47 458.998 299.47C458.455 299.47 458.026 299.74 457.711 300.28C457.395 300.817 457.236 301.605 457.233 302.645C457.23 303.341 457.3 303.926 457.442 304.401C457.587 304.875 457.792 305.233 458.056 305.474C458.32 305.713 458.634 305.832 458.998 305.832Z" fill="#6771FF"/>
<mask id="path-19-inside-1_3146_892" fill="white">
<path d="M20 193H478V226H20V193Z"/>
</mask>
<path d="M20 193H478V226H20V193Z" fill="white"/>
<path d="M478 226V225.5H20V226V226.5H478V226Z" fill="#EBECFF" mask="url(#path-19-inside-1_3146_892)"/>
<rect x="44" y="206" width="47" height="8" rx="4" fill="#F0F1FF"/>
<rect x="162" y="208" width="27" height="8" rx="4" fill="#F0F1FF"/>
<rect x="279" y="206" width="39" height="8" rx="4" fill="#F0F1FF"/>
<rect x="434" y="206" width="23" height="8" rx="4" fill="#F0F1FF"/>
<mask id="path-25-inside-2_3146_892" fill="white">
<path d="M20 226H478V259H20V226Z"/>
</mask>
<path d="M20 226H478V259H20V226Z" fill="white"/>
<path d="M478 259V258.5H20V259V259.5H478V259Z" fill="#EBECFF" mask="url(#path-25-inside-2_3146_892)"/>
<rect x="44" y="239" width="47" height="8" rx="4" fill="#F0F1FF"/>
<rect x="162" y="241" width="27" height="8" rx="4" fill="#F0F1FF"/>
<rect x="279" y="239" width="39" height="8" rx="4" fill="#F0F1FF"/>
<rect x="434" y="239" width="23" height="8" rx="4" fill="#F0F1FF"/>
<mask id="path-31-inside-3_3146_892" fill="white">
<path d="M19 259H477V292H19V259Z"/>
</mask>
<path d="M19 259H477V292H19V259Z" fill="white"/>
<path d="M477 292V291.5H19V292V292.5H477V292Z" fill="#EBECFF" mask="url(#path-31-inside-3_3146_892)"/>
<rect x="43" y="272" width="47" height="8" rx="4" fill="#F0F1FF"/>
<rect x="161" y="274" width="27" height="8" rx="4" fill="#F0F1FF"/>
<rect x="278" y="272" width="39" height="8" rx="4" fill="#F0F1FF"/>
<rect x="433" y="272" width="23" height="8" rx="4" fill="#F0F1FF"/>
</svg>
