<svg width="498" height="341" viewBox="0 0 498 341" fill="none" xmlns="http://www.w3.org/2000/svg">
<rect width="498" height="341" rx="12" fill="#F0F1FF"/>
<rect x="18" y="21" width="100" height="9" rx="4.5" fill="#8181FF"/>
<rect x="18" y="38" width="171" height="5" rx="2.5" fill="#D7D7FF"/>
<rect x="18" y="59" width="225" height="113" rx="6" fill="white"/>
<rect x="24" y="67" width="14" height="14" rx="3" fill="#8181FF"/>
<rect x="41" y="71.5" width="41" height="5" rx="2.5" fill="#8181FF"/>
<rect x="24" y="89" width="61" height="3" rx="1.5" fill="#D7D7FF"/>
<rect x="24.25" y="95.25" width="104" height="25.5" rx="5.75" stroke="#D7D7FF" stroke-width="0.5"/>
<rect x="133" y="89" width="61" height="3" rx="1.5" fill="#D7D7FF"/>
<rect x="133.25" y="95.25" width="104" height="25.5" rx="5.75" stroke="#D7D7FF" stroke-width="0.5"/>
<rect x="24" y="127" width="61" height="3" rx="1.5" fill="#D7D7FF"/>
<rect x="24.25" y="133.25" width="104" height="25.5" rx="5.75" stroke="#D7D7FF" stroke-width="0.5"/>
<rect x="133" y="127" width="61" height="3" rx="1.5" fill="#D7D7FF"/>
<rect x="133.25" y="133.25" width="104" height="25.5" rx="5.75" stroke="#D7D7FF" stroke-width="0.5"/>
<rect x="254" y="59" width="225" height="113" rx="6" fill="white"/>
<rect x="260" y="67" width="14" height="14" rx="3" fill="#8181FF"/>
<rect x="277" y="71.5" width="41" height="5" rx="2.5" fill="#8181FF"/>
<rect x="260" y="89" width="61" height="3" rx="1.5" fill="#D7D7FF"/>
<rect x="260.25" y="95.25" width="104" height="25.5" rx="5.75" stroke="#D7D7FF" stroke-width="0.5"/>
<rect x="369" y="89" width="61" height="3" rx="1.5" fill="#D7D7FF"/>
<rect x="369.25" y="95.25" width="104" height="25.5" rx="5.75" stroke="#D7D7FF" stroke-width="0.5"/>
<rect x="260" y="127" width="61" height="3" rx="1.5" fill="#D7D7FF"/>
<rect x="260.25" y="133.25" width="104" height="25.5" rx="5.75" stroke="#D7D7FF" stroke-width="0.5"/>
<rect x="369" y="127" width="61" height="3" rx="1.5" fill="#D7D7FF"/>
<rect x="369.25" y="133.25" width="104" height="25.5" rx="5.75" stroke="#D7D7FF" stroke-width="0.5"/>
<rect x="18" y="196" width="115" height="6" rx="3" fill="#8181FF"/>
<rect x="18" y="222" width="80" height="80" rx="8" fill="white"/>
<path d="M58 241C50.2682 241 44 247.268 44 255V269C44 276.732 50.2682 283 58 283C65.7318 283 72 276.732 72 269V255C72 247.268 65.7318 241 58 241ZM56.6 243.888V247.781C54.9767 248.364 53.8 249.921 53.8 251.733V255.438C52.137 255.358 50.8131 254.967 49.8625 254.285C48.7952 253.52 48.0579 252.381 47.7625 250.435C49.318 246.918 52.6182 244.374 56.6 243.888ZM59.4 243.888C63.3818 244.374 66.682 246.918 68.2375 250.435C67.9421 252.381 67.2048 253.52 66.1375 254.285C65.1869 254.967 63.863 255.358 62.2 255.438V251.733C62.2 249.921 61.0233 248.364 59.4 247.781V243.888ZM58 250.333C58.7998 250.333 59.4 250.934 59.4 251.733V258.267C59.4 259.066 58.7998 259.667 58 259.667C57.2002 259.667 56.6 259.066 56.6 258.267V251.733C56.6 250.934 57.2002 250.333 58 250.333ZM46.8 255.204C47.2162 255.726 47.696 256.178 48.2292 256.56C49.7816 257.674 51.6975 258.173 53.8 258.252V258.267C53.8 260.078 54.9776 261.636 56.6 262.219V264.333C56.5974 264.519 56.6317 264.703 56.7008 264.875C56.77 265.047 56.8727 265.204 57.003 265.336C57.1332 265.468 57.2885 265.573 57.4596 265.645C57.6308 265.716 57.8145 265.753 58 265.753C58.1855 265.753 58.3692 265.716 58.5404 265.645C58.7115 265.573 58.8668 265.468 58.997 265.336C59.1273 265.204 59.23 265.047 59.2992 264.875C59.3683 264.703 59.4026 264.519 59.4 264.333V262.219C61.0224 261.636 62.2 260.078 62.2 258.267V258.252C64.3025 258.173 66.2184 257.674 67.7708 256.56C68.304 256.178 68.7838 255.726 69.2 255.204V269C69.2 275.229 64.229 280.2 58 280.2C51.771 280.2 46.8 275.229 46.8 269V255.204Z" fill="#D7D7FF"/>
<rect x="112" y="222" width="80" height="80" rx="8" fill="white"/>
<path d="M170.633 275.725H132.934C131.316 275.725 130 274.409 130 272.791V253.925C130 252.307 131.316 250.991 132.934 250.991H170.633C172.251 250.991 173.567 252.307 173.567 253.925V272.791C173.565 274.409 172.249 275.725 170.633 275.725ZM132.934 252.339C132.06 252.339 131.348 253.051 131.348 253.925V272.791C131.348 273.665 132.06 274.377 132.934 274.377H170.633C171.507 274.377 172.219 273.665 172.219 272.791L172.218 253.925C172.218 253.051 171.505 252.339 170.631 252.339H132.934Z" fill="#D7D7FF"/>
<path d="M137.496 259.156H133.909C133.537 259.156 133.235 258.854 133.235 258.482V254.896C133.235 254.524 133.537 254.222 133.909 254.222H137.496C137.868 254.222 138.17 254.524 138.17 254.896V258.482C138.17 258.854 137.868 259.156 137.496 259.156ZM134.583 257.809H136.822V255.569H134.583V257.809Z" fill="#D7D7FF"/>
<path d="M143.937 259.156H140.35C139.978 259.156 139.676 258.854 139.676 258.482V254.896C139.676 254.524 139.978 254.222 140.35 254.222H143.937C144.309 254.222 144.61 254.524 144.61 254.896V258.482C144.61 258.854 144.309 259.156 143.937 259.156ZM141.023 257.809H143.263V255.569H141.023V257.809Z" fill="#D7D7FF"/>
<path d="M150.367 259.156H146.78C146.408 259.156 146.106 258.854 146.106 258.482V254.896C146.106 254.524 146.408 254.222 146.78 254.222H150.367C150.739 254.222 151.041 254.524 151.041 254.896V258.482C151.041 258.854 150.739 259.156 150.367 259.156ZM147.454 257.809H149.693V255.569H147.454V257.809Z" fill="#D7D7FF"/>
<path d="M156.793 259.156H153.206C152.834 259.156 152.532 258.854 152.532 258.482V254.896C152.532 254.524 152.834 254.222 153.206 254.222H156.793C157.165 254.222 157.467 254.524 157.467 254.896V258.482C157.467 258.854 157.167 259.156 156.793 259.156ZM153.88 257.809H156.119V255.569H153.88V257.809Z" fill="#D7D7FF"/>
<path d="M163.219 259.156H159.632C159.26 259.156 158.958 258.854 158.958 258.482V254.896C158.958 254.524 159.26 254.222 159.632 254.222H163.219C163.591 254.222 163.893 254.524 163.893 254.896V258.482C163.893 258.854 163.591 259.156 163.219 259.156ZM160.306 257.809H162.545V255.569H160.306V257.809Z" fill="#D7D7FF"/>
<path d="M169.659 259.156H166.072C165.7 259.156 165.398 258.854 165.398 258.482V254.896C165.398 254.524 165.7 254.222 166.072 254.222H169.659C170.031 254.222 170.333 254.524 170.333 254.896V258.482C170.333 258.854 170.031 259.156 169.659 259.156ZM166.746 257.809H168.985V255.569H166.746V257.809Z" fill="#D7D7FF"/>
<path d="M137.496 265.836H133.909C133.537 265.836 133.235 265.534 133.235 265.162V261.575C133.235 261.203 133.537 260.901 133.909 260.901H137.496C137.868 260.901 138.17 261.203 138.17 261.575V265.162C138.17 265.534 137.868 265.836 137.496 265.836ZM134.583 264.488H136.822V262.249H134.583V264.488Z" fill="#D7D7FF"/>
<path d="M143.937 265.836H140.35C139.978 265.836 139.676 265.534 139.676 265.162V261.575C139.676 261.203 139.978 260.901 140.35 260.901H143.937C144.309 260.901 144.61 261.203 144.61 261.575V265.162C144.61 265.534 144.309 265.836 143.937 265.836ZM141.023 264.488H143.263V262.249H141.023V264.488Z" fill="#D7D7FF"/>
<path d="M150.367 265.836H146.78C146.408 265.836 146.106 265.534 146.106 265.162V261.575C146.106 261.203 146.408 260.901 146.78 260.901H150.367C150.739 260.901 151.041 261.203 151.041 261.575V265.162C151.041 265.534 150.739 265.836 150.367 265.836ZM147.454 264.488H149.693V262.249H147.454V264.488Z" fill="#D7D7FF"/>
<path d="M156.793 265.836H153.206C152.834 265.836 152.532 265.534 152.532 265.162V261.575C152.532 261.203 152.834 260.901 153.206 260.901H156.793C157.165 260.901 157.467 261.203 157.467 261.575V265.162C157.467 265.534 157.167 265.836 156.793 265.836ZM153.88 264.488H156.119V262.249H153.88V264.488Z" fill="#D7D7FF"/>
<path d="M169.65 265.836H159.632C159.26 265.836 158.958 265.534 158.958 265.162V261.575C158.958 261.203 159.26 260.901 159.632 260.901H169.65C170.022 260.901 170.324 261.203 170.324 261.575V265.162C170.324 265.534 170.022 265.836 169.65 265.836ZM160.306 264.488H168.976V262.249H160.306V264.488Z" fill="#D7D7FF"/>
<path d="M137.496 272.506H133.909C133.537 272.506 133.235 272.204 133.235 271.832V268.245C133.235 267.873 133.537 267.571 133.909 267.571H137.496C137.868 267.571 138.17 267.873 138.17 268.245V271.832C138.17 272.204 137.868 272.506 137.496 272.506ZM134.583 271.158H136.822V268.919H134.583V271.158Z" fill="#D7D7FF"/>
<path d="M156.798 272.506H140.35C139.978 272.506 139.676 272.204 139.676 271.832V268.245C139.676 267.873 139.978 267.571 140.35 267.571H156.798C157.17 267.571 157.471 267.873 157.471 268.245V271.832C157.471 272.204 157.171 272.506 156.798 272.506ZM141.023 271.158H156.124V268.919H141.023V271.158Z" fill="#D7D7FF"/>
<path d="M163.219 272.506H159.632C159.26 272.506 158.958 272.204 158.958 271.832V268.245C158.958 267.873 159.26 267.571 159.632 267.571H163.219C163.591 267.571 163.893 267.873 163.893 268.245V271.832C163.893 272.204 163.591 272.506 163.219 272.506ZM160.306 271.158H162.545V268.919H160.306V271.158Z" fill="#D7D7FF"/>
<path d="M169.659 272.506H166.072C165.7 272.506 165.398 272.204 165.398 271.832V268.245C165.398 267.873 165.7 267.571 166.072 267.571H169.659C170.031 267.571 170.333 267.873 170.333 268.245V271.832C170.333 272.204 170.031 272.506 169.659 272.506ZM166.746 271.158H168.985V268.919H166.746V271.158Z" fill="#D7D7FF"/>
<path d="M140.359 252.345H135.425C135.053 252.345 134.751 252.043 134.751 251.671V249.832C134.751 248.823 135.572 248 136.583 248H139.203C140.212 248 141.035 248.821 141.035 249.832V251.671C141.033 252.043 140.731 252.345 140.359 252.345ZM136.099 250.997H139.685V249.832C139.685 249.565 139.468 249.348 139.201 249.348H136.581C136.314 249.348 136.097 249.565 136.097 249.832L136.099 250.997Z" fill="#D7D7FF"/>
<path d="M168.145 252.345H163.211C162.839 252.345 162.537 252.043 162.537 251.671V249.832C162.537 248.823 163.358 248 164.367 248H166.987C167.996 248 168.818 248.821 168.818 249.832V251.671C168.819 252.043 168.517 252.345 168.145 252.345ZM163.885 250.997H167.472V249.832C167.472 249.565 167.256 249.348 166.989 249.348H164.369C164.102 249.348 163.886 249.565 163.886 249.832L163.885 250.997Z" fill="#D7D7FF"/>
<rect x="206" y="222" width="80" height="80" rx="8" fill="white"/>
<path d="M237.587 244.002H254.413C257.325 244.002 259.972 245.332 261.89 247.474C263.809 249.615 265 252.572 265 255.823C265 259.075 263.809 262.029 261.89 264.171C260.191 266.068 257.919 267.328 255.401 267.591V268.98C255.432 269.026 255.458 269.076 255.481 269.128L258.406 274.402C258.97 274.483 259.478 274.776 259.862 275.205L259.924 275.281C260.344 275.782 260.602 276.456 260.602 277.19C260.602 277.96 260.318 278.663 259.861 279.173C259.407 279.683 258.777 280 258.085 280H233.915C233.222 280 232.593 279.683 232.138 279.175L232.076 279.099C231.656 278.596 231.398 277.924 231.398 277.19C231.398 276.418 231.682 275.717 232.138 275.207C232.522 274.774 233.03 274.481 233.594 274.4L236.565 269.043L236.599 268.987V267.589C234.082 267.326 231.812 266.064 230.111 264.167C228.191 262.028 227 259.073 227 255.821C227 252.57 228.191 249.614 230.11 247.472C232.028 245.33 234.676 244 237.587 244L237.587 244.002ZM246.001 251.236C248.269 251.236 250.109 253.289 250.109 255.823C250.109 258.356 248.269 260.409 246.001 260.409C243.731 260.409 241.893 258.355 241.893 255.823C241.893 253.288 243.731 251.236 246.001 251.236ZM246.001 254.648C245.564 254.648 245.211 254.253 245.211 253.766C245.211 253.278 245.564 252.884 246.001 252.884C246.725 252.884 247.382 253.213 247.859 253.745C248.337 254.281 248.634 255.015 248.634 255.823C248.634 256.311 248.28 256.705 247.843 256.705C247.407 256.705 247.053 256.311 247.053 255.823C247.053 255.497 246.936 255.203 246.748 254.991C246.558 254.781 246.294 254.65 246.002 254.65L246.001 254.648ZM254.054 270.725H237.948L235.922 274.378H256.078L254.052 270.725H254.054ZM234.46 256.924C233.915 256.924 233.473 256.429 233.473 255.821C233.473 255.213 233.915 254.719 234.46 254.719H238.646C238.876 252.875 239.64 251.223 240.762 249.97C242.103 248.473 243.956 247.546 246.003 247.546C248.049 247.546 249.902 248.473 251.244 249.97C252.366 251.222 253.129 252.875 253.361 254.719H257.545C258.09 254.719 258.533 255.213 258.533 255.821C258.533 256.429 258.09 256.924 257.545 256.924H253.361C253.13 258.768 252.366 260.42 251.244 261.671C249.903 263.168 248.049 264.095 246.003 264.095C243.956 264.095 242.103 263.168 240.762 261.671C239.64 260.418 238.876 258.766 238.646 256.924H234.46ZM249.845 251.53C248.862 250.432 247.502 249.753 246.001 249.753C244.499 249.753 243.139 250.432 242.156 251.53C241.173 252.627 240.565 254.145 240.565 255.821C240.565 257.498 241.173 259.016 242.156 260.113C243.139 261.211 244.499 261.89 246.001 261.89C247.502 261.89 248.862 261.211 249.845 260.113C250.828 259.016 251.436 257.498 251.436 255.821C251.436 254.145 250.828 252.627 249.845 251.53ZM254.413 246.206H237.586C235.219 246.206 233.066 247.288 231.504 249.03C229.944 250.772 228.975 253.177 228.975 255.82C228.975 258.463 229.944 260.866 231.504 262.61C233.063 264.354 235.216 265.434 237.586 265.434H254.413C256.78 265.434 258.933 264.352 260.495 262.61C262.055 260.869 263.024 258.463 263.024 255.82C263.024 253.177 262.055 250.772 260.495 249.03C258.935 247.288 256.78 246.206 254.413 246.206Z" fill="#D7D7FF"/>
<rect x="300" y="222" width="80" height="80" rx="8" fill="white"/>
<path d="M358.987 265.153V263.872C358.987 252.915 350.245 244 339.501 244C328.757 244 320.015 252.915 320.015 263.87V265.151C318.774 266.395 318 268.125 318 270.036V274.146C318 277.924 321.015 280.998 324.719 280.998H326.734C328.217 280.998 329.422 279.769 329.422 278.257V265.923C329.422 264.411 328.217 263.182 326.734 263.182H324.719C324.02 263.182 323.346 263.293 322.712 263.495C322.773 260.64 323.519 257.953 324.794 255.603L325.229 256.047C327.184 258.041 330.275 258.204 332.42 256.426L334.416 254.772C337.362 252.33 341.639 252.332 344.584 254.772L346.582 256.428C347.577 257.252 348.777 257.659 349.971 257.659C351.351 257.659 352.725 257.117 353.771 256.049L354.206 255.605C355.481 257.955 356.227 260.642 356.288 263.497C355.654 263.294 354.98 263.184 354.281 263.184H352.266C350.783 263.184 349.578 264.413 349.578 265.925V278.259C349.578 279.771 350.783 281 352.266 281H354.281C357.985 281 361 277.925 361 274.148V270.038C361 268.127 360.227 266.397 358.985 265.153L358.987 265.153ZM326.735 265.927L326.736 278.261H324.719C322.496 278.261 320.688 276.417 320.688 274.15V270.04C320.688 267.772 322.496 265.929 324.719 265.929H326.735L326.735 265.927ZM351.873 254.114C350.896 255.111 349.349 255.191 348.278 254.303L346.281 252.647C342.353 249.394 336.652 249.392 332.722 252.647L330.727 254.301C329.654 255.191 328.109 255.109 327.131 254.112L326.314 253.278C329.393 249.301 334.157 246.739 339.501 246.739C344.846 246.739 349.61 249.3 352.689 253.278L351.871 254.112L351.873 254.114ZM358.314 274.148C358.314 276.415 356.506 278.259 354.283 278.259H352.268V265.925H354.283C356.507 265.925 358.314 267.769 358.314 270.036V274.148Z" fill="#D7D7FF"/>
<rect x="394" y="222" width="80" height="80" rx="8" fill="white"/>
<path d="M458.83 273.005L457.883 254.898V254.896C457.883 248.337 452.547 243 445.987 243C443.964 243 441.989 243.51 440.243 244.479C438.243 243.974 436.118 243.719 433.92 243.719C431.722 243.719 429.598 243.974 427.597 244.479C425.851 243.51 423.877 243 421.853 243C415.293 243 409.957 248.337 409.957 254.896V254.898L409.01 273.005C408.836 276.324 410.942 279.297 414.13 280.233C414.783 280.426 415.459 280.524 416.141 280.524C418.724 280.524 421.112 279.123 422.373 276.869L426.071 270.258C426.775 270.562 427.55 270.731 428.364 270.731C430.984 270.731 433.204 268.985 433.92 266.595C434.637 268.985 436.856 270.731 439.476 270.731C440.29 270.731 441.065 270.562 441.769 270.258L445.467 276.869C446.728 279.123 449.116 280.524 451.699 280.524C452.381 280.524 453.057 280.426 453.707 280.234C456.898 279.297 459.005 276.324 458.83 273.005ZM420.176 275.639C419.359 277.099 417.813 278.005 416.141 278.005C415.701 278.005 415.265 277.943 414.843 277.818C412.776 277.211 411.412 275.286 411.525 273.136L412.122 261.728C414.277 264.786 417.835 266.787 421.853 266.787C422.187 266.787 422.522 266.773 422.856 266.746C423.105 267.5 423.504 268.186 424.019 268.768L420.176 275.639ZM428.364 268.213C426.555 268.213 425.083 266.741 425.083 264.932C425.083 263.122 426.555 261.651 428.364 261.651C430.173 261.651 431.645 263.122 431.645 264.932C431.645 266.741 430.173 268.213 428.364 268.213ZM439.476 268.213C437.667 268.213 436.195 266.741 436.195 264.932C436.195 263.122 437.667 261.651 439.476 261.651C441.285 261.651 442.758 263.122 442.758 264.932C442.758 266.741 441.285 268.213 439.476 268.213ZM439.476 259.132C436.856 259.132 434.637 260.879 433.92 263.268C433.204 260.879 430.984 259.132 428.364 259.132C425.401 259.132 422.95 261.366 422.606 264.239C422.356 264.259 422.104 264.269 421.853 264.269C416.705 264.269 412.512 260.1 412.476 254.963L412.476 254.961C412.476 254.939 412.476 254.918 412.476 254.896C412.476 249.725 416.682 245.519 421.853 245.519C423.596 245.519 425.291 245.997 426.753 246.902C427.076 247.102 427.463 247.141 427.81 247.027C429.725 246.503 431.78 246.237 433.92 246.237C436.054 246.237 438.103 246.501 440.013 247.022C440.365 247.143 440.761 247.105 441.087 246.902C442.55 245.997 444.244 245.519 445.987 245.519C451.158 245.519 455.365 249.725 455.365 254.896C455.365 254.918 455.365 254.939 455.364 254.961V254.963C455.328 260.1 451.136 264.269 445.987 264.269C445.736 264.269 445.484 264.259 445.234 264.239C444.891 261.366 442.439 259.132 439.476 259.132ZM452.995 277.818C452.575 277.943 452.139 278.005 451.699 278.005C450.027 278.005 448.482 277.099 447.665 275.639L443.821 268.768C444.336 268.186 444.736 267.5 444.985 266.746C445.318 266.773 445.653 266.787 445.987 266.787C450.005 266.787 453.564 264.786 455.718 261.728L456.315 273.137C456.428 275.286 455.064 277.211 452.995 277.818Z" fill="#D7D7FF"/>
<path d="M424.342 252.653H423.332V251.644C423.332 250.41 422.328 249.405 421.094 249.405C419.859 249.405 418.855 250.41 418.855 251.644V252.653H417.85C416.615 252.653 415.611 253.658 415.611 254.892C415.611 256.127 416.615 257.131 417.85 257.131H418.855V258.136C418.855 259.371 419.859 260.375 421.094 260.375C422.328 260.375 423.332 259.371 423.332 258.136V257.131H424.342C425.576 257.131 426.581 256.127 426.581 254.892C426.581 253.658 425.576 252.653 424.342 252.653Z" fill="#D7D7FF"/>
<path d="M447.327 252.957C448.587 252.957 449.613 251.931 449.613 250.67C449.613 249.409 448.587 248.384 447.327 248.384C446.065 248.384 445.04 249.409 445.04 250.67C445.04 251.931 446.065 252.957 447.327 252.957ZM447.327 250.438C447.454 250.438 447.558 250.542 447.558 250.67C447.558 250.798 447.454 250.902 447.327 250.902C447.199 250.902 447.094 250.798 447.094 250.67C447.094 250.542 447.199 250.438 447.327 250.438Z" fill="#D7D7FF"/>
<path d="M447.327 261.069C448.587 261.069 449.613 260.043 449.613 258.783C449.613 257.522 448.587 256.496 447.327 256.496C446.065 256.496 445.04 257.522 445.04 258.783C445.04 260.043 446.065 261.069 447.327 261.069ZM447.327 258.551C447.454 258.551 447.558 258.655 447.558 258.783C447.558 258.91 447.454 259.015 447.327 259.015C447.199 259.015 447.094 258.91 447.094 258.783C447.094 258.655 447.199 258.551 447.327 258.551Z" fill="#D7D7FF"/>
<path d="M443.264 252.446C442.003 252.446 440.978 253.472 440.978 254.733C440.978 255.994 442.003 257.019 443.264 257.019C444.525 257.019 445.55 255.994 445.55 254.733C445.55 253.472 444.525 252.446 443.264 252.446ZM443.264 254.965C443.136 254.965 443.032 254.861 443.032 254.733C443.032 254.605 443.136 254.501 443.264 254.501C443.391 254.501 443.496 254.605 443.496 254.733C443.496 254.861 443.391 254.965 443.264 254.965Z" fill="#D7D7FF"/>
<path d="M451.389 257.019C452.65 257.019 453.675 255.994 453.675 254.733C453.675 253.472 452.65 252.446 451.389 252.446C450.128 252.446 449.103 253.472 449.103 254.733C449.103 255.994 450.128 257.019 451.389 257.019ZM451.389 254.501C451.516 254.501 451.621 254.605 451.621 254.733C451.621 254.861 451.516 254.965 451.389 254.965C451.261 254.965 451.157 254.861 451.157 254.733C451.157 254.605 451.261 254.501 451.389 254.501Z" fill="#D7D7FF"/>
</svg>
