<svg width="498" height="341" viewBox="0 0 498 341" fill="none" xmlns="http://www.w3.org/2000/svg">
<rect width="498" height="341" rx="12" fill="#F0F1FF"/>
<rect x="43" y="44" width="208" height="254" rx="11" fill="white"/>
<path d="M203 195.588V208.765C203 212.827 200.058 216.177 196.245 216.835V187.573C200.058 188.232 203 191.58 203 195.588ZM91 195.643V208.765C91 212.828 93.8871 216.122 97.7005 216.835V187.573C93.8872 188.287 91 191.58 91 195.643ZM145.311 160.56H148.688C150.922 160.56 152.774 158.694 152.774 156.443V145.901H141.225V156.443C141.225 158.694 143.077 160.56 145.311 160.56ZM187.583 135.964C191.233 139.698 193.521 144.749 193.521 150.458V231H100.424V218.592C100.424 218.592 100.479 218.427 100.479 218.318V186.09C100.479 186.09 100.479 185.925 100.424 185.815V150.458C100.424 144.749 102.712 139.643 106.416 135.909V143.596C106.416 149.47 111.101 154.192 116.93 154.192H138.502V156.443C138.502 160.231 141.552 163.305 145.311 163.305H148.688C152.447 163.305 155.498 160.231 155.498 156.443V154.192H177.07C182.899 154.192 187.583 149.47 187.583 143.596V135.964ZM180.393 195.863C180.393 184.937 171.568 176.098 160.728 176.098H133.272C122.432 176.098 113.607 184.937 113.607 195.863V218.922C113.607 219.69 114.261 220.294 114.969 220.294H179.032C179.74 220.294 180.393 219.69 180.393 218.922L180.393 195.863ZM177.669 195.863V217.549H116.329V195.863C116.329 186.474 123.956 178.843 133.271 178.843H160.726C170.042 178.843 177.669 186.475 177.669 195.863ZM169.116 188.725C169.116 188.012 168.517 187.353 167.755 187.353H126.246C125.483 187.353 124.884 188.012 124.884 188.725C124.884 189.494 125.483 190.098 126.246 190.098H132.347V194.38C132.347 195.149 132.946 195.753 133.709 195.753C134.471 195.753 135.071 195.149 135.071 194.38V190.098H167.755C168.518 190.098 169.116 189.494 169.116 188.725ZM116.929 151.447H138.501V144.529C138.501 143.815 139.154 143.156 139.863 143.156H154.135C154.843 143.156 155.497 143.815 155.497 144.529V151.447H177.069C181.372 151.447 184.859 147.933 184.859 143.596V128.058C184.859 116.693 175.707 107.47 164.43 107.47H129.567C118.29 107.47 109.138 116.693 109.138 128.058V143.596C109.138 147.933 112.625 151.447 116.929 151.447ZM134.252 102.2C134.252 98.1922 137.466 94.9529 141.442 94.9529H152.555C156.532 94.9529 159.746 98.1922 159.746 102.2V104.725H164.866V101.322C164.866 95.6118 160.291 91 154.68 91H139.318C133.707 91 129.131 95.6118 129.131 101.322V104.725H134.252L134.252 102.2Z" fill="#D7D7FF"/>
<rect x="275" y="44" width="194" height="30" rx="15" fill="#D7D7FF"/>
<rect x="275" y="88" width="130" height="12" rx="6" fill="#D7D7FF"/>
<rect x="275" y="105" width="194" height="12" rx="6" fill="#D7D7FF"/>
<rect x="275" y="157" width="208" height="19" rx="9.5" fill="#D7D7FF"/>
<rect x="275" y="188" width="85" height="19" rx="9.5" fill="#D7D7FF"/>
<rect x="275" y="237" width="100" height="40" rx="9" fill="#D7D7FF"/>
<rect x="383" y="237" width="100" height="40" rx="9" fill="#D7D7FF"/>
</svg>
